<svg width="40" height="40" viewBox="0 0 40 40" fill="none" xmlns="http://www.w3.org/2000/svg">
<path d="M29.0566 15.1811C29.0659 15.3923 29.0659 15.5939 29.0659 15.8051C29.0752 22.2084 24.3707 29.6004 15.7674 29.6004C13.23 29.6004 10.7388 28.842 8.59961 27.4212C8.97004 27.4692 9.34047 27.4884 9.7109 27.4884C11.8131 27.4884 13.8597 26.7588 15.5174 25.4052C13.5171 25.3668 11.7575 24.0132 11.1463 22.0356C11.8501 22.1796 12.5725 22.1508 13.2578 21.9492C11.0815 21.5076 9.51642 19.5204 9.50716 17.2068C9.50716 17.1876 9.50716 17.1684 9.50716 17.1492C10.1554 17.5236 10.887 17.7348 11.6279 17.754C9.58125 16.3331 8.94226 13.5011 10.1832 11.2835C12.5632 14.3171 16.0638 16.1507 19.8237 16.3523C19.444 14.6723 19.9626 12.9059 21.1757 11.7155C23.0557 9.88193 26.0191 9.97793 27.7972 11.9267C28.8436 11.7155 29.8531 11.3123 30.7699 10.7459C30.418 11.8691 29.6864 12.8195 28.714 13.4243C29.6401 13.3091 30.5476 13.0499 31.3996 12.6659C30.7699 13.6451 29.9734 14.4899 29.0566 15.1811Z" fill="#FFFAFA"/>
</svg>
