<svg width="28" height="28" viewBox="0 0 28 28" fill="none" xmlns="http://www.w3.org/2000/svg">
<path fill-rule="evenodd" clip-rule="evenodd" d="M1 3.25C1 3.05109 1.07902 2.86032 1.21967 2.71967C1.36032 2.57902 1.55109 2.5 1.75 2.5H4C4.1673 2.50005 4.32978 2.55603 4.4616 2.65904C4.59342 2.76205 4.68701 2.90618 4.7275 3.0685L5.335 5.5H22.75C22.8609 5.50007 22.9704 5.52474 23.0707 5.57223C23.1709 5.61972 23.2594 5.68885 23.3297 5.77465C23.4 5.86044 23.4504 5.96076 23.4772 6.06838C23.5041 6.176 23.5067 6.28823 23.485 6.397L21.985 13.897C21.9522 14.0605 21.8658 14.2085 21.7395 14.3174C21.6131 14.4264 21.4541 14.4901 21.2875 14.4985L7.192 15.2065L7.6225 17.5H20.5C20.6989 17.5 20.8897 17.579 21.0303 17.7197C21.171 17.8603 21.25 18.0511 21.25 18.25C21.25 18.4489 21.171 18.6397 21.0303 18.7803C20.8897 18.921 20.6989 19 20.5 19H7C6.82515 18.9998 6.65585 18.9386 6.52137 18.8268C6.38688 18.7151 6.29567 18.5599 6.2635 18.388L4.015 6.4105L3.415 4H1.75C1.55109 4 1.36032 3.92098 1.21967 3.78033C1.07902 3.63968 1 3.44891 1 3.25ZM5.653 7L6.913 13.7185L20.629 13.03L21.835 7H5.653ZM8.5 19C7.70435 19 6.94129 19.3161 6.37868 19.8787C5.81607 20.4413 5.5 21.2044 5.5 22C5.5 22.7956 5.81607 23.5587 6.37868 24.1213C6.94129 24.6839 7.70435 25 8.5 25C9.29565 25 10.0587 24.6839 10.6213 24.1213C11.1839 23.5587 11.5 22.7956 11.5 22C11.5 21.2044 11.1839 20.4413 10.6213 19.8787C10.0587 19.3161 9.29565 19 8.5 19ZM19 19C18.2044 19 17.4413 19.3161 16.8787 19.8787C16.3161 20.4413 16 21.2044 16 22C16 22.7956 16.3161 23.5587 16.8787 24.1213C17.4413 24.6839 18.2044 25 19 25C19.7956 25 20.5587 24.6839 21.1213 24.1213C21.6839 23.5587 22 22.7956 22 22C22 21.2044 21.6839 20.4413 21.1213 19.8787C20.5587 19.3161 19.7956 19 19 19ZM8.5 20.5C8.10218 20.5 7.72064 20.658 7.43934 20.9393C7.15804 21.2206 7 21.6022 7 22C7 22.3978 7.15804 22.7794 7.43934 23.0607C7.72064 23.342 8.10218 23.5 8.5 23.5C8.89782 23.5 9.27936 23.342 9.56066 23.0607C9.84196 22.7794 10 22.3978 10 22C10 21.6022 9.84196 21.2206 9.56066 20.9393C9.27936 20.658 8.89782 20.5 8.5 20.5ZM19 20.5C18.6022 20.5 18.2206 20.658 17.9393 20.9393C17.658 21.2206 17.5 21.6022 17.5 22C17.5 22.3978 17.658 22.7794 17.9393 23.0607C18.2206 23.342 18.6022 23.5 19 23.5C19.3978 23.5 19.7794 23.342 20.0607 23.0607C20.342 22.7794 20.5 22.3978 20.5 22C20.5 21.6022 20.342 21.2206 20.0607 20.9393C19.7794 20.658 19.3978 20.5 19 20.5Z" fill="#7A7A7A"/>
</svg>
