<svg width="13" height="19" viewBox="0 0 13 19" fill="none" xmlns="http://www.w3.org/2000/svg">
<mask id="path-1-inside-1_567_1068" fill="white">
<path d="M5.04715 0.218113C4.99143 0.347364 4.94366 0.533163 4.8959 0.767433C4.80833 1.23597 4.76056 1.91454 4.84017 2.68197C4.91978 3.4494 5.13472 4.32185 5.50888 5.12968C5.55664 5.22662 5.60441 5.32355 5.66013 5.42049C5.62829 5.41242 5.59645 5.40434 5.55664 5.39626C5.39743 5.35587 5.24617 5.31548 5.08696 5.27509C4.92774 5.23469 4.77648 5.20238 4.61727 5.17007C4.53766 5.15391 4.46601 5.13776 4.38641 5.1216C4.3068 5.10544 4.23515 5.08929 4.1635 5.07313C3.86895 5.0085 3.58236 4.95195 3.32762 4.90349C3.07287 4.85502 2.83405 4.80655 2.63503 4.78231C2.23699 4.72577 1.96632 4.71769 1.92652 4.78231C1.88671 4.84694 2.00612 5.08121 2.24495 5.42857C2.30863 5.51743 2.37232 5.60629 2.44397 5.70323C2.51562 5.80017 2.59522 5.90519 2.69075 6.0102C2.87385 6.22024 3.07287 6.44643 3.30374 6.6807C3.35946 6.73724 3.41519 6.79379 3.47887 6.85842C3.54256 6.91497 3.59829 6.97151 3.66197 7.02806C3.78935 7.14116 3.91672 7.26233 4.04409 7.37543C4.17942 7.48852 4.3068 7.60969 4.45009 7.71471C4.59339 7.81973 4.73668 7.93282 4.87998 8.03784C4.91978 8.07015 4.95958 8.09439 4.99939 8.11862C2.54746 8.49022 0 9.3142 0 9.54039C0 9.76658 2.5395 10.5582 4.99939 10.9218C4.95958 10.9541 4.91978 10.9783 4.87998 11.0026C4.73668 11.1076 4.59339 11.2126 4.45009 11.3257C4.3068 11.4388 4.17942 11.5519 4.04409 11.665C3.90876 11.7781 3.78138 11.8992 3.66197 12.0123C3.59829 12.0689 3.5346 12.1254 3.47887 12.182C3.42315 12.2385 3.35946 12.3031 3.30374 12.3597C3.08083 12.594 2.87385 12.8202 2.69075 13.0302C2.59522 13.1352 2.51562 13.2402 2.44397 13.3372C2.37232 13.4341 2.30067 13.531 2.24495 13.6118C2.00612 13.9511 1.88671 14.1935 1.92652 14.2581C1.96632 14.3227 2.23699 14.3146 2.63503 14.2581C2.83405 14.2258 3.06491 14.1854 3.32762 14.1369C3.59032 14.0884 3.86895 14.0319 4.1635 13.9673C4.23515 13.9511 4.31476 13.9349 4.38641 13.9188C4.46601 13.9026 4.53766 13.8865 4.61727 13.8703C4.76852 13.838 4.92774 13.8057 5.08696 13.7653C5.24617 13.7249 5.40539 13.6845 5.55664 13.6441C5.58849 13.6441 5.62829 13.628 5.66013 13.6199C5.61237 13.7168 5.55664 13.8138 5.50888 13.9107C5.13472 14.7185 4.91978 15.5829 4.84017 16.3584C4.76056 17.1339 4.80833 17.8044 4.8959 18.273C4.94366 18.5072 4.99143 18.693 5.04715 18.8223C5.09492 18.9273 5.14268 19 5.18249 19C5.22229 19 5.27802 18.9435 5.35762 18.8304C5.42927 18.7173 5.5248 18.5638 5.63625 18.3699C5.85916 17.9902 6.16167 17.4732 6.53582 16.9481C6.90998 16.423 7.33987 15.8899 7.79363 15.4052C8.01653 15.1628 8.2474 14.9366 8.4703 14.7266C8.6932 14.5085 8.90814 14.3146 9.10717 14.1207C9.33803 13.8946 9.54501 13.7007 9.73607 13.5149C11.6546 12.804 13 11.3418 13 9.5C13 7.65816 11.7024 6.36565 9.73607 5.48512C9.53705 5.29932 9.33803 5.09736 9.10717 4.87925C8.90814 4.68537 8.6932 4.48342 8.4703 4.27339C8.2474 4.05527 8.0245 3.82908 7.79363 3.59481C7.33987 3.1182 6.90202 2.57696 6.53582 2.05187C6.16963 1.52679 5.85916 1.01786 5.63625 0.630102C5.5248 0.436224 5.42927 0.28274 5.35762 0.169643C5.28598 0.0565491 5.22229 0 5.18249 0C5.14268 0 5.10288 0.0727043 5.04715 0.201956V0.218113ZM9.72811 11.8831C9.50521 12.0123 9.29026 12.1497 9.07532 12.3031C8.33497 12.8282 7.67422 13.4745 7.16473 14.1207C6.90998 14.4439 6.68708 14.767 6.50398 15.0659C6.40845 15.2113 6.32884 15.3567 6.24923 15.494C6.17759 15.6314 6.10594 15.7606 6.05021 15.8737C5.81139 16.3423 5.69994 16.6412 5.67606 16.6331C5.66013 16.6331 5.73178 16.3099 5.92284 15.8172C5.97061 15.696 6.03429 15.5587 6.09002 15.4133C6.16167 15.2679 6.23331 15.1144 6.31292 14.9609C6.4801 14.6458 6.68708 14.2985 6.93386 13.9592C7.42743 13.2645 8.08022 12.5616 8.82854 11.9881C9.11513 11.77 9.40968 11.568 9.71219 11.3903V11.8992L9.72811 11.8831ZM7.11696 11.6569C6.76669 11.8023 6.41641 11.9396 6.09798 12.077C5.76363 12.2224 5.45315 12.3678 5.16656 12.4889C5.02327 12.5455 4.8959 12.6182 4.76852 12.6747C4.64115 12.7313 4.5297 12.7878 4.42621 12.8363C4.21923 12.9332 4.05205 13.014 3.93264 13.0625C3.82119 13.119 3.74954 13.1433 3.74954 13.1352C3.74954 13.1271 3.79731 13.0787 3.9008 13.006C4.00429 12.9332 4.1635 12.8363 4.36252 12.7151C4.46601 12.6586 4.5695 12.594 4.68892 12.5213C4.80833 12.4486 4.9357 12.3759 5.07104 12.3031C5.34966 12.1577 5.65217 11.9962 5.97857 11.8265C6.31292 11.665 6.6632 11.5034 7.02939 11.3257C7.21249 11.253 7.39559 11.1722 7.57869 11.0914C7.66626 11.0914 7.75383 11.0914 7.8414 11.0833C7.61053 11.2449 7.36375 11.4307 7.12492 11.6569H7.11696ZM9.72811 9.7585C6.4801 9.70196 2.56338 9.6131 2.56338 9.53231C2.56338 9.45153 6.4801 9.37075 9.72811 9.30612V9.75043V9.7585ZM7.57869 7.92474C7.39559 7.84396 7.21249 7.77126 7.02939 7.69048C6.67116 7.52083 6.31292 7.35119 5.97857 7.18963C5.65217 7.01998 5.34966 6.85842 5.07104 6.71301C4.9357 6.64031 4.80833 6.5676 4.68892 6.4949C4.5695 6.42219 4.45805 6.35757 4.36252 6.30102C4.1635 6.17985 4.00429 6.08291 3.9008 6.0102C3.79731 5.9375 3.74158 5.88903 3.74954 5.88095C3.74954 5.87287 3.82119 5.89711 3.93264 5.95366C4.05205 6.00213 4.21923 6.08291 4.42621 6.17985C4.5297 6.22832 4.64115 6.28486 4.76852 6.34141C4.88794 6.39796 5.02327 6.47066 5.16656 6.52721C5.44519 6.65646 5.76363 6.79379 6.09798 6.9392C6.42437 7.06845 6.76669 7.21386 7.11696 7.35927C7.36375 7.58546 7.60257 7.77126 7.8414 7.93282C7.75383 7.93282 7.66626 7.93282 7.57869 7.92474ZM6.05021 3.15051C6.10594 3.27168 6.17759 3.39286 6.24923 3.53019C6.32884 3.66752 6.40845 3.81292 6.50398 3.95833C6.68708 4.25723 6.90202 4.58036 7.16473 4.90349C7.67422 5.54974 8.33497 6.196 9.07532 6.72109C9.29026 6.87457 9.50521 7.0119 9.72811 7.14116V7.65009C9.4256 7.46429 9.13105 7.27041 8.84446 7.0523C8.09614 6.47874 7.4354 5.77594 6.94979 5.08121C6.703 4.73384 6.49602 4.39456 6.32884 4.07143C6.24127 3.91794 6.16963 3.75638 6.10594 3.61905C6.04225 3.47364 5.97857 3.34439 5.93876 3.21514C5.73974 2.72236 5.6681 2.40731 5.69198 2.39923C5.71586 2.39116 5.82731 2.69005 6.06614 3.15859L6.05021 3.15051Z"/>
</mask>
<path d="M5.04715 0.218113C4.99143 0.347364 4.94366 0.533163 4.8959 0.767433C4.80833 1.23597 4.76056 1.91454 4.84017 2.68197C4.91978 3.4494 5.13472 4.32185 5.50888 5.12968C5.55664 5.22662 5.60441 5.32355 5.66013 5.42049C5.62829 5.41242 5.59645 5.40434 5.55664 5.39626C5.39743 5.35587 5.24617 5.31548 5.08696 5.27509C4.92774 5.23469 4.77648 5.20238 4.61727 5.17007C4.53766 5.15391 4.46601 5.13776 4.38641 5.1216C4.3068 5.10544 4.23515 5.08929 4.1635 5.07313C3.86895 5.0085 3.58236 4.95195 3.32762 4.90349C3.07287 4.85502 2.83405 4.80655 2.63503 4.78231C2.23699 4.72577 1.96632 4.71769 1.92652 4.78231C1.88671 4.84694 2.00612 5.08121 2.24495 5.42857C2.30863 5.51743 2.37232 5.60629 2.44397 5.70323C2.51562 5.80017 2.59522 5.90519 2.69075 6.0102C2.87385 6.22024 3.07287 6.44643 3.30374 6.6807C3.35946 6.73724 3.41519 6.79379 3.47887 6.85842C3.54256 6.91497 3.59829 6.97151 3.66197 7.02806C3.78935 7.14116 3.91672 7.26233 4.04409 7.37543C4.17942 7.48852 4.3068 7.60969 4.45009 7.71471C4.59339 7.81973 4.73668 7.93282 4.87998 8.03784C4.91978 8.07015 4.95958 8.09439 4.99939 8.11862C2.54746 8.49022 0 9.3142 0 9.54039C0 9.76658 2.5395 10.5582 4.99939 10.9218C4.95958 10.9541 4.91978 10.9783 4.87998 11.0026C4.73668 11.1076 4.59339 11.2126 4.45009 11.3257C4.3068 11.4388 4.17942 11.5519 4.04409 11.665C3.90876 11.7781 3.78138 11.8992 3.66197 12.0123C3.59829 12.0689 3.5346 12.1254 3.47887 12.182C3.42315 12.2385 3.35946 12.3031 3.30374 12.3597C3.08083 12.594 2.87385 12.8202 2.69075 13.0302C2.59522 13.1352 2.51562 13.2402 2.44397 13.3372C2.37232 13.4341 2.30067 13.531 2.24495 13.6118C2.00612 13.9511 1.88671 14.1935 1.92652 14.2581C1.96632 14.3227 2.23699 14.3146 2.63503 14.2581C2.83405 14.2258 3.06491 14.1854 3.32762 14.1369C3.59032 14.0884 3.86895 14.0319 4.1635 13.9673C4.23515 13.9511 4.31476 13.9349 4.38641 13.9188C4.46601 13.9026 4.53766 13.8865 4.61727 13.8703C4.76852 13.838 4.92774 13.8057 5.08696 13.7653C5.24617 13.7249 5.40539 13.6845 5.55664 13.6441C5.58849 13.6441 5.62829 13.628 5.66013 13.6199C5.61237 13.7168 5.55664 13.8138 5.50888 13.9107C5.13472 14.7185 4.91978 15.5829 4.84017 16.3584C4.76056 17.1339 4.80833 17.8044 4.8959 18.273C4.94366 18.5072 4.99143 18.693 5.04715 18.8223C5.09492 18.9273 5.14268 19 5.18249 19C5.22229 19 5.27802 18.9435 5.35762 18.8304C5.42927 18.7173 5.5248 18.5638 5.63625 18.3699C5.85916 17.9902 6.16167 17.4732 6.53582 16.9481C6.90998 16.423 7.33987 15.8899 7.79363 15.4052C8.01653 15.1628 8.2474 14.9366 8.4703 14.7266C8.6932 14.5085 8.90814 14.3146 9.10717 14.1207C9.33803 13.8946 9.54501 13.7007 9.73607 13.5149C11.6546 12.804 13 11.3418 13 9.5C13 7.65816 11.7024 6.36565 9.73607 5.48512C9.53705 5.29932 9.33803 5.09736 9.10717 4.87925C8.90814 4.68537 8.6932 4.48342 8.4703 4.27339C8.2474 4.05527 8.0245 3.82908 7.79363 3.59481C7.33987 3.1182 6.90202 2.57696 6.53582 2.05187C6.16963 1.52679 5.85916 1.01786 5.63625 0.630102C5.5248 0.436224 5.42927 0.28274 5.35762 0.169643C5.28598 0.0565491 5.22229 0 5.18249 0C5.14268 0 5.10288 0.0727043 5.04715 0.201956V0.218113ZM9.72811 11.8831C9.50521 12.0123 9.29026 12.1497 9.07532 12.3031C8.33497 12.8282 7.67422 13.4745 7.16473 14.1207C6.90998 14.4439 6.68708 14.767 6.50398 15.0659C6.40845 15.2113 6.32884 15.3567 6.24923 15.494C6.17759 15.6314 6.10594 15.7606 6.05021 15.8737C5.81139 16.3423 5.69994 16.6412 5.67606 16.6331C5.66013 16.6331 5.73178 16.3099 5.92284 15.8172C5.97061 15.696 6.03429 15.5587 6.09002 15.4133C6.16167 15.2679 6.23331 15.1144 6.31292 14.9609C6.4801 14.6458 6.68708 14.2985 6.93386 13.9592C7.42743 13.2645 8.08022 12.5616 8.82854 11.9881C9.11513 11.77 9.40968 11.568 9.71219 11.3903V11.8992L9.72811 11.8831ZM7.11696 11.6569C6.76669 11.8023 6.41641 11.9396 6.09798 12.077C5.76363 12.2224 5.45315 12.3678 5.16656 12.4889C5.02327 12.5455 4.8959 12.6182 4.76852 12.6747C4.64115 12.7313 4.5297 12.7878 4.42621 12.8363C4.21923 12.9332 4.05205 13.014 3.93264 13.0625C3.82119 13.119 3.74954 13.1433 3.74954 13.1352C3.74954 13.1271 3.79731 13.0787 3.9008 13.006C4.00429 12.9332 4.1635 12.8363 4.36252 12.7151C4.46601 12.6586 4.5695 12.594 4.68892 12.5213C4.80833 12.4486 4.9357 12.3759 5.07104 12.3031C5.34966 12.1577 5.65217 11.9962 5.97857 11.8265C6.31292 11.665 6.6632 11.5034 7.02939 11.3257C7.21249 11.253 7.39559 11.1722 7.57869 11.0914C7.66626 11.0914 7.75383 11.0914 7.8414 11.0833C7.61053 11.2449 7.36375 11.4307 7.12492 11.6569H7.11696ZM9.72811 9.7585C6.4801 9.70196 2.56338 9.6131 2.56338 9.53231C2.56338 9.45153 6.4801 9.37075 9.72811 9.30612V9.75043V9.7585ZM7.57869 7.92474C7.39559 7.84396 7.21249 7.77126 7.02939 7.69048C6.67116 7.52083 6.31292 7.35119 5.97857 7.18963C5.65217 7.01998 5.34966 6.85842 5.07104 6.71301C4.9357 6.64031 4.80833 6.5676 4.68892 6.4949C4.5695 6.42219 4.45805 6.35757 4.36252 6.30102C4.1635 6.17985 4.00429 6.08291 3.9008 6.0102C3.79731 5.9375 3.74158 5.88903 3.74954 5.88095C3.74954 5.87287 3.82119 5.89711 3.93264 5.95366C4.05205 6.00213 4.21923 6.08291 4.42621 6.17985C4.5297 6.22832 4.64115 6.28486 4.76852 6.34141C4.88794 6.39796 5.02327 6.47066 5.16656 6.52721C5.44519 6.65646 5.76363 6.79379 6.09798 6.9392C6.42437 7.06845 6.76669 7.21386 7.11696 7.35927C7.36375 7.58546 7.60257 7.77126 7.8414 7.93282C7.75383 7.93282 7.66626 7.93282 7.57869 7.92474ZM6.05021 3.15051C6.10594 3.27168 6.17759 3.39286 6.24923 3.53019C6.32884 3.66752 6.40845 3.81292 6.50398 3.95833C6.68708 4.25723 6.90202 4.58036 7.16473 4.90349C7.67422 5.54974 8.33497 6.196 9.07532 6.72109C9.29026 6.87457 9.50521 7.0119 9.72811 7.14116V7.65009C9.4256 7.46429 9.13105 7.27041 8.84446 7.0523C8.09614 6.47874 7.4354 5.77594 6.94979 5.08121C6.703 4.73384 6.49602 4.39456 6.32884 4.07143C6.24127 3.91794 6.16963 3.75638 6.10594 3.61905C6.04225 3.47364 5.97857 3.34439 5.93876 3.21514C5.73974 2.72236 5.6681 2.40731 5.69198 2.39923C5.71586 2.39116 5.82731 2.69005 6.06614 3.15859L6.05021 3.15051Z" stroke="#4C0A2E" stroke-width="2" mask="url(#path-1-inside-1_567_1068)"/>
</svg>
