<svg width="27" height="19" viewBox="0 0 27 19" fill="none" xmlns="http://www.w3.org/2000/svg">
<mask id="path-1-inside-1_555_12944" fill="white">
<path d="M26.6901 7.37661C26.5064 7.29516 26.2423 7.22535 25.9094 7.15554C25.2436 7.02756 24.2793 6.95775 23.1888 7.0741C22.0982 7.19045 20.8584 7.50459 19.7105 8.05144C19.5727 8.12125 19.4349 8.19106 19.2972 8.2725C19.3087 8.22597 19.3202 8.17943 19.3316 8.12125C19.389 7.88855 19.4464 7.66748 19.5038 7.43478C19.5612 7.20208 19.6071 6.98102 19.6531 6.74832C19.676 6.63197 19.699 6.52725 19.7219 6.4109C19.7449 6.29455 19.7679 6.18984 19.7908 6.08512C19.8827 5.65462 19.963 5.23576 20.0319 4.86344C20.1008 4.49112 20.1696 4.14207 20.2041 3.85119C20.2844 3.26944 20.2959 2.87385 20.2041 2.81568C20.1122 2.7575 19.7793 2.93203 19.2857 3.28108C19.1594 3.37416 19.0332 3.46724 18.8954 3.57195C18.7577 3.67667 18.6084 3.79302 18.4592 3.93264C18.1607 4.20024 17.8393 4.49112 17.5064 4.82854C17.426 4.90998 17.3457 4.99143 17.2538 5.08451C17.1735 5.17759 17.0931 5.25903 17.0128 5.35211C16.852 5.53827 16.6798 5.72443 16.5191 5.91059C16.3584 6.10839 16.1862 6.29455 16.037 6.50398C15.8878 6.71341 15.727 6.92284 15.5778 7.13227C15.5319 7.19045 15.4974 7.24862 15.463 7.3068C14.9349 3.72321 13.764 0 13.4426 0C13.1212 0 11.9962 3.71157 11.4796 7.3068C11.4337 7.24862 11.3992 7.19045 11.3648 7.13227C11.2156 6.92284 11.0663 6.71341 10.9056 6.50398C10.7449 6.29455 10.5842 6.10839 10.4235 5.91059C10.2628 5.7128 10.0906 5.52664 9.92985 5.35211C9.84949 5.25903 9.76913 5.16595 9.68877 5.08451C9.60842 5.00306 9.51658 4.90998 9.43622 4.82854C9.10332 4.50276 8.78189 4.20024 8.48342 3.93264C8.33418 3.79302 8.18495 3.67667 8.04719 3.57195C7.90944 3.46724 7.77168 3.36252 7.65689 3.28108C7.17474 2.93203 6.83036 2.7575 6.73852 2.81568C6.64668 2.87385 6.65816 3.26944 6.73852 3.85119C6.78444 4.14207 6.84184 4.47949 6.91071 4.86344C6.97959 5.2474 7.05995 5.65462 7.15179 6.08512C7.17474 6.18984 7.1977 6.30619 7.22066 6.4109C7.24362 6.52725 7.26658 6.63197 7.28954 6.74832C7.33546 6.96938 7.38138 7.20208 7.43878 7.43478C7.49617 7.66748 7.55357 7.90018 7.61097 8.12125C7.61097 8.16779 7.63393 8.22597 7.64541 8.2725C7.50765 8.20269 7.3699 8.12125 7.23214 8.05144C6.08418 7.50459 4.85587 7.19045 3.75383 7.0741C2.65179 6.95775 1.69898 7.02756 1.03316 7.15554C0.700255 7.22535 0.436224 7.29516 0.252551 7.37661C0.103316 7.44642 0 7.51623 0 7.5744C0 7.63258 0.0803571 7.71402 0.241071 7.83037C0.401786 7.93509 0.619898 8.07471 0.895408 8.2376C1.43495 8.56338 2.16964 9.00551 2.91582 9.55236C3.66199 10.0992 4.41964 10.7275 5.10842 11.3907C5.45281 11.7165 5.77423 12.0539 6.0727 12.3797C6.38265 12.7055 6.65816 13.0196 6.93367 13.3105C7.2551 13.6479 7.53061 13.9504 7.79464 14.2296C8.80485 17.0337 10.8827 19 13.5 19C16.1173 19 17.9541 17.1035 19.2054 14.2296C19.4694 13.9388 19.7564 13.6479 20.0663 13.3105C20.3418 13.0196 20.6288 12.7055 20.9273 12.3797C21.2372 12.0539 21.5587 11.7281 21.8916 11.3907C22.5689 10.7275 23.338 10.0876 24.0842 9.55236C24.8304 9.01715 25.5536 8.56338 26.1046 8.2376C26.3801 8.07471 26.5982 7.93509 26.7589 7.83037C26.9196 7.72566 27 7.63258 27 7.5744C27 7.51623 26.8967 7.45805 26.713 7.37661H26.6901ZM10.1135 14.218C9.92985 13.8922 9.73469 13.5781 9.51658 13.2639C8.77041 12.1819 7.85204 11.2162 6.93367 10.4715C6.47449 10.0992 6.01531 9.77342 5.59056 9.50582C5.38393 9.3662 5.1773 9.24985 4.98214 9.1335C4.78699 9.02878 4.60332 8.92407 4.4426 8.84262C3.77679 8.49357 3.35204 8.33068 3.36352 8.29578C3.36352 8.2725 3.8227 8.37722 4.52296 8.65646C4.69515 8.72627 4.89031 8.81935 5.09694 8.9008C5.30357 9.00551 5.52168 9.11023 5.7398 9.22658C6.1875 9.47091 6.68112 9.77342 7.16326 10.1341C8.15051 10.8555 9.14923 11.8096 9.96429 12.9032C10.2742 13.3221 10.5612 13.7526 10.8138 14.1947H10.0906L10.1135 14.218ZM10.4349 10.4017C10.2283 9.88977 10.0332 9.37783 9.83801 8.91243C9.63138 8.42376 9.42474 7.96999 9.25255 7.55113C9.17219 7.3417 9.06888 7.15554 8.98852 6.96938C8.90816 6.78322 8.82781 6.62033 8.75893 6.46908C8.62117 6.16657 8.50638 5.92223 8.4375 5.7477C8.35714 5.58481 8.3227 5.4801 8.33418 5.4801C8.34566 5.4801 8.41454 5.54991 8.51786 5.70116C8.62117 5.85242 8.75893 6.08512 8.93112 6.376C9.01148 6.52725 9.10332 6.67851 9.20663 6.85303C9.30995 7.02756 9.41326 7.21372 9.51658 7.41151C9.72321 7.81874 9.95281 8.26087 10.1939 8.73791C10.4235 9.22658 10.6531 9.73852 10.9056 10.2737C11.0089 10.5413 11.1237 10.8089 11.2385 11.0765C11.2385 11.2045 11.2385 11.3325 11.25 11.4605C11.0204 11.1231 10.7564 10.7624 10.4349 10.4134V10.4017ZM13.1327 14.218C13.213 9.47091 13.3393 3.74648 13.4541 3.74648C13.5689 3.74648 13.6837 9.47091 13.7755 14.218H13.1441H13.1327ZM15.7385 11.0765C15.8533 10.8089 15.9566 10.5413 16.0714 10.2737C16.3125 9.75015 16.5536 9.22658 16.7832 8.73791C17.0242 8.26087 17.2538 7.81874 17.4605 7.41151C17.5638 7.21372 17.6671 7.02756 17.7704 6.85303C17.8737 6.67851 17.9656 6.51562 18.0459 6.376C18.2181 6.08512 18.3559 5.85242 18.4592 5.70116C18.5625 5.54991 18.6314 5.46846 18.6429 5.4801C18.6543 5.4801 18.6199 5.58481 18.5395 5.7477C18.4707 5.92223 18.3559 6.16657 18.2181 6.46908C18.1492 6.62033 18.0689 6.78322 17.9885 6.96938C17.9082 7.14391 17.8048 7.3417 17.7245 7.55113C17.5408 7.95836 17.3457 8.42376 17.139 8.91243C16.9554 9.38947 16.7487 9.88977 16.5421 10.4017C16.2207 10.7624 15.9566 11.1115 15.727 11.4605C15.727 11.3325 15.727 11.2045 15.7385 11.0765ZM22.523 8.84262C22.3508 8.92407 22.1786 9.02878 21.9834 9.1335C21.7883 9.24985 21.5816 9.3662 21.375 9.50582C20.9503 9.77342 20.4911 10.0876 20.0319 10.4715C19.1135 11.2162 18.1952 12.1819 17.449 13.2639C17.2309 13.5781 17.0357 13.8922 16.852 14.218H16.1288C16.3929 13.7759 16.6684 13.3454 16.9783 12.9265C17.7934 11.8328 18.7921 10.8671 19.7793 10.1574C20.273 9.79669 20.7551 9.49418 21.2143 9.24985C21.4324 9.12186 21.662 9.01715 21.8571 8.92407C22.0638 8.83099 22.2474 8.73791 22.4311 8.67973C23.1314 8.38885 23.5791 8.28414 23.5906 8.31905C23.602 8.35395 23.1773 8.51684 22.5115 8.86589L22.523 8.84262Z"/>
</mask>
<path d="M26.6901 7.37661C26.5064 7.29516 26.2423 7.22535 25.9094 7.15554C25.2436 7.02756 24.2793 6.95775 23.1888 7.0741C22.0982 7.19045 20.8584 7.50459 19.7105 8.05144C19.5727 8.12125 19.4349 8.19106 19.2972 8.2725C19.3087 8.22597 19.3202 8.17943 19.3316 8.12125C19.389 7.88855 19.4464 7.66748 19.5038 7.43478C19.5612 7.20208 19.6071 6.98102 19.6531 6.74832C19.676 6.63197 19.699 6.52725 19.7219 6.4109C19.7449 6.29455 19.7679 6.18984 19.7908 6.08512C19.8827 5.65462 19.963 5.23576 20.0319 4.86344C20.1008 4.49112 20.1696 4.14207 20.2041 3.85119C20.2844 3.26944 20.2959 2.87385 20.2041 2.81568C20.1122 2.7575 19.7793 2.93203 19.2857 3.28108C19.1594 3.37416 19.0332 3.46724 18.8954 3.57195C18.7577 3.67667 18.6084 3.79302 18.4592 3.93264C18.1607 4.20024 17.8393 4.49112 17.5064 4.82854C17.426 4.90998 17.3457 4.99143 17.2538 5.08451C17.1735 5.17759 17.0931 5.25903 17.0128 5.35211C16.852 5.53827 16.6798 5.72443 16.5191 5.91059C16.3584 6.10839 16.1862 6.29455 16.037 6.50398C15.8878 6.71341 15.727 6.92284 15.5778 7.13227C15.5319 7.19045 15.4974 7.24862 15.463 7.3068C14.9349 3.72321 13.764 0 13.4426 0C13.1212 0 11.9962 3.71157 11.4796 7.3068C11.4337 7.24862 11.3992 7.19045 11.3648 7.13227C11.2156 6.92284 11.0663 6.71341 10.9056 6.50398C10.7449 6.29455 10.5842 6.10839 10.4235 5.91059C10.2628 5.7128 10.0906 5.52664 9.92985 5.35211C9.84949 5.25903 9.76913 5.16595 9.68877 5.08451C9.60842 5.00306 9.51658 4.90998 9.43622 4.82854C9.10332 4.50276 8.78189 4.20024 8.48342 3.93264C8.33418 3.79302 8.18495 3.67667 8.04719 3.57195C7.90944 3.46724 7.77168 3.36252 7.65689 3.28108C7.17474 2.93203 6.83036 2.7575 6.73852 2.81568C6.64668 2.87385 6.65816 3.26944 6.73852 3.85119C6.78444 4.14207 6.84184 4.47949 6.91071 4.86344C6.97959 5.2474 7.05995 5.65462 7.15179 6.08512C7.17474 6.18984 7.1977 6.30619 7.22066 6.4109C7.24362 6.52725 7.26658 6.63197 7.28954 6.74832C7.33546 6.96938 7.38138 7.20208 7.43878 7.43478C7.49617 7.66748 7.55357 7.90018 7.61097 8.12125C7.61097 8.16779 7.63393 8.22597 7.64541 8.2725C7.50765 8.20269 7.3699 8.12125 7.23214 8.05144C6.08418 7.50459 4.85587 7.19045 3.75383 7.0741C2.65179 6.95775 1.69898 7.02756 1.03316 7.15554C0.700255 7.22535 0.436224 7.29516 0.252551 7.37661C0.103316 7.44642 0 7.51623 0 7.5744C0 7.63258 0.0803571 7.71402 0.241071 7.83037C0.401786 7.93509 0.619898 8.07471 0.895408 8.2376C1.43495 8.56338 2.16964 9.00551 2.91582 9.55236C3.66199 10.0992 4.41964 10.7275 5.10842 11.3907C5.45281 11.7165 5.77423 12.0539 6.0727 12.3797C6.38265 12.7055 6.65816 13.0196 6.93367 13.3105C7.2551 13.6479 7.53061 13.9504 7.79464 14.2296C8.80485 17.0337 10.8827 19 13.5 19C16.1173 19 17.9541 17.1035 19.2054 14.2296C19.4694 13.9388 19.7564 13.6479 20.0663 13.3105C20.3418 13.0196 20.6288 12.7055 20.9273 12.3797C21.2372 12.0539 21.5587 11.7281 21.8916 11.3907C22.5689 10.7275 23.338 10.0876 24.0842 9.55236C24.8304 9.01715 25.5536 8.56338 26.1046 8.2376C26.3801 8.07471 26.5982 7.93509 26.7589 7.83037C26.9196 7.72566 27 7.63258 27 7.5744C27 7.51623 26.8967 7.45805 26.713 7.37661H26.6901ZM10.1135 14.218C9.92985 13.8922 9.73469 13.5781 9.51658 13.2639C8.77041 12.1819 7.85204 11.2162 6.93367 10.4715C6.47449 10.0992 6.01531 9.77342 5.59056 9.50582C5.38393 9.3662 5.1773 9.24985 4.98214 9.1335C4.78699 9.02878 4.60332 8.92407 4.4426 8.84262C3.77679 8.49357 3.35204 8.33068 3.36352 8.29578C3.36352 8.2725 3.8227 8.37722 4.52296 8.65646C4.69515 8.72627 4.89031 8.81935 5.09694 8.9008C5.30357 9.00551 5.52168 9.11023 5.7398 9.22658C6.1875 9.47091 6.68112 9.77342 7.16326 10.1341C8.15051 10.8555 9.14923 11.8096 9.96429 12.9032C10.2742 13.3221 10.5612 13.7526 10.8138 14.1947H10.0906L10.1135 14.218ZM10.4349 10.4017C10.2283 9.88977 10.0332 9.37783 9.83801 8.91243C9.63138 8.42376 9.42474 7.96999 9.25255 7.55113C9.17219 7.3417 9.06888 7.15554 8.98852 6.96938C8.90816 6.78322 8.82781 6.62033 8.75893 6.46908C8.62117 6.16657 8.50638 5.92223 8.4375 5.7477C8.35714 5.58481 8.3227 5.4801 8.33418 5.4801C8.34566 5.4801 8.41454 5.54991 8.51786 5.70116C8.62117 5.85242 8.75893 6.08512 8.93112 6.376C9.01148 6.52725 9.10332 6.67851 9.20663 6.85303C9.30995 7.02756 9.41326 7.21372 9.51658 7.41151C9.72321 7.81874 9.95281 8.26087 10.1939 8.73791C10.4235 9.22658 10.6531 9.73852 10.9056 10.2737C11.0089 10.5413 11.1237 10.8089 11.2385 11.0765C11.2385 11.2045 11.2385 11.3325 11.25 11.4605C11.0204 11.1231 10.7564 10.7624 10.4349 10.4134V10.4017ZM13.1327 14.218C13.213 9.47091 13.3393 3.74648 13.4541 3.74648C13.5689 3.74648 13.6837 9.47091 13.7755 14.218H13.1441H13.1327ZM15.7385 11.0765C15.8533 10.8089 15.9566 10.5413 16.0714 10.2737C16.3125 9.75015 16.5536 9.22658 16.7832 8.73791C17.0242 8.26087 17.2538 7.81874 17.4605 7.41151C17.5638 7.21372 17.6671 7.02756 17.7704 6.85303C17.8737 6.67851 17.9656 6.51562 18.0459 6.376C18.2181 6.08512 18.3559 5.85242 18.4592 5.70116C18.5625 5.54991 18.6314 5.46846 18.6429 5.4801C18.6543 5.4801 18.6199 5.58481 18.5395 5.7477C18.4707 5.92223 18.3559 6.16657 18.2181 6.46908C18.1492 6.62033 18.0689 6.78322 17.9885 6.96938C17.9082 7.14391 17.8048 7.3417 17.7245 7.55113C17.5408 7.95836 17.3457 8.42376 17.139 8.91243C16.9554 9.38947 16.7487 9.88977 16.5421 10.4017C16.2207 10.7624 15.9566 11.1115 15.727 11.4605C15.727 11.3325 15.727 11.2045 15.7385 11.0765ZM22.523 8.84262C22.3508 8.92407 22.1786 9.02878 21.9834 9.1335C21.7883 9.24985 21.5816 9.3662 21.375 9.50582C20.9503 9.77342 20.4911 10.0876 20.0319 10.4715C19.1135 11.2162 18.1952 12.1819 17.449 13.2639C17.2309 13.5781 17.0357 13.8922 16.852 14.218H16.1288C16.3929 13.7759 16.6684 13.3454 16.9783 12.9265C17.7934 11.8328 18.7921 10.8671 19.7793 10.1574C20.273 9.79669 20.7551 9.49418 21.2143 9.24985C21.4324 9.12186 21.662 9.01715 21.8571 8.92407C22.0638 8.83099 22.2474 8.73791 22.4311 8.67973C23.1314 8.38885 23.5791 8.28414 23.5906 8.31905C23.602 8.35395 23.1773 8.51684 22.5115 8.86589L22.523 8.84262Z" stroke="#BA7E38" stroke-width="2" mask="url(#path-1-inside-1_555_12944)"/>
</svg>
