<svg width="384" height="235" viewBox="0 0 384 235" fill="none" xmlns="http://www.w3.org/2000/svg">
<path d="M166.981 96.0691C166.842 93.2741 167.398 89.6405 171.152 87.8237C171.152 87.8237 181.023 82.7926 185.194 96.6281C185.194 96.6281 188.67 84.0504 170.039 76.0845C170.039 76.0845 149.045 68.1186 161.002 51.7675C161.002 51.7675 165.729 45.1991 173.237 58.3359C173.237 58.3359 178.103 65.3235 183.248 61.2707C183.248 61.2707 168.788 55.9601 173.376 45.8979C173.793 45.0593 175.462 42.8233 177.547 44.0811C179.633 45.3388 182.692 48.4134 184.082 53.0253C184.36 54.1433 185.611 55.8203 186.724 56.2396C187.975 56.6588 190.06 56.7986 189.087 53.165C188.809 52.3265 186.724 48.2737 185.889 46.4569C184.221 42.6835 183.387 33.5996 192.007 33.5996C200.627 33.5996 199.793 42.6835 198.124 46.4569C197.29 48.2737 195.066 52.3265 194.927 53.165C193.953 56.7986 196.039 56.5191 197.29 56.2396C198.403 55.8203 199.654 54.1433 199.932 53.0253C201.183 48.2737 204.381 45.1991 206.467 44.0811C208.691 42.8233 210.36 45.0593 210.638 45.8979C215.226 55.9601 200.766 61.2707 200.766 61.2707C205.91 65.3235 210.777 58.3359 210.777 58.3359C218.284 45.1991 223.012 51.7675 223.012 51.7675C234.969 68.1186 213.974 76.0845 213.974 76.0845C195.344 83.9106 198.82 96.6281 198.82 96.6281C202.852 82.6528 212.862 87.8237 212.862 87.8237C216.616 89.6405 217.172 93.2741 217.033 96.0691C216.755 100.401 212.584 103.336 212.584 103.336C209.803 105.153 207.857 105.153 206.606 104.594C204.242 103.616 203.964 101.24 203.964 101.24C203.825 98.5847 204.937 97.4667 206.188 96.7679C207.857 95.9294 209.803 96.7679 209.803 96.7679C211.75 97.8859 209.942 99.8425 210.499 100.541C212.028 102.358 213.696 99.5629 213.696 99.5629C216.616 93.5536 211.055 92.0163 211.055 92.0163C206.049 90.8983 203.269 92.8548 201.6 95.0909C199.932 97.3269 199.654 102.218 199.515 103.336C198.959 118.01 194.231 117.172 191.868 117.172C189.504 117.172 184.916 118.01 184.221 103.336C184.221 102.218 183.804 97.3269 182.135 95.0909C180.467 92.8548 177.686 90.8983 172.681 92.0163C172.681 92.0163 167.12 93.5536 170.039 99.5629C170.039 99.5629 171.708 102.358 173.237 100.541C173.793 99.8425 171.986 97.7462 173.932 96.7679C173.932 96.7679 175.879 95.9294 177.547 96.7679C178.799 97.3269 179.911 98.5847 179.772 101.24C179.772 101.24 179.494 103.616 177.13 104.594C175.74 105.153 173.932 105.013 171.152 103.336C171.43 103.336 167.259 100.401 166.981 96.0691ZM193.953 113.259C194.231 113.259 194.649 113.398 195.205 112.979C196.039 112.42 196.039 111.582 196.039 111.582C195.344 96.6281 197.151 85.1684 202.852 72.8702C204.52 69.3763 203.269 66.721 200.349 67.6993C197.568 68.6776 196.595 72.5906 195.205 82.6528C193.953 92.156 193.675 110.324 193.675 112.839C193.814 113.119 193.814 113.259 193.953 113.259ZM187.697 111.582C187.697 111.582 187.697 112.42 188.531 112.979C189.087 113.398 189.643 113.398 189.782 113.259C189.921 113.259 189.921 113.119 189.921 112.979C189.921 110.464 189.643 92.156 188.392 82.7926C187.002 72.5906 186.028 68.8173 183.248 67.8391C180.467 66.8608 179.216 69.3763 180.745 73.0099C186.585 85.1684 188.531 96.4884 187.697 111.582Z" fill="#E6E6E6" fill-opacity="0.3"/>
<path d="M227.322 34.9968C226.766 35.5558 224.958 37.3726 223.151 38.3508C218.006 41.2857 212.445 39.4689 207.023 34.5775C204.103 32.062 201.739 28.7079 197.846 26.7514C197.012 26.3321 194.788 25.2141 192.563 25.2141C190.06 25.0743 187.419 26.0526 186.585 26.4718C182.274 28.4284 179.772 31.9222 176.852 34.7173C171.43 39.6086 165.868 41.4254 160.724 38.4906C159.056 37.5123 157.109 35.6955 156.553 35.1365C151.27 30.1054 145.43 31.3632 143.762 31.0837C151.548 19.0649 160.863 22.8383 172.681 31.503C173.932 32.4812 175.462 31.503 175.74 30.1054C175.74 29.8259 175.879 29.4067 175.74 28.9874C175.601 28.4284 174.906 27.7296 173.932 27.4501C169.344 26.3321 163.783 24.5153 161.697 19.7637C160.168 16.2699 162.392 13.4748 164.339 12.4966C165.312 12.0773 166.564 11.9376 167.815 11.9376C172.125 12.2171 176.018 15.9904 177.825 21.86C177.964 22.2793 178.242 23.2575 178.799 23.8165C179.911 25.2141 181.023 24.6551 181.579 24.2358C182.274 23.6768 182.692 22.8383 182.692 22.2793C182.692 21.301 182.553 20.3227 180.884 18.7854C177.269 15.5711 174.489 10.9593 174.349 7.32571C174.071 0.338065 183.526 -2.7365 187.558 2.99337C188.253 3.97164 190.199 6.90645 190.06 14.0338C190.06 14.7326 189.921 15.2916 189.921 15.8506C189.782 16.5494 189.782 17.2482 189.782 17.9469C189.782 18.5059 189.921 19.3445 192.007 19.3445C194.092 19.3445 194.231 18.6457 194.231 17.9469C194.231 17.2482 194.231 16.5494 194.092 15.8506C193.953 15.2916 193.953 14.7326 193.953 14.0338C193.814 6.90645 195.9 3.97164 196.456 2.99337C200.488 -2.7365 209.942 0.338065 209.664 7.32571C209.525 10.9593 206.745 15.5711 203.13 18.7854C201.461 20.3227 201.322 21.301 201.322 22.2793C201.322 22.8383 201.739 23.6768 202.434 24.2358C202.991 24.6551 204.103 25.2141 205.215 23.8165C205.632 23.2575 206.049 22.1395 206.188 21.86C207.996 15.8506 211.889 12.2171 216.199 11.9376C217.45 11.7978 218.702 11.9376 219.675 12.4966C221.621 13.4748 223.846 16.2699 222.316 19.7637C220.231 24.5153 214.67 26.1923 210.081 27.4501C209.108 27.7296 208.413 28.2886 208.274 28.9874C208.274 29.4067 208.274 29.8259 208.274 30.1054C208.552 31.6427 210.081 32.4812 211.333 31.503C223.151 22.8383 232.466 19.0649 240.252 31.0837C238.445 31.2234 232.605 30.1054 227.322 34.9968Z" fill="#E6E6E6" fill-opacity="0.3"/>
<path d="M41.432 101.519C31.4215 105.292 37.5391 109.904 37.5391 109.904C38.5123 107.389 40.4588 106.97 41.7101 107.109C44.4908 107.668 47.4105 112.42 43.2395 115.215C40.5978 116.892 37.5391 115.494 37.5391 115.494C30.8654 112.28 32.3948 105.013 33.7851 100.96C33.7851 100.96 30.7264 104.035 25.9992 102.917C24.4698 102.497 18.4913 99.7024 15.4325 107.529C15.4325 107.529 20.0207 105.292 22.6624 107.389C23.4966 108.088 25.7211 112.14 22.3843 114.376C19.6036 116.193 13.7641 118.15 -0.000344917 116.193C-0.000344917 116.193 7.09042 114.376 10.9834 103.615C10.9834 103.615 13.6251 94.1123 22.3843 96.2086C24.3308 96.7676 30.8654 98.5843 33.368 97.0471C34.2022 96.4881 34.6193 95.7893 34.6193 95.0905C34.6193 94.252 33.9242 93.4135 32.5338 93.5532C32.5338 93.5532 17.9352 93.8328 18.3523 83.2115C18.3523 83.2115 18.4913 79.8575 21.272 78.3202C25.7211 75.8046 28.6408 80.696 27.8066 83.491C27.3895 84.7488 26.1382 86.1463 23.4965 85.8668C23.4965 85.8668 24.7479 93.4135 32.6728 86.4259C32.6728 86.4259 43.5176 76.9227 49.218 86.5656C54.9184 96.3483 41.432 101.519 41.432 101.519Z" fill="#E6E6E6" fill-opacity="0.3"/>
<path d="M62.1483 56.0992C62.1483 56.0992 53.9452 63.5061 56.3088 74.9658C56.3088 74.9658 52.2768 61.6893 48.6619 74.2671C48.1058 72.59 41.9882 47.9935 61.5921 42.9624C61.5921 42.9624 81.4741 38.7698 62.1483 56.0992Z" fill="#E6E6E6" fill-opacity="0.3"/>
<path d="M81.1971 64.6246C76.47 66.4414 69.2402 70.634 62.8446 77.9011C63.8178 75.1061 61.5932 67.8389 57.1441 74.9663C58.5345 65.7426 63.5397 56.2394 73.4112 53.0251C73.4112 53.0251 86.3414 48.6928 86.4805 58.4755C86.3414 59.873 85.9243 62.9476 81.1971 64.6246Z" fill="#E6E6E6" fill-opacity="0.3"/>
<path d="M60.3412 91.0371C63.539 102.357 74.2447 105.012 74.2447 105.012C99.271 111.162 79.9451 116.891 79.9451 116.891C60.3412 121.783 54.2237 97.0465 53.9456 95.3695C62.9829 104.593 60.3412 91.0371 60.3412 91.0371Z" fill="#E6E6E6" fill-opacity="0.3"/>
<path d="M65.3464 84.3298C70.6297 82.9322 68.9613 77.4819 63.956 78.7396C69.6565 73.8483 90.7898 59.0345 94.5437 73.988C98.1586 88.9416 72.5762 85.867 65.3464 84.3298Z" fill="#E6E6E6" fill-opacity="0.3"/>
<path d="M85.5062 102.357C75.3566 104.174 66.4584 98.1648 60.897 90.7579C68.1268 94.8107 66.7365 87.4038 64.651 85.4473C73.5492 88.8013 82.0303 89.0808 87.0356 88.5218C92.0408 87.8231 93.8483 90.3386 94.4044 91.4566C98.9926 100.121 85.5062 102.357 85.5062 102.357Z" fill="#E6E6E6" fill-opacity="0.3"/>
<path d="M53.3894 78.7392C55.1969 78.32 57.2824 80.2765 57.9776 83.0715C58.6728 85.8666 57.8386 88.6617 55.8921 89.0809C54.0846 89.5002 51.9991 87.5436 51.3039 84.7486C50.6087 81.9535 51.582 79.1585 53.3894 78.7392Z" fill="#E6E6E6" fill-opacity="0.3"/>
<path d="M145.709 48.4132C145.709 48.4132 143.623 54.9816 136.671 51.6276C136.671 51.6276 132.778 49.3915 134.864 45.3387C134.864 45.3387 127.495 42.2641 127.912 54.8419C127.912 54.8419 151.409 61.6898 174.628 117.591H167.954C167.954 117.591 153.217 68.6774 99.132 76.7831C99.132 76.7831 100.244 71.752 97.4636 68.6774C97.4636 68.6774 119.709 61.6898 143.762 77.6216C143.762 77.6216 139.174 67.8389 117.485 63.6463C107.057 61.6898 100.8 57.0779 104.554 47.2952C104.554 47.2952 108.03 38.2113 116.789 49.5313C116.789 49.5313 121.378 54.2829 124.436 54.0034C124.436 54.0034 122.212 35.8355 140.008 39.1896C140.008 38.91 148.072 41.2858 145.709 48.4132Z" fill="#E6E6E6" fill-opacity="0.3"/>
<path d="M102.608 97.0472C102.608 97.0472 97.8805 102.777 103.998 103.336C103.998 103.336 109.281 103.616 112.757 100.541C112.757 100.541 105.666 99.2832 111.367 96.0689C111.367 96.0689 114.843 94.2521 118.319 95.5099C118.319 95.5099 117.901 91.8763 114.008 91.8763C113.035 91.8763 112.896 90.1993 114.565 88.9415C117.067 86.985 121.933 85.5874 126.8 90.4788C126.8 90.4788 124.158 87.2645 123.88 85.0284C123.88 85.0284 123.324 82.3731 131.11 83.7707C140.008 85.4477 154.19 93.1341 164.617 117.451C164.617 117.451 158.639 107.948 141.259 113.398C141.259 113.398 134.447 115.774 138.34 108.926C138.479 108.647 139.035 107.529 138.34 107.529C137.505 107.529 136.254 107.668 135.142 111.721C135.142 111.721 134.447 116.193 130.554 114.936C129.58 114.656 128.885 113.678 128.607 112.979C128.329 112.28 127.912 111.022 128.468 109.625C128.468 109.625 122.073 115.914 117.762 115.215C115.26 114.796 115.26 113.538 115.955 112.56C116.789 111.442 117.901 109.066 116.789 106.69C116.789 106.69 94.9607 117.032 95.934 102.637C95.934 102.637 96.3511 97.0472 102.608 97.0472ZM125.131 103.895C125.131 103.895 127.217 105.293 132.222 103.895C138.34 102.078 143.067 102.498 158.361 110.184C158.361 110.184 147.238 99.5627 136.115 95.7894C132.639 94.6714 129.302 93.6931 126.105 94.6714C124.853 95.0906 123.602 95.9292 123.046 97.1869C121.655 99.7025 122.629 102.637 125.131 103.895Z" fill="#E6E6E6" fill-opacity="0.3"/>
<path d="M107.613 29.4062C107.613 29.4062 113.731 29.9653 116.929 33.1796C120.405 36.6734 120.683 42.543 120.683 42.543C120.683 42.543 114.843 42.2635 111.367 38.7697C108.169 35.5554 107.613 29.4062 107.613 29.4062Z" fill="#E6E6E6" fill-opacity="0.3"/>
<path d="M361.352 114.516C357.876 112.28 360.1 108.227 361.074 107.529C363.715 105.432 368.303 107.668 368.303 107.668C365.245 99.8421 359.266 102.637 357.737 103.056C353.01 104.174 349.951 101.1 349.951 101.1C351.48 105.153 352.871 112.42 346.197 115.634C346.197 115.634 343.138 117.032 340.496 115.355C336.186 112.56 339.106 107.668 342.026 107.249C343.277 106.97 345.224 107.529 346.197 110.044C346.197 110.044 352.314 105.432 342.304 101.659C342.304 101.659 328.818 96.4881 334.657 86.8451C340.496 77.2022 351.202 86.7054 351.202 86.7054C359.127 93.8328 360.378 86.1464 360.378 86.1464C357.737 86.4259 356.346 85.0283 356.068 83.7706C355.234 80.9755 358.015 76.2239 362.603 78.5997C365.384 80.137 365.523 83.491 365.523 83.491C365.801 94.1123 351.341 93.8328 351.341 93.8328C349.951 93.8328 349.256 94.5315 349.256 95.37C349.256 96.0688 349.673 96.7676 350.507 97.3266C353.01 98.8639 359.405 96.9073 361.491 96.4881C370.111 94.252 372.753 103.755 372.753 103.755C376.646 114.516 383.736 116.333 383.736 116.333C369.972 118.29 363.993 116.333 361.352 114.516Z" fill="#E6E6E6" fill-opacity="0.3"/>
<path d="M327.428 74.9658C329.93 63.5061 321.588 56.0992 321.588 56.0992C302.262 38.7698 322.144 42.9624 322.144 42.9624C341.748 47.8538 335.631 72.59 335.074 74.2671C331.46 61.829 327.428 74.9658 327.428 74.9658Z" fill="#E6E6E6" fill-opacity="0.3"/>
<path d="M326.732 74.9658C322.283 67.8384 319.92 75.1056 321.032 77.9006C314.636 70.6335 307.407 66.4409 302.679 64.6241C297.952 62.8073 297.535 59.7328 297.535 58.475C297.674 48.5525 310.604 53.0246 310.604 53.0246C320.337 56.3787 325.342 65.8819 326.732 74.9658Z" fill="#E6E6E6" fill-opacity="0.3"/>
<path d="M309.492 105.012C309.492 105.012 320.198 102.357 323.395 91.0371C323.395 91.0371 320.754 104.593 329.791 95.3695C329.513 97.0465 323.395 121.783 303.792 116.891C303.792 116.891 284.466 111.162 309.492 105.012Z" fill="#E6E6E6" fill-opacity="0.3"/>
<path d="M318.529 84.3298C311.299 85.867 285.577 89.0814 289.331 73.988C293.085 59.0345 314.219 73.8483 319.919 78.7396C314.775 77.3421 313.106 82.9322 318.529 84.3298Z" fill="#E6E6E6" fill-opacity="0.3"/>
<path d="M296.7 88.3822C301.706 89.0809 310.187 88.8014 319.085 85.3076C316.86 87.2642 315.47 94.8108 322.839 90.6182C317.277 98.0251 308.518 104.034 298.23 102.218C298.23 102.218 284.743 99.9817 289.331 91.1772C289.888 90.199 291.695 87.8232 296.7 88.3822Z" fill="#E6E6E6" fill-opacity="0.3"/>
<path d="M327.705 89.0809C325.898 88.6617 324.924 85.8666 325.619 83.0715C326.315 80.2765 328.4 78.32 330.208 78.7392C332.015 79.1585 332.988 81.9535 332.293 84.7486C331.737 87.6834 329.651 89.6399 327.705 89.0809Z" fill="#E6E6E6" fill-opacity="0.3"/>
<path d="M286.272 68.538C283.492 71.6125 284.604 76.6437 284.604 76.6437C230.519 68.538 215.782 117.451 215.782 117.451H209.108C232.327 61.5503 255.824 54.7025 255.824 54.7025C256.241 42.1247 248.872 45.1993 248.872 45.1993C250.958 49.2521 247.065 51.4881 247.065 51.4881C240.113 54.8422 238.027 48.2738 238.027 48.2738C235.664 41.1464 243.728 38.9104 243.728 38.9104C261.524 35.5563 259.3 53.8639 259.3 53.8639C262.358 54.2832 266.947 49.3918 266.947 49.3918C275.706 38.0719 279.182 47.1558 279.182 47.1558C282.936 56.9385 276.818 61.5503 266.251 63.5069C244.562 67.6995 239.974 77.4822 239.974 77.4822C264.166 61.5503 286.272 68.538 286.272 68.538Z" fill="#E6E6E6" fill-opacity="0.3"/>
<path d="M267.086 106.69C265.974 109.066 266.947 111.442 267.92 112.56C268.615 113.538 268.615 114.796 266.113 115.215C261.803 115.914 255.407 109.625 255.407 109.625C255.963 111.022 255.546 112.28 255.268 112.979C254.99 113.678 254.295 114.656 253.321 114.936C249.428 116.193 248.733 111.721 248.733 111.721C247.621 107.529 246.37 107.529 245.535 107.529C244.701 107.529 245.257 108.647 245.535 108.926C249.428 115.914 242.616 113.398 242.616 113.398C225.236 107.948 219.258 117.451 219.258 117.451C229.685 93.1341 243.867 85.4477 252.765 83.7707C260.551 82.3731 259.995 85.0284 259.995 85.0284C259.717 87.2645 257.075 90.4788 257.075 90.4788C261.942 85.5874 266.669 86.985 269.31 88.9415C270.84 90.1993 270.701 91.8763 269.867 91.8763C265.974 91.8763 265.556 95.5099 265.556 95.5099C269.032 94.2521 272.508 96.0689 272.508 96.0689C278.209 99.1435 271.118 100.541 271.118 100.541C274.594 103.616 279.877 103.336 279.877 103.336C285.995 102.637 281.267 97.0472 281.267 97.0472C287.524 97.0472 287.941 102.777 287.941 102.777C288.914 117.172 267.086 106.69 267.086 106.69ZM260.829 97.1869C260.134 95.9292 259.022 95.0906 257.771 94.6714C254.573 93.6931 251.236 94.5316 247.76 95.7894C236.637 99.5627 225.514 110.184 225.514 110.184C240.808 102.498 245.535 102.078 251.653 103.895C256.658 105.293 258.744 103.895 258.744 103.895C261.107 102.637 262.081 99.7025 260.829 97.1869Z" fill="#E6E6E6" fill-opacity="0.3"/>
<path d="M263.054 42.6836C263.054 42.6836 263.332 36.814 266.808 33.3202C270.006 30.1059 276.123 29.5469 276.123 29.5469C276.123 29.5469 275.567 35.696 272.369 38.9103C269.032 42.2644 263.054 42.6836 263.054 42.6836Z" fill="#E6E6E6" fill-opacity="0.3"/>
<path d="M166.981 138.931C166.842 141.726 167.398 145.359 171.152 147.176C171.152 147.176 181.023 152.207 185.194 138.372C185.194 138.372 188.67 150.95 170.039 158.915C170.039 158.915 149.045 166.881 161.002 183.233C161.002 183.233 165.729 189.801 173.237 176.664C173.237 176.664 178.103 169.676 183.248 173.729C183.248 173.729 168.788 179.04 173.376 189.102C173.793 189.941 175.462 192.177 177.547 190.919C179.633 189.661 182.692 186.587 184.082 181.975C184.36 180.857 185.611 179.18 186.724 178.76C187.975 178.341 190.06 178.201 189.087 181.835C188.809 182.673 186.724 186.726 185.889 188.543C184.221 192.316 183.387 201.4 192.007 201.4C200.627 201.4 199.793 192.316 198.124 188.543C197.29 186.726 195.066 182.673 194.927 181.835C193.953 178.201 196.039 178.481 197.29 178.76C198.403 179.18 199.654 180.857 199.932 181.975C201.183 186.726 204.381 189.801 206.467 190.919C208.691 192.177 210.36 189.941 210.638 189.102C215.226 179.04 200.766 173.729 200.766 173.729C205.91 169.676 210.777 176.664 210.777 176.664C218.284 189.801 223.012 183.233 223.012 183.233C234.969 166.881 213.974 158.915 213.974 158.915C195.344 151.089 198.82 138.372 198.82 138.372C202.852 152.347 212.862 147.176 212.862 147.176C216.616 145.359 217.172 141.726 217.033 138.931C216.755 134.598 212.584 131.664 212.584 131.664C209.803 129.847 207.857 129.847 206.606 130.406C204.242 131.384 203.964 133.76 203.964 133.76C203.825 136.415 204.937 137.533 206.188 138.232C207.857 139.071 209.803 138.232 209.803 138.232C211.75 137.114 209.942 135.157 210.499 134.459C212.028 132.642 213.696 135.437 213.696 135.437C216.616 141.446 211.055 142.984 211.055 142.984C206.049 144.102 203.269 142.145 201.6 139.909C199.932 137.673 199.654 132.782 199.515 131.664C198.959 116.99 194.231 117.828 191.868 117.828C189.504 117.828 184.916 116.99 184.221 131.664C184.221 132.782 183.804 137.673 182.135 139.909C180.467 142.145 177.686 144.102 172.681 142.984C172.681 142.984 167.12 141.446 170.039 135.437C170.039 135.437 171.708 132.642 173.237 134.459C173.793 135.157 171.986 137.254 173.932 138.232C173.932 138.232 175.879 139.071 177.547 138.232C178.799 137.673 179.911 136.415 179.772 133.76C179.772 133.76 179.494 131.384 177.13 130.406C175.74 129.847 173.932 129.987 171.152 131.664C171.43 131.664 167.259 134.598 166.981 138.931ZM193.953 121.741C194.231 121.741 194.649 121.601 195.205 122.021C196.039 122.58 196.039 123.418 196.039 123.418C195.344 138.372 197.151 149.832 202.852 162.13C204.52 165.624 203.269 168.279 200.349 167.301C197.568 166.322 196.595 162.409 195.205 152.347C193.953 142.844 193.675 124.676 193.675 122.16C193.814 121.881 193.814 121.741 193.953 121.741ZM187.697 123.418C187.697 123.418 187.697 122.58 188.531 122.021C189.087 121.601 189.643 121.601 189.782 121.741C189.921 121.741 189.921 121.881 189.921 122.021C189.921 124.536 189.643 142.844 188.392 152.207C187.002 162.409 186.028 166.183 183.248 167.161C180.467 168.139 179.216 165.624 180.745 161.99C186.585 149.832 188.531 138.512 187.697 123.418Z" fill="#E6E6E6" fill-opacity="0.3"/>
<path d="M227.322 200.003C226.766 199.444 224.958 197.627 223.151 196.649C218.006 193.714 212.445 195.531 207.023 200.422C204.103 202.938 201.739 206.292 197.846 208.249C197.012 208.668 194.788 209.786 192.563 209.786C190.06 209.926 187.419 208.947 186.585 208.528C182.274 206.572 179.772 203.078 176.852 200.283C171.43 195.391 165.868 193.575 160.724 196.509C159.056 197.488 157.109 199.304 156.553 199.863C151.27 204.895 145.43 203.637 143.762 203.916C151.548 215.935 160.863 212.162 172.681 203.497C173.932 202.519 175.462 203.497 175.74 204.895C175.74 205.174 175.879 205.593 175.74 206.013C175.601 206.572 174.906 207.27 173.932 207.55C169.344 208.668 163.783 210.485 161.697 215.236C160.168 218.73 162.392 221.525 164.339 222.503C165.312 222.923 166.564 223.062 167.815 223.062C172.125 222.783 176.018 219.01 177.825 213.14C177.964 212.721 178.242 211.742 178.799 211.183C179.911 209.786 181.023 210.345 181.579 210.764C182.274 211.323 182.692 212.162 182.692 212.721C182.692 213.699 182.553 214.677 180.884 216.215C177.269 219.429 174.489 224.041 174.349 227.674C174.071 234.662 183.526 237.737 187.558 232.007C188.253 231.028 190.199 228.094 190.06 220.966C190.06 220.267 189.921 219.708 189.921 219.149C189.782 218.451 189.782 217.752 189.782 217.053C189.782 216.494 189.921 215.656 192.007 215.656C194.092 215.656 194.231 216.354 194.231 217.053C194.231 217.752 194.231 218.451 194.092 219.149C193.953 219.708 193.953 220.267 193.953 220.966C193.814 228.094 195.9 231.028 196.456 232.007C200.488 237.737 209.942 234.662 209.664 227.674C209.525 224.041 206.745 219.429 203.13 216.215C201.461 214.677 201.322 213.699 201.322 212.721C201.322 212.162 201.739 211.323 202.434 210.764C202.991 210.345 204.103 209.786 205.215 211.183C205.632 211.742 206.049 212.86 206.188 213.14C207.996 219.149 211.889 222.783 216.199 223.062C217.45 223.202 218.702 223.062 219.675 222.503C221.621 221.525 223.846 218.73 222.316 215.236C220.231 210.485 214.67 208.808 210.081 207.55C209.108 207.27 208.413 206.711 208.274 206.013C208.274 205.593 208.274 205.174 208.274 204.895C208.552 203.357 210.081 202.519 211.333 203.497C223.151 212.162 232.466 215.935 240.252 203.916C238.445 203.777 232.605 204.895 227.322 200.003Z" fill="#E6E6E6" fill-opacity="0.3"/>
<path d="M41.432 133.481C31.4215 129.707 37.5391 125.096 37.5391 125.096C38.5123 127.611 40.4588 128.03 41.7101 127.891C44.4908 127.332 47.4105 122.58 43.2395 119.785C40.5978 118.108 37.5391 119.506 37.5391 119.506C30.8654 122.72 32.3948 129.987 33.7851 134.04C33.7851 134.04 30.7264 130.965 25.9992 132.083C24.4698 132.503 18.4913 135.298 15.4325 127.471C15.4325 127.471 20.0207 129.707 22.6624 127.611C23.4966 126.912 25.7211 122.86 22.3843 120.624C19.6036 118.807 13.7641 116.85 -0.000344917 118.807C-0.000344917 118.807 7.09042 120.624 10.9834 131.385C10.9834 131.385 13.6251 140.888 22.3843 138.791C24.3308 138.232 30.8654 136.416 33.368 137.953C34.2022 138.512 34.6193 139.211 34.6193 139.909C34.6193 140.748 33.9242 141.586 32.5338 141.447C32.5338 141.447 17.9352 141.167 18.3523 151.788C18.3523 151.788 18.4913 155.143 21.272 156.68C25.7211 159.195 28.6408 154.304 27.8066 151.509C27.3895 150.251 26.1382 148.854 23.4965 149.133C23.4965 149.133 24.7479 141.586 32.6728 148.574C32.6728 148.574 43.5176 158.077 49.218 148.434C54.9184 138.652 41.432 133.481 41.432 133.481Z" fill="#E6E6E6" fill-opacity="0.3"/>
<path d="M62.1483 178.901C62.1483 178.901 53.9452 171.494 56.3088 160.034C56.3088 160.034 52.2768 173.311 48.6619 160.733C48.1058 162.41 41.9882 187.006 61.5921 192.038C61.5921 192.038 81.4741 196.23 62.1483 178.901Z" fill="#E6E6E6" fill-opacity="0.3"/>
<path d="M81.1971 170.375C76.47 168.559 69.2402 164.366 62.8446 157.099C63.8178 159.894 61.5932 167.161 57.1441 160.034C58.5345 169.257 63.5397 178.761 73.4112 181.975C73.4112 181.975 86.3414 186.307 86.4805 176.525C86.3414 175.127 85.9243 172.052 81.1971 170.375Z" fill="#E6E6E6" fill-opacity="0.3"/>
<path d="M60.3412 143.962C63.539 132.642 74.2447 129.987 74.2447 129.987C99.271 123.837 79.9451 118.108 79.9451 118.108C60.3412 113.216 54.2237 137.953 53.9456 139.63C62.9829 130.406 60.3412 143.962 60.3412 143.962Z" fill="#E6E6E6" fill-opacity="0.3"/>
<path d="M65.3464 150.67C70.6297 152.068 68.9613 157.518 63.956 156.26C69.6565 161.152 90.7898 175.966 94.5437 161.012C98.1586 146.058 72.5762 149.133 65.3464 150.67Z" fill="#E6E6E6" fill-opacity="0.3"/>
<path d="M85.5062 132.643C75.3566 130.826 66.4584 136.835 60.897 144.242C68.1268 140.189 66.7365 147.596 64.651 149.553C73.5492 146.199 82.0303 145.919 87.0356 146.478C92.0408 147.177 93.8483 144.661 94.4044 143.543C98.9926 134.879 85.5062 132.643 85.5062 132.643Z" fill="#E6E6E6" fill-opacity="0.3"/>
<path d="M53.3894 156.261C55.1969 156.68 57.2824 154.724 57.9776 151.928C58.6728 149.133 57.8386 146.338 55.8921 145.919C54.0846 145.5 51.9991 147.456 51.3039 150.251C50.6087 153.046 51.582 155.842 53.3894 156.261Z" fill="#E6E6E6" fill-opacity="0.3"/>
<path d="M145.709 186.587C145.709 186.587 143.623 180.018 136.671 183.372C136.671 183.372 132.778 185.608 134.864 189.661C134.864 189.661 127.495 192.736 127.912 180.158C127.912 180.158 151.409 173.31 174.628 117.409H167.954C167.954 117.409 153.217 166.323 99.132 158.217C99.132 158.217 100.244 163.248 97.4636 166.323C97.4636 166.323 119.709 173.31 143.762 157.378C143.762 157.378 139.174 167.161 117.485 171.354C107.057 173.31 100.8 177.922 104.554 187.705C104.554 187.705 108.03 196.789 116.789 185.469C116.789 185.469 121.378 180.717 124.436 180.997C124.436 180.997 122.212 199.165 140.008 195.81C140.008 196.09 148.072 193.714 145.709 186.587Z" fill="#E6E6E6" fill-opacity="0.3"/>
<path d="M102.608 137.953C102.608 137.953 97.8805 132.223 103.998 131.664C103.998 131.664 109.281 131.384 112.757 134.459C112.757 134.459 105.666 135.717 111.367 138.931C111.367 138.931 114.843 140.748 118.319 139.49C118.319 139.49 117.901 143.124 114.008 143.124C113.035 143.124 112.896 144.801 114.565 146.058C117.067 148.015 121.933 149.413 126.8 144.521C126.8 144.521 124.158 147.736 123.88 149.972C123.88 149.972 123.324 152.627 131.11 151.229C140.008 149.552 154.19 141.866 164.617 117.549C164.617 117.549 158.639 127.052 141.259 121.602C141.259 121.602 134.447 119.226 138.34 126.074C138.479 126.353 139.035 127.471 138.34 127.471C137.505 127.471 136.254 127.332 135.142 123.279C135.142 123.279 134.447 118.807 130.554 120.064C129.58 120.344 128.885 121.322 128.607 122.021C128.329 122.72 127.912 123.978 128.468 125.375C128.468 125.375 122.073 119.086 117.762 119.785C115.26 120.204 115.26 121.462 115.955 122.44C116.789 123.558 117.901 125.934 116.789 128.31C116.789 128.31 94.9607 117.968 95.934 132.363C95.934 132.363 96.3511 137.953 102.608 137.953ZM125.131 131.105C125.131 131.105 127.217 129.707 132.222 131.105C138.34 132.922 143.067 132.502 158.361 124.816C158.361 124.816 147.238 135.437 136.115 139.211C132.639 140.329 129.302 141.307 126.105 140.329C124.853 139.909 123.602 139.071 123.046 137.813C121.655 135.298 122.629 132.363 125.131 131.105Z" fill="#E6E6E6" fill-opacity="0.3"/>
<path d="M107.613 205.594C107.613 205.594 113.731 205.035 116.929 201.82C120.405 198.327 120.683 192.457 120.683 192.457C120.683 192.457 114.843 192.736 111.367 196.23C108.169 199.445 107.613 205.594 107.613 205.594Z" fill="#E6E6E6" fill-opacity="0.3"/>
<path d="M361.352 120.484C357.876 122.72 360.1 126.773 361.074 127.471C363.715 129.568 368.303 127.332 368.303 127.332C365.245 135.158 359.266 132.363 357.737 131.944C353.01 130.826 349.951 133.9 349.951 133.9C351.48 129.847 352.871 122.58 346.197 119.366C346.197 119.366 343.138 117.968 340.496 119.645C336.186 122.44 339.106 127.332 342.026 127.751C343.277 128.03 345.224 127.471 346.197 124.956C346.197 124.956 352.314 129.568 342.304 133.341C342.304 133.341 328.818 138.512 334.657 148.155C340.496 157.798 351.202 148.295 351.202 148.295C359.127 141.167 360.378 148.854 360.378 148.854C357.737 148.574 356.346 149.972 356.068 151.229C355.234 154.025 358.015 158.776 362.603 156.4C365.384 154.863 365.523 151.509 365.523 151.509C365.801 140.888 351.341 141.167 351.341 141.167C349.951 141.167 349.256 140.468 349.256 139.63C349.256 138.931 349.673 138.232 350.507 137.673C353.01 136.136 359.405 138.093 361.491 138.512C370.111 140.748 372.753 131.245 372.753 131.245C376.646 120.484 383.736 118.667 383.736 118.667C369.972 116.71 363.993 118.667 361.352 120.484Z" fill="#E6E6E6" fill-opacity="0.3"/>
<path d="M327.428 160.034C329.93 171.494 321.588 178.901 321.588 178.901C302.262 196.23 322.144 192.038 322.144 192.038C341.748 187.146 335.631 162.41 335.074 160.733C331.46 173.171 327.428 160.034 327.428 160.034Z" fill="#E6E6E6" fill-opacity="0.3"/>
<path d="M326.732 160.033C322.283 167.161 319.92 159.893 321.032 157.098C314.636 164.366 307.407 168.558 302.679 170.375C297.952 172.192 297.535 175.266 297.535 176.524C297.674 186.447 310.604 181.974 310.604 181.974C320.337 178.62 325.342 169.117 326.732 160.033Z" fill="#E6E6E6" fill-opacity="0.3"/>
<path d="M309.492 129.987C309.492 129.987 320.198 132.642 323.395 143.962C323.395 143.962 320.754 130.406 329.791 139.63C329.513 137.953 323.395 113.216 303.792 118.108C303.792 118.108 284.466 123.837 309.492 129.987Z" fill="#E6E6E6" fill-opacity="0.3"/>
<path d="M318.529 150.67C311.299 149.133 285.577 145.919 289.331 161.012C293.085 175.966 314.219 161.152 319.919 156.26C314.775 157.658 313.106 152.068 318.529 150.67Z" fill="#E6E6E6" fill-opacity="0.3"/>
<path d="M296.7 146.618C301.706 145.919 310.187 146.199 319.085 149.692C316.86 147.736 315.47 140.189 322.839 144.382C317.277 136.975 308.518 130.965 298.23 132.782C298.23 132.782 284.743 135.018 289.331 143.823C289.888 144.801 291.695 147.177 296.7 146.618Z" fill="#E6E6E6" fill-opacity="0.3"/>
<path d="M327.705 145.919C325.898 146.338 324.924 149.133 325.619 151.928C326.315 154.724 328.4 156.68 330.208 156.261C332.015 155.842 332.988 153.046 332.293 150.251C331.737 147.317 329.651 145.36 327.705 145.919Z" fill="#E6E6E6" fill-opacity="0.3"/>
<path d="M286.272 166.462C283.492 163.387 284.604 158.356 284.604 158.356C230.519 166.462 215.782 117.548 215.782 117.548H209.108C232.327 173.45 255.824 180.298 255.824 180.298C256.241 192.875 248.872 189.801 248.872 189.801C250.958 185.748 247.065 183.512 247.065 183.512C240.113 180.158 238.027 186.726 238.027 186.726C235.664 193.854 243.728 196.09 243.728 196.09C261.524 199.444 259.3 181.136 259.3 181.136C262.358 180.717 266.947 185.608 266.947 185.608C275.706 196.928 279.182 187.844 279.182 187.844C282.936 178.061 276.818 173.45 266.251 171.493C244.562 167.3 239.974 157.518 239.974 157.518C264.166 173.45 286.272 166.462 286.272 166.462Z" fill="#E6E6E6" fill-opacity="0.3"/>
<path d="M267.086 128.31C265.974 125.934 266.947 123.558 267.92 122.44C268.615 121.462 268.615 120.204 266.113 119.785C261.803 119.086 255.407 125.375 255.407 125.375C255.963 123.978 255.546 122.72 255.268 122.021C254.99 121.322 254.295 120.344 253.321 120.064C249.428 118.807 248.733 123.279 248.733 123.279C247.621 127.471 246.37 127.471 245.535 127.471C244.701 127.471 245.257 126.353 245.535 126.074C249.428 119.086 242.616 121.602 242.616 121.602C225.236 127.052 219.258 117.549 219.258 117.549C229.685 141.866 243.867 149.552 252.765 151.229C260.551 152.627 259.995 149.972 259.995 149.972C259.717 147.736 257.075 144.521 257.075 144.521C261.942 149.413 266.669 148.015 269.31 146.058C270.84 144.801 270.701 143.124 269.867 143.124C265.974 143.124 265.556 139.49 265.556 139.49C269.032 140.748 272.508 138.931 272.508 138.931C278.209 135.857 271.118 134.459 271.118 134.459C274.594 131.384 279.877 131.664 279.877 131.664C285.995 132.363 281.267 137.953 281.267 137.953C287.524 137.953 287.941 132.223 287.941 132.223C288.914 117.828 267.086 128.31 267.086 128.31ZM260.829 137.813C260.134 139.071 259.022 139.909 257.771 140.329C254.573 141.307 251.236 140.468 247.76 139.211C236.637 135.437 225.514 124.816 225.514 124.816C240.808 132.502 245.535 132.922 251.653 131.105C256.658 129.707 258.744 131.105 258.744 131.105C261.107 132.363 262.081 135.298 260.829 137.813Z" fill="#E6E6E6" fill-opacity="0.3"/>
<path d="M263.054 192.316C263.054 192.316 263.332 198.186 266.808 201.68C270.006 204.894 276.123 205.453 276.123 205.453C276.123 205.453 275.567 199.304 272.369 196.09C269.032 192.736 263.054 192.316 263.054 192.316Z" fill="#E6E6E6" fill-opacity="0.3"/>
</svg>
