<svg width="52" height="52" viewBox="0 0 52 52" fill="none" xmlns="http://www.w3.org/2000/svg">
<rect width="52" height="52" rx="26" fill="#4C0A2E"/>
<path fill-rule="evenodd" clip-rule="evenodd" d="M13 15.25C13 15.0511 13.079 14.8603 13.2197 14.7197C13.3603 14.579 13.5511 14.5 13.75 14.5H16C16.1673 14.5 16.3298 14.556 16.4616 14.659C16.5934 14.762 16.687 14.9062 16.7275 15.0685L17.335 17.5H34.75C34.8609 17.5001 34.9704 17.5247 35.0707 17.5722C35.1709 17.6197 35.2594 17.6889 35.3297 17.7746C35.4 17.8604 35.4504 17.9608 35.4772 18.0684C35.5041 18.176 35.5067 18.2882 35.485 18.397L33.985 25.897C33.9522 26.0605 33.8658 26.2085 33.7395 26.3174C33.6131 26.4264 33.4541 26.4901 33.2875 26.4985L19.192 27.2065L19.6225 29.5H32.5C32.6989 29.5 32.8897 29.579 33.0303 29.7197C33.171 29.8603 33.25 30.0511 33.25 30.25C33.25 30.4489 33.171 30.6397 33.0303 30.7803C32.8897 30.921 32.6989 31 32.5 31H19C18.8251 30.9998 18.6558 30.9386 18.5214 30.8268C18.3869 30.7151 18.2957 30.5599 18.2635 30.388L16.015 18.4105L15.415 16H13.75C13.5511 16 13.3603 15.921 13.2197 15.7803C13.079 15.6397 13 15.4489 13 15.25ZM17.653 19L18.913 25.7185L32.629 25.03L33.835 19H17.653ZM20.5 31C19.7044 31 18.9413 31.3161 18.3787 31.8787C17.8161 32.4413 17.5 33.2044 17.5 34C17.5 34.7956 17.8161 35.5587 18.3787 36.1213C18.9413 36.6839 19.7044 37 20.5 37C21.2956 37 22.0587 36.6839 22.6213 36.1213C23.1839 35.5587 23.5 34.7956 23.5 34C23.5 33.2044 23.1839 32.4413 22.6213 31.8787C22.0587 31.3161 21.2956 31 20.5 31ZM31 31C30.2044 31 29.4413 31.3161 28.8787 31.8787C28.3161 32.4413 28 33.2044 28 34C28 34.7956 28.3161 35.5587 28.8787 36.1213C29.4413 36.6839 30.2044 37 31 37C31.7956 37 32.5587 36.6839 33.1213 36.1213C33.6839 35.5587 34 34.7956 34 34C34 33.2044 33.6839 32.4413 33.1213 31.8787C32.5587 31.3161 31.7956 31 31 31ZM20.5 32.5C20.1022 32.5 19.7206 32.658 19.4393 32.9393C19.158 33.2206 19 33.6022 19 34C19 34.3978 19.158 34.7794 19.4393 35.0607C19.7206 35.342 20.1022 35.5 20.5 35.5C20.8978 35.5 21.2794 35.342 21.5607 35.0607C21.842 34.7794 22 34.3978 22 34C22 33.6022 21.842 33.2206 21.5607 32.9393C21.2794 32.658 20.8978 32.5 20.5 32.5ZM31 32.5C30.6022 32.5 30.2206 32.658 29.9393 32.9393C29.658 33.2206 29.5 33.6022 29.5 34C29.5 34.3978 29.658 34.7794 29.9393 35.0607C30.2206 35.342 30.6022 35.5 31 35.5C31.3978 35.5 31.7794 35.342 32.0607 35.0607C32.342 34.7794 32.5 34.3978 32.5 34C32.5 33.6022 32.342 33.2206 32.0607 32.9393C31.7794 32.658 31.3978 32.5 31 32.5Z" fill="white"/>
</svg>
