<svg width="40" height="40" viewBox="0 0 40 40" fill="none" xmlns="http://www.w3.org/2000/svg">
<rect width="40" height="40" rx="20" fill="white" fill-opacity="0.5"/>
<path d="M25.3335 19.6663L28.2668 26.9997H26.8302L26.0295 24.9997H23.3028L22.5035 26.9997H21.0675L24.0002 19.6663H25.3335ZM19.6668 14.333V15.6663H23.6668V16.9997L22.355 17.0001C21.8285 18.5771 20.9994 20.0035 19.9412 21.2003C20.4231 21.6301 20.9448 22.0114 21.4985 22.3383L20.9981 23.59C20.2826 23.1851 19.6131 22.7013 18.9999 22.1496C17.8095 23.221 16.4063 24.0365 14.8661 24.5153L14.5085 23.2291C15.8258 22.8132 17.0304 22.1155 18.0604 21.2011C17.3087 20.3517 16.6726 19.3862 16.1784 18.3332L17.6714 18.3333C18.0469 19.0256 18.4934 19.6685 18.9999 20.251C19.819 19.3097 20.4805 18.2104 20.9398 17.0003L14.3335 16.9997V15.6663H18.3335V14.333H19.6668ZM24.6668 21.5898L23.8355 23.6663H25.4968L24.6668 21.5898Z" fill="black"/>
</svg>
