<svg width="38" height="53" viewBox="0 0 38 53" fill="none" xmlns="http://www.w3.org/2000/svg">
<g clip-path="url(#clip0_656_3556)">
<path d="M21.7484 0.608753C21.5853 0.969604 21.4455 1.48833 21.3057 2.14237C21.0494 3.45045 20.9096 5.34492 21.1426 7.48747C21.3756 9.63003 22.0046 12.0658 23.0997 14.3211C23.2395 14.5917 23.3793 14.8624 23.5423 15.133C23.4492 15.1105 23.356 15.0879 23.2395 15.0653C22.7735 14.9526 22.3308 14.8398 21.8649 14.7271C21.3989 14.6143 20.9562 14.5241 20.4902 14.4339C20.2572 14.3888 20.0476 14.3436 19.8146 14.2985C19.5816 14.2534 19.3719 14.2083 19.1622 14.1632C18.3002 13.9828 17.4614 13.8249 16.7159 13.6896C15.9703 13.5543 15.2713 13.419 14.6889 13.3513C13.524 13.1934 12.7318 13.1709 12.6153 13.3513C12.4988 13.5317 12.8483 14.1858 13.5473 15.1556C13.7336 15.4036 13.92 15.6517 14.1297 15.9224C14.3394 16.193 14.5724 16.4862 14.852 16.7794C15.3878 17.3658 15.9703 17.9973 16.646 18.6513C16.8091 18.8092 16.9721 18.9671 17.1585 19.1475C17.3449 19.3053 17.508 19.4632 17.6944 19.6211C18.0672 19.9368 18.44 20.2751 18.8127 20.5909C19.2088 20.9066 19.5816 21.2449 20.001 21.5381C20.4203 21.8313 20.8397 22.1471 21.2591 22.4402C21.3756 22.5305 21.4921 22.5981 21.6086 22.6658C14.4326 23.7032 6.97705 26.0036 6.97705 26.6351C6.97705 27.2666 14.4093 29.4768 21.6086 30.4917C21.4921 30.5819 21.3756 30.6496 21.2591 30.7173C20.8397 31.0105 20.4203 31.3036 20.001 31.6194C19.5816 31.9351 19.2088 32.2509 18.8127 32.5666C18.4167 32.8824 18.0439 33.2207 17.6944 33.5364C17.508 33.6943 17.3216 33.8522 17.1585 34.01C16.9954 34.1679 16.8091 34.3483 16.646 34.5062C15.9936 35.1602 15.3878 35.7917 14.852 36.3781C14.5724 36.6713 14.3394 36.9645 14.1297 37.2351C13.92 37.5058 13.7103 37.7764 13.5473 38.0019C12.8483 38.9492 12.4988 39.6258 12.6153 39.8062C12.7318 39.9866 13.524 39.9641 14.6889 39.8062C15.2713 39.716 15.947 39.6032 16.7159 39.4679C17.4847 39.3326 18.3002 39.1747 19.1622 38.9943C19.3719 38.9492 19.6049 38.9041 19.8146 38.859C20.0476 38.8139 20.2572 38.7688 20.4902 38.7236C20.9329 38.6334 21.3989 38.5432 21.8649 38.4305C22.3308 38.3177 22.7968 38.2049 23.2395 38.0922C23.3327 38.0922 23.4492 38.0471 23.5423 38.0245C23.4026 38.2951 23.2395 38.5658 23.0997 38.8364C22.0046 41.0917 21.3756 43.5049 21.1426 45.67C20.9096 47.8351 21.0494 49.707 21.3057 51.0151C21.4455 51.6692 21.5853 52.1879 21.7484 52.5488C21.8881 52.8419 22.0279 53.0449 22.1444 53.0449C22.2609 53.0449 22.424 52.887 22.657 52.5713C22.8667 52.2556 23.1463 51.827 23.4725 51.2858C24.1248 50.2258 25.0102 48.7824 26.1052 47.3164C27.2002 45.8505 28.4584 44.3619 29.7864 43.0088C30.4387 42.3322 31.1144 41.7007 31.7668 41.1143C32.4191 40.5053 33.0482 39.9641 33.6306 39.4228C34.3063 38.7913 34.9121 38.25 35.4712 37.7313C41.0862 35.7466 45.0236 31.6645 45.0236 26.5224C45.0236 21.3802 41.226 17.7717 35.4712 15.3134C34.8888 14.7947 34.3063 14.2309 33.6306 13.6219C33.0482 13.0807 32.4191 12.5168 31.7668 11.9305C31.1144 11.3215 30.462 10.69 29.7864 10.036C28.4584 8.70535 27.1769 7.19429 26.1052 5.72833C25.0335 4.26237 24.1248 2.84152 23.4725 1.75896C23.1463 1.21769 22.8667 0.789181 22.657 0.473434C22.4473 0.157688 22.2609 -0.000183105 22.1444 -0.000183105C22.0279 -0.000183105 21.9114 0.202793 21.7484 0.563644V0.608753ZM35.4479 33.1756C34.7956 33.5364 34.1665 33.9198 33.5374 34.3483C31.3707 35.8143 29.4369 37.6185 27.9458 39.4228C27.2002 40.3249 26.5479 41.227 26.012 42.0615C25.7324 42.4675 25.4994 42.8734 25.2664 43.2568C25.0568 43.6402 24.8471 44.0011 24.684 44.3168C23.985 45.6249 23.6588 46.4594 23.5889 46.4368C23.5423 46.4368 23.752 45.5347 24.3112 44.159C24.451 43.8207 24.6374 43.4373 24.8005 43.0313C25.0102 42.6253 25.2198 42.1968 25.4528 41.7683C25.9421 40.8888 26.5479 39.919 27.2701 38.9717C28.7146 37.0322 30.6251 35.07 32.8152 33.4688C33.6539 32.8598 34.516 32.296 35.4013 31.7998V33.2207L35.4479 33.1756ZM27.806 32.5441C26.7809 32.95 25.7557 33.3334 24.8238 33.7168C23.8452 34.1228 22.9366 34.5288 22.0978 34.867C21.6785 35.0249 21.3057 35.2279 20.9329 35.3858C20.5601 35.5436 20.2339 35.7015 19.9311 35.8368C19.3253 36.1075 18.836 36.333 18.4866 36.4683C18.1604 36.6262 17.9507 36.6939 17.9507 36.6713C17.9507 36.6488 18.0905 36.5134 18.3934 36.3105C18.6962 36.1075 19.1622 35.8368 19.7447 35.4985C20.0476 35.3407 20.3504 35.1602 20.6999 34.9573C21.0494 34.7543 21.4222 34.5513 21.8183 34.3483C22.6337 33.9424 23.5191 33.4913 24.4743 33.0177C25.4528 32.5666 26.478 32.1156 27.5497 31.6194C28.0856 31.4164 28.6214 31.1909 29.1573 30.9653C29.4136 30.9653 29.6699 30.9653 29.9262 30.9428C29.2505 31.3939 28.5282 31.9126 27.8293 32.5441H27.806ZM35.4479 27.2441C25.9421 27.0862 14.4792 26.8381 14.4792 26.6126C14.4792 26.387 25.9421 26.1615 35.4479 25.9811V27.2215V27.2441ZM29.1573 22.1245C28.6214 21.899 28.0856 21.696 27.5497 21.4705C26.5013 20.9968 25.4528 20.5232 24.4743 20.0722C23.5191 19.5985 22.6337 19.1475 21.8183 18.7415C21.4222 18.5385 21.0494 18.3356 20.6999 18.1326C20.3504 17.9296 20.0243 17.7492 19.7447 17.5913C19.1622 17.253 18.6962 16.9824 18.3934 16.7794C18.0905 16.5764 17.9274 16.4411 17.9507 16.4185C17.9507 16.396 18.1604 16.4636 18.4866 16.6215C18.836 16.7568 19.3253 16.9824 19.9311 17.253C20.2339 17.3883 20.5601 17.5462 20.9329 17.7041C21.2824 17.8619 21.6785 18.0649 22.0978 18.2228C22.9133 18.5836 23.8452 18.967 24.8238 19.373C25.779 19.7339 26.7809 20.1398 27.806 20.5458C28.5282 21.1773 29.2272 21.696 29.9262 22.1471C29.6699 22.1471 29.4136 22.147 29.1573 22.1245ZM24.684 8.79556C24.8471 9.13386 25.0568 9.47216 25.2664 9.85556C25.4994 10.239 25.7324 10.6449 26.012 11.0509C26.5479 11.8853 27.1769 12.7875 27.9458 13.6896C29.4369 15.4939 31.3707 17.2981 33.5374 18.7641C34.1665 19.1926 34.7956 19.576 35.4479 19.9368V21.3577C34.5626 20.839 33.7005 20.2977 32.8618 19.6888C30.6717 18.0875 28.7379 16.1253 27.3167 14.1858C26.5945 13.216 25.9887 12.2688 25.4994 11.3666C25.2431 10.9381 25.0335 10.487 24.8471 10.1036C24.6607 9.69769 24.4743 9.33683 24.3578 8.97598C23.7753 7.60024 23.5656 6.72067 23.6355 6.69812C23.7054 6.67556 24.0316 7.51003 24.7306 8.81811L24.684 8.79556Z" fill="#4C0A2E"/>
</g>
<defs>
<clipPath id="clip0_656_3556">
<rect width="53" height="38" fill="white" transform="matrix(0 -1 1 0 0 53)"/>
</clipPath>
</defs>
</svg>
