<svg width="242" height="193" viewBox="0 0 242 193" fill="none" xmlns="http://www.w3.org/2000/svg">
<g clip-path="url(#clip0_555_4717)">
<path d="M131.698 83.1878C131.698 83.1878 131.765 83.1541 131.665 83.1878H131.698Z" fill="#631E44"/>
<path d="M191.669 172.535C189.996 168.392 187.896 164.415 185.434 160.706C183.416 157.666 181.135 154.859 178.691 152.169C176.722 150.148 174.72 148.21 172.57 146.372C169.125 143.432 165.499 140.725 161.807 138.119C154.62 133.023 147.204 128.229 140.706 122.214C134.635 116.584 129.27 109.851 126.759 101.782C125.693 98.3906 125.118 94.665 125.857 91.1231C126.431 88.3498 127.924 85.6601 130.238 84.0061C130.714 83.6887 131.189 83.4214 131.682 83.1708H131.649C131.747 83.1206 131.698 83.1541 131.682 83.1708C133.7 82.3856 135.899 82.2185 137.982 82.987C140.657 83.9727 142.56 86.1613 143.348 88.9346C143.709 90.2878 143.742 91.6578 143.528 93.0444C143.528 93.0444 143.528 93.0444 143.528 93.011C143.512 93.0945 143.528 93.0444 143.528 93.0444C142.954 95.4335 141.543 97.6889 139.246 98.708C137.047 99.677 134.373 99.1758 132.683 97.455C132.272 97.054 131.977 96.5695 131.714 96.0683C131.714 96.0349 131.714 96.085 131.714 96.0683C131.403 95.2831 131.255 94.4645 131.353 93.6124C131.419 92.9776 131.583 92.3929 131.813 91.8917C132.141 91.1231 132.633 90.4382 133.257 89.8869C133.569 89.6195 133.897 89.3857 134.258 89.1852C134.34 89.1351 134.816 88.9513 134.799 88.7842C134.799 88.7341 134.717 88.7007 134.586 88.684C134.061 88.6171 133.47 88.8009 133.011 89.0181C132.65 89.1852 132.223 89.4525 131.813 89.8033C131.403 90.1709 130.993 90.6387 130.648 91.2067C130.287 91.7914 129.992 92.4931 129.811 93.295C129.368 95.2497 129.877 97.3046 131.157 98.8082C132.617 100.579 134.799 101.582 137.047 101.715C138.524 101.732 139.902 101.481 141.231 100.78C142.806 99.961 144.168 98.6913 145.136 97.1877C146.875 94.4979 147.368 91.19 146.662 88.0491C146.17 85.9274 145.169 83.956 143.725 82.3521C141.592 80.0132 138.557 78.6433 135.439 78.4595C132.732 78.2924 130.238 79.0442 127.941 80.481C125.315 82.2352 123.461 84.8749 122.28 87.8152C120.705 91.758 120.77 96.3523 121.64 100.445C122.214 103.185 123.133 105.825 124.232 108.398C125.808 112.04 128.006 115.431 130.435 118.539C133.06 121.88 136.03 124.937 139.197 127.744C145.907 133.742 153.455 138.62 160.707 143.883C166.467 148.076 172.177 152.57 176.787 158.084C181.496 163.68 185.188 170.062 187.732 176.962C190.324 183.996 191.784 191.48 191.916 198.998C191.981 202.974 191.735 206.934 191.095 210.86C190.751 212.998 190.291 215.12 189.717 217.225C189.438 218.228 189.143 219.247 188.814 220.232C188.601 220.884 188.404 221.569 188.125 222.187C187.502 223.674 186.895 225.328 186.173 226.848C185.32 228.636 184.384 230.373 183.4 232.111C181.464 235.502 179.068 238.676 176.508 241.617C171.094 247.832 164.531 253.061 157.295 256.903C153.554 258.892 149.632 260.495 145.612 261.815C143.61 262.467 141.576 262.951 139.525 263.452C138.589 263.67 137.638 263.887 136.686 264.087C136.456 264.137 134.52 264.405 134.553 264.739C134.586 265.023 135.964 264.99 136.161 265.006C136.899 265.04 137.638 265.006 138.393 264.973C140.017 264.889 141.625 264.689 143.233 264.438C146.449 263.937 149.632 263.085 152.7 262.016C160.429 259.309 167.599 255.133 173.867 249.786C180.463 244.156 186.041 237.173 189.979 229.371C193.622 222.154 195.886 214.251 196.641 206.165C196.887 203.559 196.986 200.936 196.953 198.33C196.805 189.475 194.984 180.688 191.669 172.501V172.535Z" fill="#631E44"/>
<path d="M114.092 80.5478C111.811 79.0943 109.317 78.3592 106.594 78.5263C103.476 78.7101 100.424 80.08 98.3076 82.4189C96.8473 84.0228 95.8628 85.9942 95.3705 88.1159C94.665 91.2568 95.1572 94.5647 96.9129 97.2545C97.881 98.7581 99.2428 100.028 100.818 100.846C102.147 101.531 103.525 101.799 105.002 101.782C107.25 101.648 109.449 100.646 110.893 98.875C112.172 97.3547 112.681 95.2998 112.238 93.3618C112.058 92.5599 111.762 91.8582 111.401 91.2735C111.04 90.6887 110.63 90.221 110.22 89.8701C109.81 89.5026 109.399 89.252 109.022 89.0849C108.546 88.8677 107.972 88.6672 107.447 88.7508C107.316 88.7675 107.234 88.8009 107.234 88.851C107.201 89.0014 107.677 89.2018 107.775 89.252C108.136 89.4524 108.464 89.6863 108.776 89.9536C109.399 90.505 109.892 91.1899 110.22 91.9584C110.433 92.4596 110.597 93.0444 110.663 93.6792C110.745 94.5313 110.614 95.3499 110.302 96.1351C110.039 96.6363 109.744 97.1208 109.334 97.5218C107.644 99.2593 104.953 99.7438 102.771 98.7748C100.473 97.7724 99.0624 95.517 98.4881 93.1279C98.4881 93.1279 98.4881 93.1613 98.4881 93.0945C98.4881 93.0945 98.4881 93.1112 98.4881 93.1279C98.2748 91.7413 98.3076 90.388 98.6686 89.0181C99.4562 86.2448 101.359 84.0562 104.034 83.0705C106.101 82.302 108.316 82.4524 110.335 83.2543C110.335 83.2543 110.269 83.2209 110.367 83.2543H110.335C110.843 83.5049 111.319 83.7722 111.779 84.0896C114.092 85.7436 115.569 88.4166 116.16 91.2066C116.898 94.7485 116.324 98.4741 115.257 101.866C112.747 109.935 107.381 116.668 101.31 122.298C94.8127 128.312 87.3962 133.107 80.2095 138.203C76.5177 140.809 72.8915 143.515 69.4458 146.456C67.3128 148.277 65.2946 150.231 63.3256 152.253C60.8809 154.959 58.6001 157.749 56.5819 160.79C54.1207 164.499 52.0205 168.475 50.3469 172.618C47.0325 180.805 45.2112 189.592 45.0635 198.447C45.0143 201.07 45.1127 203.676 45.3753 206.282C46.13 214.368 48.3943 222.27 52.0369 229.488C55.9748 237.29 61.5536 244.273 68.1496 249.903C74.4175 255.249 81.5878 259.426 89.316 262.133C92.3843 263.202 95.5674 264.054 98.7834 264.555C100.391 264.806 101.999 265.023 103.624 265.09C104.362 265.123 105.101 265.157 105.855 265.123C106.052 265.123 107.447 265.157 107.463 264.856C107.496 264.522 105.576 264.238 105.33 264.204C104.379 264.004 103.427 263.803 102.492 263.569C100.457 263.085 98.406 262.584 96.4043 261.932C92.3843 260.612 88.4792 259.008 84.7217 257.02C77.4858 253.178 70.9226 247.965 65.5079 241.734C62.9483 238.793 60.5691 235.619 58.6165 232.228C57.6321 230.507 56.6968 228.769 55.8436 226.965C55.1216 225.461 54.5145 223.791 53.891 222.304C53.6285 221.669 53.4316 221.001 53.2019 220.349C52.8737 219.364 52.5784 218.344 52.2994 217.342C51.7416 215.254 51.2657 213.132 50.9212 210.977C50.2813 207.051 50.0351 203.091 50.1008 199.115C50.232 191.597 51.6923 184.112 54.2848 177.079C56.8445 170.179 60.5363 163.797 65.229 158.2C69.856 152.704 75.5496 148.193 81.3253 144C88.5776 138.72 96.1253 133.842 102.836 127.861C106.003 125.038 108.973 121.997 111.598 118.656C114.026 115.548 116.225 112.157 117.8 108.515C118.916 105.942 119.819 103.319 120.393 100.562C121.262 96.4692 121.328 91.8749 119.753 87.9321C118.572 85.0085 116.717 82.3688 114.092 80.5979V80.5478Z" fill="#631E44"/>
<path d="M110.334 83.1876H110.367C110.252 83.1375 110.318 83.1709 110.334 83.1876Z" fill="#631E44"/>
<path d="M221.778 107.88C213.016 103.469 202.384 103.804 193.95 108.749C193.277 105.909 193.36 102.868 194.164 100.095C188.65 100.095 183.367 104.255 181.644 109.952C179.61 107.746 178.379 104.706 178.248 101.598C167.993 111.656 167.172 132.222 189.241 159.905C188.847 159.32 188.47 158.718 188.109 158.117C185.927 154.475 183.958 150.733 182.317 146.807C179.577 140.224 177.509 133.157 176.722 126.04C176.525 124.336 176.394 122.632 176.344 120.911C176.312 119.642 176.213 118.121 176.591 116.902C176.82 116.133 177.165 117.988 177.181 118.121C177.444 119.725 177.608 121.346 177.788 122.949C178.1 126.291 178.724 129.666 179.429 132.94C180.217 136.582 181.234 140.174 182.497 143.682C183.712 147.091 185.139 150.399 186.731 153.64C187.469 155.143 188.24 156.664 189.11 158.1C189.799 159.253 190.603 160.339 191.374 161.442C186.796 153.155 184.22 143.749 183.712 134.277C183.367 127.978 183.794 121.429 185.746 115.398C186.009 114.613 186.271 113.811 186.665 113.093C186.977 112.508 187.174 112.575 187.124 113.226C187.026 114.546 186.714 115.866 186.485 117.186C185.943 120.293 185.484 123.417 185.254 126.558C184.729 133.942 185.434 141.41 187.321 148.561C188.979 154.842 191.62 160.673 194.803 166.287C193.704 163.313 192.621 160.322 191.669 157.298C190.094 152.303 189.208 146.957 189.126 141.728C188.995 134.594 190.439 127.377 193.999 121.179C197.15 115.699 202.285 110.536 208.553 109.116C208.553 109.116 208.553 109.116 208.603 109.116C208.767 109.083 210.079 108.765 210.145 109.016C210.211 109.25 209.128 109.634 208.996 109.701C207.848 110.202 206.699 110.787 205.616 111.422C203.089 112.925 200.776 114.83 198.823 117.035C188.929 128.179 188.995 144.484 192.9 158.134C191.719 149.246 192.916 139.339 198.019 131.854C199.037 130.484 200.07 129.465 201.022 128.646C202.121 127.778 203.319 127.043 204.632 126.541C204.812 126.491 205.928 126.09 206.043 126.358C206.158 126.642 205.173 127.176 204.993 127.276C203.943 128.062 202.909 128.813 201.925 129.699C201.104 130.501 200.169 131.503 199.266 132.706C198.807 133.391 198.364 134.059 197.937 134.778C197.002 136.265 196.346 138.002 195.804 139.656C195.23 141.377 194.803 143.148 194.459 144.919C193.786 148.544 193.524 152.27 193.688 155.962C193.803 158.718 193.999 161.676 194.967 164.282C195.05 164.499 195.46 165.485 195.952 166.671C192.572 140.692 208.898 125.572 216.462 123.918C213.82 121.83 210.539 120.744 207.306 120.878C210.079 114.496 215.527 109.584 221.811 107.813L221.778 107.88Z" fill="#631E44"/>
<path d="M60.4051 109.935C58.6822 104.238 53.3988 100.095 47.8857 100.078C48.6897 102.868 48.7554 105.892 48.099 108.732C39.6489 103.787 29.0329 103.453 20.271 107.863C26.5553 109.634 32.0027 114.546 34.7757 120.928C31.5433 120.794 28.2453 121.88 25.62 123.969C33.2005 125.623 49.5101 140.742 46.1301 166.721C46.6223 165.518 47.0325 164.549 47.1145 164.332C48.0826 161.726 48.2795 158.769 48.3944 156.012C48.5585 152.32 48.2959 148.594 47.6232 144.969C47.295 143.181 46.852 141.41 46.2777 139.706C45.7199 138.052 45.08 136.298 44.1447 134.828C43.7181 134.11 43.2751 133.441 42.8156 132.756C41.9132 131.537 40.9779 130.551 40.1575 129.749C39.1895 128.864 38.1394 128.112 37.0892 127.327C36.9252 127.226 35.9407 126.692 36.0391 126.408C36.1376 126.141 37.2533 126.525 37.4502 126.592C38.7629 127.093 39.9442 127.811 41.06 128.697C42.0116 129.499 43.0454 130.518 44.0627 131.904C49.1491 139.406 50.3469 149.313 49.182 158.184C53.0871 144.535 53.1363 128.229 43.2587 117.086C41.2897 114.88 38.9926 112.959 36.4657 111.472C35.3828 110.837 34.2506 110.252 33.0857 109.751C32.938 109.684 31.8715 109.3 31.9371 109.066C32.0027 108.816 33.3154 109.133 33.4795 109.167C33.5287 109.167 33.5451 109.167 33.5287 109.167C39.813 110.587 44.9487 115.749 48.0826 121.229C51.6432 127.427 53.0871 134.644 52.9558 141.778C52.8574 147.024 51.9877 152.353 50.4126 157.349C49.4609 160.373 48.378 163.363 47.2786 166.337C50.4618 160.723 53.1035 154.893 54.7607 148.611C56.6476 141.461 57.3532 133.993 56.8281 126.608C56.5984 123.467 56.1554 120.343 55.5975 117.236C55.3678 115.933 55.056 114.613 54.9576 113.276C54.9084 112.625 55.1053 112.558 55.417 113.143C55.8108 113.878 56.0733 114.663 56.3359 115.448C58.2884 121.479 58.715 128.028 58.3705 134.327C57.8618 143.799 55.2858 153.222 50.7079 161.492C51.4791 160.389 52.2831 159.303 52.9722 158.151C53.8254 156.714 54.5966 155.193 55.3514 153.69C56.943 150.449 58.3705 147.141 59.5847 143.733C60.8317 140.224 61.849 136.632 62.653 132.99C63.3585 129.716 63.9984 126.341 64.2938 123C64.4743 121.396 64.6547 119.759 64.9009 118.171C64.9173 118.038 65.2618 116.183 65.4916 116.952C65.8689 118.188 65.7869 119.692 65.7377 120.961C65.6884 122.682 65.5572 124.37 65.3603 126.09C64.5727 133.207 62.5053 140.274 59.7651 146.857C58.1243 150.783 56.1554 154.525 53.9731 158.167C53.6121 158.769 53.2348 159.37 52.841 159.955C74.9098 132.272 74.073 111.706 63.8179 101.649C63.6867 104.756 62.4397 107.797 60.4215 110.002L60.4051 109.935Z" fill="#631E44"/>
<path d="M165.662 133.575C163.447 132.004 160.231 132.79 158.098 135.245C159.592 132.338 159.149 129.014 156.983 127.46C155.883 126.692 154.554 126.491 153.209 126.775C151.863 127.059 150.501 127.828 149.402 129.031C150.19 127.594 150.501 126.04 150.354 124.653C150.288 123.952 150.108 123.3 149.812 122.715C149.517 122.131 149.123 121.613 148.615 121.212C147.597 120.393 146.301 120.109 144.939 120.276C144.266 120.36 143.561 120.56 142.888 120.878C142.215 121.195 141.543 121.613 140.936 122.164C141.854 120.811 142.297 119.307 142.33 117.904C142.33 117.553 142.33 117.219 142.265 116.885C142.215 116.551 142.15 116.233 142.035 115.932C141.936 115.632 141.789 115.348 141.641 115.064C141.477 114.796 141.297 114.529 141.067 114.295C140.837 114.061 140.607 113.861 140.345 113.677C140.082 113.493 139.803 113.36 139.508 113.243C138.934 112.992 138.277 112.875 137.605 112.842C136.259 112.792 134.717 113.159 133.339 113.978C133.913 113.393 134.372 112.758 134.733 112.09C134.914 111.756 135.061 111.422 135.193 111.088C135.324 110.753 135.422 110.403 135.505 110.068C135.587 109.734 135.619 109.4 135.636 109.066C135.636 108.732 135.636 108.414 135.619 108.097C135.587 107.78 135.505 107.479 135.406 107.178C135.308 106.877 135.193 106.593 135.029 106.326C134.947 106.192 134.848 106.059 134.75 105.925C134.651 105.792 134.553 105.675 134.438 105.558C134.225 105.324 133.962 105.123 133.7 104.939C133.158 104.572 132.535 104.305 131.846 104.121C130.484 103.77 128.826 103.803 127.235 104.388C128.794 107.746 130.615 110.887 132.814 113.861C135.472 117.403 138.556 120.56 141.871 123.467C148.385 129.147 155.654 133.892 162.676 138.887C163.972 139.806 165.252 140.742 166.532 141.661C167.418 140.191 167.779 138.57 167.631 137.117C167.484 135.663 166.811 134.36 165.662 133.541V133.575Z" fill="#631E44"/>
<path d="M110.22 104.154C109.514 104.321 108.891 104.605 108.366 104.972C108.087 105.156 107.841 105.357 107.627 105.591C107.513 105.708 107.414 105.825 107.316 105.958C107.217 106.092 107.119 106.225 107.037 106.359C106.873 106.626 106.741 106.91 106.659 107.211C106.561 107.512 106.495 107.813 106.446 108.13C106.413 108.447 106.413 108.782 106.43 109.099C106.43 109.433 106.495 109.767 106.561 110.101C106.627 110.436 106.741 110.786 106.873 111.121C107.004 111.455 107.152 111.806 107.332 112.123C107.693 112.791 108.152 113.426 108.727 114.011C107.348 113.192 105.806 112.825 104.461 112.875C103.772 112.891 103.132 113.025 102.557 113.276C102.262 113.393 101.983 113.543 101.721 113.71C101.458 113.877 101.228 114.094 100.999 114.328C100.769 114.562 100.588 114.813 100.424 115.097C100.277 115.364 100.129 115.648 100.03 115.965C99.932 116.266 99.85 116.584 99.8008 116.918C99.7516 117.252 99.7352 117.586 99.7352 117.937C99.768 119.34 100.211 120.844 101.13 122.197C100.523 121.662 99.8664 121.228 99.1773 120.911C98.5045 120.593 97.799 120.393 97.1263 120.309C95.7644 120.142 94.4682 120.409 93.4509 121.245C92.9422 121.646 92.532 122.164 92.2531 122.748C91.9577 123.333 91.7937 123.985 91.7116 124.686C91.5639 126.073 91.8757 127.627 92.6633 129.064C91.5639 127.861 90.2021 127.092 88.8566 126.808C87.5112 126.524 86.1657 126.725 85.0828 127.493C82.9005 129.047 82.4575 132.371 83.967 135.278C81.834 132.823 78.618 132.037 76.4029 133.608C75.2544 134.426 74.5816 135.729 74.434 137.183C74.2863 138.653 74.6473 140.257 75.5333 141.727C76.8131 140.792 78.1094 139.873 79.4056 138.954C86.4446 133.959 93.697 129.214 100.211 123.534C103.525 120.643 106.627 117.469 109.268 113.927C111.467 110.953 113.288 107.813 114.847 104.455C113.255 103.87 111.598 103.836 110.236 104.187L110.22 104.154Z" fill="#631E44"/>
<path d="M166.959 189.241C166.582 188.757 166.172 188.322 165.729 187.905C164.908 187.153 164.022 186.485 163.087 185.917C160.921 184.614 158.509 183.778 156.015 183.411C153.455 183.026 150.83 183.16 148.303 183.661C145.842 184.146 143.446 185.015 141.248 186.217C139.164 187.353 137.244 188.84 135.505 190.478C133.798 192.081 132.273 193.869 130.927 195.79C129.516 197.829 128.302 200 127.202 202.206C126.612 203.392 126.054 204.578 125.48 205.781C124.971 206.85 124.446 207.919 124.019 209.022C123.872 209.39 123.724 209.774 123.609 210.158C123.576 210.292 123.527 210.425 123.511 210.559C123.511 210.592 123.461 210.709 123.511 210.743C124.725 209.156 125.972 207.569 127.252 206.032C128.876 204.077 130.55 202.189 132.289 200.368C134.077 198.514 135.948 196.743 137.917 195.105C139.869 193.485 141.92 191.998 144.119 190.745C146.203 189.542 148.434 188.54 150.748 187.921C151.815 187.637 152.897 187.42 153.997 187.303C154.473 187.253 154.932 187.22 155.408 187.22C155.457 187.22 156.146 187.203 156.146 187.287C156.146 187.353 155.424 187.437 155.375 187.437C154.899 187.521 154.423 187.587 153.948 187.688C152.832 187.905 151.749 188.205 150.682 188.573C148.402 189.375 146.236 190.511 144.201 191.831C142.101 193.201 140.148 194.771 138.294 196.475C136.489 198.129 134.767 199.9 133.142 201.738C131.501 203.576 129.943 205.48 128.433 207.435C127.284 208.905 126.185 210.409 125.102 211.929C125.217 211.996 125.447 211.879 125.545 211.829C125.857 211.695 126.169 211.528 126.464 211.361C127.432 210.826 128.367 210.225 129.303 209.64C131.452 208.287 133.634 207 135.899 205.864C136.965 205.33 138.032 204.845 139.131 204.394C140.312 203.91 141.461 203.375 142.61 202.824C144.792 201.771 146.925 200.635 149.091 199.549C149.813 199.182 150.518 198.831 151.224 198.447C151.454 198.33 151.667 198.196 151.88 198.062C151.995 197.979 152.126 197.895 152.225 197.778C152.356 197.595 152.307 197.411 152.126 197.244C151.732 196.876 151.158 196.726 150.65 196.576C150.075 196.408 149.468 196.308 148.91 196.091C150.732 194.621 152.602 193.201 154.702 192.182C156.983 191.062 159.477 190.478 162.004 190.361C163.169 190.311 164.334 190.361 165.515 190.427C165.975 190.461 166.434 190.494 166.893 190.478C167.058 190.478 167.419 190.478 167.501 190.327C167.566 190.21 167.468 190.027 167.419 189.926C167.304 189.692 167.14 189.475 166.976 189.258L166.959 189.241Z" fill="#631E44"/>
<path d="M118.49 210.141C118.375 209.757 118.227 209.373 118.08 209.005C117.653 207.902 117.128 206.833 116.619 205.764C116.045 204.578 115.487 203.375 114.896 202.189C113.797 199.967 112.583 197.795 111.172 195.773C109.826 193.852 108.3 192.064 106.594 190.461C104.855 188.823 102.935 187.336 100.851 186.2C98.6524 184.997 96.2404 184.129 93.7956 183.644C91.2524 183.143 88.6435 183.026 86.0838 183.394C83.5898 183.761 81.1778 184.597 79.012 185.9C78.0603 186.468 77.1743 187.136 76.3539 187.888C75.9109 188.289 75.4843 188.74 75.1233 189.224C74.9592 189.441 74.8115 189.659 74.6967 189.893C74.6474 189.993 74.549 190.177 74.6146 190.294C74.7131 190.461 75.0741 190.444 75.2217 190.444C75.6812 190.444 76.1406 190.427 76.6 190.394C77.765 190.327 78.9299 190.277 80.0949 190.327C82.6217 190.427 85.1158 191.029 87.4129 192.148C89.5131 193.184 91.3836 194.587 93.2049 196.057C92.6471 196.275 92.04 196.375 91.4657 196.542C90.9734 196.692 90.3828 196.843 89.989 197.21C89.8085 197.377 89.7592 197.561 89.8905 197.745C89.9726 197.862 90.1038 197.945 90.2351 198.029C90.4484 198.162 90.6617 198.296 90.8914 198.413C91.597 198.797 92.3189 199.148 93.0244 199.516C95.1903 200.602 97.3233 201.738 99.5056 202.79C100.654 203.341 101.803 203.876 102.984 204.361C104.083 204.812 105.166 205.296 106.217 205.831C108.481 206.967 110.679 208.253 112.813 209.606C113.748 210.191 114.683 210.793 115.651 211.327C115.946 211.494 116.258 211.661 116.57 211.795C116.668 211.845 116.898 211.962 117.013 211.895C115.93 210.375 114.814 208.888 113.682 207.401C112.173 205.446 110.614 203.542 108.973 201.704C107.332 199.866 105.626 198.096 103.821 196.442C101.967 194.754 100.014 193.167 97.914 191.797C95.8795 190.477 93.73 189.325 91.4329 188.539C90.3663 188.172 89.267 187.871 88.1677 187.654C87.6918 187.554 87.216 187.487 86.7402 187.403C86.6909 187.403 85.969 187.32 85.969 187.253C85.969 187.169 86.6581 187.186 86.7074 187.186C87.1832 187.186 87.659 187.219 88.1184 187.27C89.2178 187.387 90.3007 187.604 91.3672 187.888C93.6972 188.506 95.9123 189.508 97.9961 190.711C100.195 191.964 102.246 193.451 104.198 195.072C106.167 196.709 108.038 198.48 109.826 200.334C111.582 202.155 113.256 204.043 114.864 205.998C116.143 207.535 117.39 209.105 118.605 210.709C118.637 210.676 118.605 210.575 118.605 210.525C118.572 210.392 118.539 210.258 118.506 210.124L118.49 210.141Z" fill="#631E44"/>
<path d="M128.531 174.355C127.383 174.506 126.234 174.823 125.397 175.358C123.937 171.064 121.755 167.99 120.869 167.99C119.983 167.99 117.932 171.031 116.537 175.291C115.717 174.79 114.601 174.489 113.501 174.339C110.236 173.904 108.743 176.344 110.007 176.009C111.27 175.692 112.862 176.527 113.452 177.53C114.043 178.532 113.961 179.618 113.944 180.654C113.862 182.041 113.173 186.434 114.371 191.831C115.372 197.227 118.243 203.642 120.606 209.022C120.344 196.709 120.36 177.246 120.901 177.246C121.443 177.246 121.558 196.692 121.361 209.022C123.658 203.375 126.497 196.96 127.53 191.63C128.761 186.284 128.17 182.024 128.105 180.654C128.105 179.618 128.006 178.515 128.597 177.53C129.171 176.527 130.779 175.692 132.043 176.009C133.322 176.327 131.813 173.904 128.548 174.339L128.531 174.355Z" fill="#631E44"/>
<path d="M132.994 185.783C132.666 185.549 132.272 185.466 131.911 185.549C131.55 185.633 131.222 185.85 131.009 186.201C130.894 186.368 130.845 186.568 130.828 186.769C130.812 186.969 130.828 187.153 130.878 187.337C130.976 187.688 131.222 188.005 131.583 188.189C131.928 188.373 132.322 188.406 132.666 188.322C132.83 188.272 132.994 188.206 133.142 188.105C133.29 188.005 133.388 187.871 133.487 187.721C133.667 187.42 133.716 187.053 133.618 186.702C133.536 186.351 133.322 186.017 132.994 185.8V185.783Z" fill="#631E44"/>
<path d="M137.408 181.824C137.342 181.607 137.228 181.406 137.08 181.223C136.932 181.039 136.752 180.888 136.555 180.788C136.456 180.738 136.358 180.688 136.243 180.671C136.145 180.638 136.03 180.621 135.915 180.621C135.702 180.621 135.472 180.638 135.259 180.721C135.144 180.755 135.045 180.805 134.947 180.872C134.848 180.939 134.75 181.005 134.668 181.089C134.323 181.44 134.143 181.891 134.159 182.342C134.176 182.793 134.373 183.227 134.717 183.545C135.078 183.862 135.505 184.013 135.915 184.029C136.341 184.029 136.735 183.912 137.031 183.595C137.096 183.511 137.178 183.445 137.228 183.361C137.293 183.277 137.342 183.194 137.375 183.094C137.457 182.91 137.49 182.693 137.49 182.476C137.49 182.375 137.49 182.258 137.474 182.141C137.474 182.041 137.441 181.924 137.392 181.824H137.408Z" fill="#631E44"/>
<path d="M141.084 176.895C140.837 176.812 140.575 176.778 140.312 176.812C140.181 176.812 140.05 176.845 139.919 176.895C139.787 176.945 139.656 176.995 139.541 177.062C139.295 177.213 139.082 177.396 138.918 177.597C138.754 177.814 138.655 178.065 138.606 178.315C138.491 178.816 138.606 179.368 138.901 179.819C139.213 180.287 139.656 180.587 140.132 180.704C140.362 180.771 140.608 180.788 140.821 180.754C141.051 180.738 141.28 180.671 141.494 180.554C141.592 180.487 141.691 180.42 141.773 180.337C141.855 180.253 141.937 180.17 142.002 180.086C142.15 179.902 142.248 179.685 142.314 179.451C142.445 178.967 142.429 178.432 142.199 177.931C141.97 177.43 141.559 177.046 141.084 176.895Z" fill="#631E44"/>
<path d="M148.089 174.473C147.614 174.106 146.957 173.955 146.301 174.089C146.137 174.123 145.973 174.173 145.825 174.256C145.678 174.323 145.546 174.407 145.415 174.507C145.284 174.59 145.169 174.707 145.07 174.824C145.021 174.874 144.972 174.941 144.923 175.008C144.874 175.075 144.841 175.142 144.808 175.208C144.513 175.743 144.447 176.378 144.644 176.996C144.841 177.614 145.251 178.099 145.71 178.399C145.776 178.433 145.825 178.466 145.891 178.5C145.956 178.533 146.022 178.566 146.071 178.6C146.203 178.65 146.334 178.7 146.449 178.734C146.58 178.767 146.711 178.784 146.842 178.767C146.974 178.767 147.105 178.75 147.236 178.717C147.778 178.6 148.221 178.266 148.533 177.781C148.844 177.313 149.025 176.695 148.959 176.044C148.893 175.392 148.582 174.841 148.089 174.473Z" fill="#631E44"/>
<path d="M155.49 174.323C155.079 173.788 154.439 173.404 153.701 173.354C153.521 173.354 153.34 173.354 153.16 173.354C152.979 173.387 152.815 173.42 152.651 173.487C152.323 173.604 152.027 173.788 151.781 174.022C151.666 174.139 151.552 174.272 151.453 174.406C151.355 174.54 151.289 174.69 151.223 174.857C151.092 175.175 151.043 175.525 151.043 175.876C151.043 176.244 151.125 176.578 151.256 176.895C151.322 177.046 151.388 177.196 151.47 177.33C151.552 177.48 151.65 177.597 151.749 177.731C151.962 177.965 152.192 178.165 152.454 178.299C152.585 178.366 152.717 178.432 152.864 178.466C153.012 178.516 153.16 178.549 153.307 178.549C153.914 178.599 154.505 178.382 154.981 177.965C155.227 177.747 155.44 177.513 155.604 177.213C155.768 176.929 155.9 176.595 155.949 176.244C156.015 175.893 155.998 175.542 155.916 175.208C155.834 174.874 155.686 174.573 155.49 174.306V174.323Z" fill="#631E44"/>
<path d="M162.988 175.408C162.923 175.325 162.857 175.241 162.791 175.158C162.726 175.074 162.644 175.007 162.562 174.924C162.398 174.773 162.217 174.64 162.037 174.523C161.84 174.406 161.626 174.322 161.413 174.239C160.527 173.955 159.608 174.072 158.886 174.506C158.164 174.924 157.639 175.659 157.459 176.544C157.262 177.43 157.426 178.299 157.787 179C158.148 179.702 158.722 180.236 159.461 180.487C159.641 180.554 159.838 180.587 160.018 180.604C160.199 180.621 160.396 180.621 160.576 180.604C160.675 180.604 160.757 180.587 160.855 180.554C160.954 180.537 161.036 180.504 161.134 180.487C161.315 180.437 161.495 180.353 161.676 180.27C162.381 179.919 163.005 179.284 163.349 178.449C163.694 177.614 163.677 176.711 163.349 175.943C163.267 175.742 163.152 175.559 163.037 175.392L162.988 175.408Z" fill="#631E44"/>
<path d="M170.158 177.647C169.223 177.095 168.157 177.012 167.238 177.312C167.008 177.396 166.778 177.496 166.565 177.613C166.352 177.73 166.155 177.88 165.974 178.048C165.613 178.382 165.302 178.783 165.088 179.267C164.859 179.752 164.744 180.253 164.711 180.737C164.694 180.988 164.711 181.222 164.711 181.456C164.727 181.69 164.777 181.923 164.826 182.157C165.072 183.06 165.597 183.828 166.385 184.296C167.172 184.764 168.107 184.847 168.993 184.597C169.879 184.363 170.733 183.795 171.323 182.909C171.914 182.04 172.095 181.005 171.898 180.036C171.701 179.067 171.094 178.181 170.158 177.63V177.647Z" fill="#631E44"/>
<path d="M111.024 186.201C110.811 185.85 110.483 185.616 110.122 185.549C109.761 185.466 109.367 185.549 109.039 185.783C108.71 186.017 108.514 186.351 108.415 186.685C108.333 187.036 108.366 187.404 108.546 187.704C108.645 187.855 108.76 187.988 108.891 188.089C109.022 188.189 109.186 188.256 109.367 188.306C109.711 188.389 110.105 188.356 110.45 188.172C110.811 187.988 111.04 187.688 111.155 187.32C111.204 187.136 111.221 186.953 111.204 186.752C111.188 186.568 111.122 186.368 111.024 186.184V186.201Z" fill="#631E44"/>
<path d="M107.086 180.871C106.988 180.804 106.873 180.754 106.774 180.721C106.561 180.637 106.331 180.604 106.118 180.62C106.003 180.62 105.905 180.637 105.79 180.671C105.691 180.704 105.576 180.737 105.478 180.787C105.281 180.888 105.101 181.038 104.953 181.222C104.805 181.406 104.69 181.606 104.625 181.823C104.592 181.924 104.559 182.04 104.543 182.141C104.526 182.258 104.51 182.358 104.526 182.475C104.526 182.692 104.559 182.893 104.641 183.093C104.674 183.193 104.723 183.277 104.789 183.36C104.854 183.444 104.92 183.527 104.986 183.594C105.281 183.895 105.691 184.029 106.101 184.029C106.512 184.029 106.955 183.878 107.316 183.544C107.66 183.227 107.857 182.792 107.874 182.341C107.874 181.89 107.709 181.439 107.365 181.088C107.283 181.005 107.184 180.921 107.086 180.871Z" fill="#631E44"/>
<path d="M103.115 177.613C102.951 177.396 102.754 177.212 102.492 177.079C102.36 177.012 102.246 176.945 102.114 176.912C101.983 176.861 101.852 176.845 101.72 176.828C101.458 176.811 101.195 176.828 100.949 176.912C100.473 177.062 100.063 177.446 99.8336 177.947C99.6038 178.449 99.5874 178.983 99.7187 179.468C99.7843 179.702 99.8828 179.919 100.03 180.103C100.096 180.203 100.178 180.27 100.26 180.353C100.342 180.437 100.441 180.504 100.539 180.57C100.752 180.687 100.966 180.754 101.212 180.771C101.442 180.788 101.671 180.771 101.901 180.721C102.36 180.587 102.82 180.286 103.132 179.835C103.443 179.384 103.542 178.833 103.427 178.332C103.378 178.081 103.263 177.83 103.115 177.613Z" fill="#631E44"/>
<path d="M97.1098 174.99C97.1098 174.99 97.0114 174.873 96.9622 174.807C96.8637 174.69 96.7489 174.589 96.6176 174.489C96.4863 174.389 96.3551 174.305 96.2074 174.239C96.0597 174.172 95.8957 174.105 95.7316 174.072C95.0753 173.938 94.4189 174.088 93.9431 174.456C93.4673 174.823 93.1391 175.375 93.0735 176.026C93.0078 176.678 93.1883 177.296 93.5001 177.764C93.8118 178.231 94.2549 178.582 94.7963 178.699C94.9276 178.733 95.0588 178.749 95.1901 178.749C95.3214 178.749 95.4526 178.749 95.5839 178.716C95.7152 178.683 95.8464 178.649 95.9613 178.582C96.0269 178.549 96.0926 178.515 96.1418 178.482C96.2074 178.449 96.2566 178.415 96.3223 178.382C96.7981 178.081 97.1919 177.597 97.3888 176.978C97.5857 176.36 97.52 175.725 97.2247 175.191C97.1919 175.124 97.1427 175.057 97.1098 174.99Z" fill="#631E44"/>
<path d="M90.5793 174.422C90.4808 174.289 90.3824 174.155 90.2511 174.038C90.005 173.804 89.7096 173.604 89.3815 173.503C89.2174 173.437 89.0533 173.403 88.8728 173.37C88.6923 173.336 88.5119 173.336 88.3314 173.37C87.5766 173.42 86.9367 173.804 86.5429 174.339C86.346 174.606 86.1983 174.907 86.1163 175.241C86.0342 175.575 86.0178 175.926 86.0835 176.277C86.1491 176.628 86.264 176.962 86.428 177.246C86.5921 177.53 86.8054 177.78 87.0515 177.998C87.5274 178.415 88.1181 178.632 88.7252 178.582C88.8728 178.582 89.0205 178.549 89.1682 178.499C89.3159 178.465 89.4471 178.398 89.5784 178.332C89.8409 178.181 90.087 177.998 90.2839 177.764C90.3824 177.647 90.4808 177.513 90.5629 177.363C90.6449 177.229 90.7269 177.079 90.7762 176.928C90.9074 176.611 90.9731 176.277 90.9895 175.909C90.9895 175.542 90.9402 175.208 90.809 174.89C90.7434 174.74 90.6613 174.573 90.5793 174.439V174.422Z" fill="#631E44"/>
<path d="M83.1632 174.523C82.4413 174.088 81.5224 173.971 80.6364 174.255C80.4231 174.339 80.2098 174.422 80.0129 174.539C79.816 174.656 79.6355 174.79 79.4878 174.94C79.4058 175.007 79.3402 175.091 79.2581 175.174C79.1925 175.258 79.1269 175.341 79.0612 175.425C78.93 175.592 78.8315 175.776 78.7495 175.976C78.4049 176.745 78.3885 177.647 78.7495 178.482C79.094 179.318 79.7176 179.952 80.4231 180.303C80.6036 180.387 80.7841 180.47 80.9646 180.52C81.063 180.554 81.1451 180.571 81.2435 180.587C81.3419 180.604 81.424 180.621 81.5224 180.637C81.7029 180.654 81.8998 180.654 82.0803 180.637C82.2608 180.637 82.4577 180.587 82.6382 180.52C83.3765 180.287 83.9344 179.735 84.3118 179.034C84.6728 178.332 84.8369 177.463 84.64 176.578C84.4595 175.692 83.9344 174.957 83.2125 174.539L83.1632 174.523Z" fill="#631E44"/>
<path d="M76.0583 178.048C75.8779 177.88 75.681 177.73 75.4677 177.613C75.2543 177.496 75.041 177.396 74.7949 177.312C73.8761 177.012 72.7931 177.095 71.8579 177.647C70.9226 178.198 70.3155 179.083 70.1186 180.052C69.9053 181.021 70.1022 182.04 70.6929 182.926C71.2836 183.795 72.1368 184.363 73.0229 184.613C73.9089 184.847 74.8442 184.78 75.6317 184.313C76.4193 183.845 76.9444 183.076 77.1905 182.174C77.2561 181.957 77.2889 181.706 77.3218 181.472C77.3382 181.239 77.3546 180.988 77.3218 180.754C77.2889 180.27 77.1577 179.768 76.9444 179.284C76.7147 178.799 76.4193 178.398 76.0583 178.064V178.048Z" fill="#631E44"/>
<path d="M140.23 149.529C140.148 149.413 140.099 149.362 140.099 149.346C140.099 149.362 140.181 149.446 140.23 149.529Z" fill="#631E44"/>
<path d="M140.23 149.53C139.738 148.878 139.065 148.594 138.229 148.628C138.196 148.628 138.163 148.628 138.147 148.628C136.588 148.728 135.111 149.747 133.93 150.716C132.617 151.802 131.469 153.072 130.435 154.425C128.384 157.148 126.727 160.306 125.808 163.614C125.151 165.902 125.086 167.54 125.463 167.723C125.644 167.824 125.906 167.657 126.054 167.556C126.398 167.356 126.694 167.089 126.989 166.838C128.22 165.769 129.352 164.599 130.5 163.446C131.764 162.193 133.011 160.94 134.274 159.687C135.554 158.434 136.834 157.181 138.015 155.828C139.065 154.642 140.28 153.272 140.641 151.685C140.821 150.916 140.706 150.165 140.214 149.513L140.23 149.53Z" fill="#631E44"/>
<path d="M140.23 149.547C140.23 149.547 140.329 149.681 140.362 149.714C140.345 149.681 140.313 149.63 140.23 149.547Z" fill="#631E44"/>
<path d="M157.18 163.797C157.098 164.198 157.262 163.396 157.18 163.797V163.797Z" fill="#631E44"/>
<path d="M156.36 161.626C155.654 160.991 154.538 160.49 153.144 160.222C153.029 160.206 152.914 160.172 152.799 160.156C149.435 159.588 145.875 160.306 142.79 161.676C139.738 163.029 136.949 165.067 134.849 167.707C133.995 168.793 133.405 169.795 133.093 170.564C132.929 170.931 132.83 171.265 132.798 171.499C132.765 171.733 132.781 171.9 132.863 171.967C132.945 172.034 133.109 172.034 133.323 171.967C133.815 171.85 134.274 171.583 134.734 171.366C135.242 171.115 135.735 170.865 136.227 170.631C139.361 169.094 142.642 167.974 146.055 167.289C147.778 166.955 149.501 166.721 151.24 166.504C152.733 166.304 154.374 166.187 155.736 165.502C156.113 165.301 156.425 165.084 156.671 164.8C156.917 164.516 157.098 164.182 157.18 163.781C157.262 163.38 157.246 162.996 157.114 162.628C156.983 162.277 156.737 161.91 156.376 161.609L156.36 161.626Z" fill="#631E44"/>
<path d="M101.803 149.547C101.737 149.63 101.704 149.681 101.671 149.714C101.704 149.681 101.753 149.614 101.803 149.547Z" fill="#631E44"/>
<path d="M116.192 163.547C115.257 160.239 113.6 157.081 111.532 154.358C110.499 153.005 109.35 151.735 108.021 150.666C106.84 149.697 105.347 148.711 103.788 148.644C102.967 148.611 102.278 148.895 101.786 149.546C101.294 150.198 101.195 150.933 101.359 151.718C101.622 152.904 102.393 153.94 103.132 154.859C104.231 156.229 105.461 157.482 106.708 158.718C107.972 159.988 109.252 161.241 110.515 162.494C111.713 163.68 112.911 164.9 114.141 166.069C114.634 166.537 115.126 167.005 115.667 167.389C115.864 167.523 116.274 167.874 116.537 167.74C116.914 167.556 116.832 165.919 116.192 163.63C116.192 163.597 116.192 163.58 116.176 163.547H116.192Z" fill="#631E44"/>
<path d="M101.803 149.529C101.803 149.529 101.918 149.362 101.934 149.346C101.934 149.346 101.885 149.413 101.803 149.529Z" fill="#631E44"/>
<path d="M108.956 170.564C108.645 169.812 108.054 168.809 107.201 167.707C107.135 167.623 107.053 167.523 106.987 167.439C104.838 164.833 101.983 162.778 98.8819 161.509C95.7644 160.222 92.2366 159.554 88.9058 160.222C87.4947 160.506 86.379 161.007 85.6898 161.625C85.3453 161.926 85.0827 162.277 84.9515 162.645C84.8202 163.012 84.7874 163.38 84.8694 163.797C84.9515 164.198 85.132 164.532 85.3781 164.816C85.6242 165.1 85.936 165.318 86.3133 165.518C87.3306 166.019 88.4792 166.186 89.5785 166.353C91.2686 166.604 92.9586 166.788 94.6486 167.055C96.3879 167.339 98.1271 167.74 99.8172 168.241C101.458 168.743 103.066 169.361 104.641 170.079C105.396 170.413 106.118 170.781 106.856 171.148C107.447 171.449 108.07 171.817 108.727 171.984C108.956 172.05 109.104 172.05 109.186 171.984C109.268 171.917 109.285 171.75 109.252 171.516C109.219 171.282 109.121 170.965 108.956 170.58V170.564Z" fill="#631E44"/>
<path d="M121.016 138.921C114.535 138.921 119.293 165.234 121.016 165.234C122.739 165.234 127.497 138.921 121.016 138.921Z" fill="#631E44"/>
<path d="M231.984 144.601C231.016 142.83 229.605 141.327 227.948 140.208C225.175 138.336 221.778 137.601 218.497 138.136C214.378 138.821 210.834 141.444 208.242 144.685C204.435 149.446 202.351 155.594 201.301 161.575C200.579 165.702 200.267 169.879 200.235 174.072C200.202 178.466 200.481 182.843 200.727 187.237C201.203 195.607 201.547 204.06 199.677 212.297C199.168 214.552 198.479 216.741 197.757 218.913C197.084 220.934 196.182 222.889 195.525 224.91C200.563 220.333 203.45 213.817 204.812 207.185C206.404 199.349 206.043 191.347 205.698 183.411C205.321 174.506 204.976 165.385 207.421 156.714C208.553 152.687 210.243 148.695 213.148 145.654C214.542 144.2 216.2 142.981 218.119 142.346C220.121 141.661 222.287 141.678 224.289 142.396C224.354 142.43 224.436 142.446 224.502 142.48C225.716 142.947 226.651 143.599 227.341 144.184C227.734 144.535 228.112 144.919 228.44 145.336C228.522 145.437 229.162 146.305 229.08 146.356C229.063 146.372 228.391 145.537 228.309 145.437C227.964 145.052 227.587 144.685 227.177 144.368C226.487 143.816 225.552 143.231 224.371 142.83C223.189 142.43 221.745 142.196 220.203 142.413C216.085 142.964 213 146.322 211.064 149.831C208.996 153.573 207.897 157.933 207.29 162.16C206.027 171.098 206.962 180.103 207.356 189.075C207.536 193.268 207.651 197.511 207.241 201.688C206.929 204.879 206.404 207.987 205.6 211.094C204.09 216.824 201.104 222.338 196.789 226.364C200.743 225.295 203.795 222.137 206.076 218.829C208.439 215.404 209.948 211.411 210.982 207.385C213.197 198.831 212.705 189.776 212.311 181.039C211.933 172.552 211.359 163.697 213.87 155.444C214.592 153.072 215.592 150.749 217.2 148.862C217.89 148.06 218.628 147.425 219.383 147.007C220.121 146.589 220.892 146.389 221.729 146.322C222.549 146.289 223.452 146.473 224.239 146.84C225.027 147.208 225.716 147.742 226.258 148.411C226.816 149.095 227.209 149.948 227.439 150.85C227.652 151.735 227.685 152.637 227.554 153.539C227.406 154.392 227.062 155.244 226.602 155.929C226.126 156.63 225.536 157.182 224.896 157.549C224.256 157.9 223.501 158.084 222.779 158.084C221.729 158.084 220.794 157.716 219.973 157.048C219.973 157.065 219.941 156.998 220.006 157.098C219.317 156.346 218.858 155.511 218.726 154.475C218.661 153.874 218.677 153.222 218.874 152.637C218.956 152.353 219.055 152.086 219.169 151.835C219.219 151.735 219.53 151.267 219.432 151.15C219.399 151.117 219.301 151.134 219.137 151.217C218.447 151.551 217.988 152.203 217.627 152.854C217.381 153.356 217.168 153.991 217.086 154.742C216.839 156.948 217.857 159.053 219.612 160.339C221.516 161.742 224.075 162.11 226.323 161.458C227.718 161.057 229.063 160.256 230.179 159.153C231.295 158.067 232.197 156.697 232.804 155.093C233.395 153.506 233.658 151.735 233.543 149.948C233.428 148.16 232.936 146.322 232 144.601H231.984Z" fill="#631E44"/>
<path d="M42.3563 212.279C40.4858 204.043 40.8304 195.589 41.3062 187.219C41.5523 182.842 41.8477 178.448 41.7984 174.054C41.7656 169.861 41.4539 165.684 40.7319 161.558C39.6818 155.577 37.598 149.429 33.7913 144.667C31.1988 141.426 27.6547 138.803 23.5363 138.118C20.2547 137.584 16.8582 138.319 14.0853 140.19C12.428 141.309 11.017 142.813 10.0489 144.584C9.11362 146.305 8.62138 148.142 8.50653 149.93C8.37526 151.718 8.6542 153.488 9.24489 155.076C9.85199 156.663 10.7544 158.033 11.8702 159.135C12.9859 160.221 14.315 161.023 15.7261 161.441C17.974 162.092 20.5336 161.708 22.4369 160.322C24.1926 159.035 25.2099 156.947 24.9638 154.725C24.8817 153.973 24.6684 153.338 24.4223 152.837C24.0613 152.185 23.6019 151.517 22.9128 151.2C22.7323 151.116 22.6338 151.099 22.6174 151.133C22.519 151.25 22.8307 151.701 22.88 151.818C23.0112 152.085 23.0933 152.352 23.1753 152.62C23.3722 153.188 23.3886 153.856 23.323 154.457C23.2081 155.493 22.7323 156.329 22.0432 157.08C22.1088 156.98 22.0596 157.047 22.076 157.03C21.2556 157.699 20.3203 158.049 19.2702 158.066C18.5318 158.066 17.7771 157.882 17.1372 157.531C16.4972 157.164 15.8901 156.613 15.4307 155.911C14.9549 155.226 14.6267 154.374 14.4791 153.522C14.3314 152.62 14.3642 151.718 14.5939 150.832C14.8072 149.947 15.2174 149.078 15.7753 148.393C16.3168 147.708 17.0223 147.173 17.7935 146.823C18.5811 146.455 19.4835 146.271 20.3039 146.305C21.1407 146.388 21.9119 146.572 22.6503 146.99C23.405 147.407 24.1434 148.042 24.8325 148.844C26.4405 150.732 27.4414 153.054 28.1634 155.426C30.6738 163.663 30.1159 172.517 29.7385 181.021C29.3447 189.759 28.8361 198.814 31.0676 207.368C32.1177 211.377 33.6108 215.387 35.9736 218.812C38.2543 222.12 41.3062 225.277 45.2605 226.346C40.9452 222.337 37.959 216.807 36.4494 211.076C35.629 207.969 35.104 204.862 34.8086 201.671C34.4148 197.494 34.5133 193.25 34.6938 189.057C35.0875 180.086 36.0228 171.081 34.7594 162.143C34.1687 157.916 33.053 153.555 30.9855 149.813C29.0494 146.305 25.9483 142.947 21.8463 142.395C20.2875 142.178 18.8436 142.412 17.6786 142.813C16.4972 143.231 15.562 143.815 14.8728 144.35C14.4626 144.667 14.0853 145.035 13.7407 145.419C13.6587 145.519 12.9859 146.355 12.9695 146.338C12.9039 146.288 13.5438 145.419 13.6094 145.319C13.9376 144.901 14.315 144.517 14.7088 144.166C15.3979 143.565 16.3332 142.93 17.5474 142.462C17.613 142.429 17.695 142.412 17.7607 142.379C19.7624 141.677 21.9283 141.66 23.9301 142.328C25.8334 142.98 27.507 144.183 28.9017 145.636C31.8059 148.694 33.496 152.67 34.6281 156.696C37.0729 165.35 36.7284 174.489 36.351 183.393C36.0064 191.329 35.6618 199.348 37.237 207.167C38.5989 213.8 41.5031 220.315 46.5239 224.893C45.8676 222.855 44.9652 220.917 44.2925 218.895C43.5541 216.707 42.8814 214.535 42.3727 212.279H42.3563Z" fill="#631E44"/>
<path d="M225.224 182.592C225.224 182.592 225.257 182.525 225.273 182.492L225.322 182.408C225.322 182.408 225.273 182.508 225.208 182.609H225.224V182.592Z" fill="#631E44"/>
<path d="M234.068 193.001C234.068 193.001 234.051 193.018 234.085 192.983V193.001H234.068Z" fill="#631E44"/>
<path d="M250 188.188V188.138L249.984 188.038L249.934 187.637L249.82 186.818C249.77 186.534 249.77 186.3 249.688 185.966L249.409 184.88C249.048 183.343 248.458 182.174 247.883 180.921C247.178 179.751 246.472 178.548 245.521 177.529C243.683 175.458 241.435 173.67 238.777 172.734L238.531 172.634L238.416 172.584H238.35L238.318 172.551L238.006 172.45L237.612 172.35L236.824 172.15L236.037 171.949C235.692 171.899 235.299 171.866 234.921 171.832C234.183 171.782 233.362 171.665 232.706 171.732C232.033 171.799 231.377 171.849 230.721 171.916C228.128 172.384 225.667 173.353 223.583 174.906C223.058 175.274 222.599 175.758 222.123 176.193L221.417 176.861L220.81 177.629L220.236 178.415L219.957 178.799L219.809 178.999L219.777 179.05L219.612 179.317L219.563 179.4C219.35 179.851 219.12 180.286 218.907 180.737C217.791 183.377 217.561 185.766 217.758 188.138C217.939 190.51 218.874 192.766 220.203 194.637L220.745 195.305L221.007 195.639L221.138 195.806L221.171 195.84L221.319 195.99L221.385 196.04L221.86 196.475C221.975 196.592 222.32 196.859 222.549 197.026C223.55 197.778 224.436 198.212 225.437 198.58C227.373 199.298 229.359 199.432 231.213 199.148C233.051 198.88 234.773 198.095 236.119 197.009C236.463 196.759 236.759 196.424 237.054 196.124L237.169 196.007L237.218 195.957L237.333 195.84L237.35 195.806L237.497 195.606L237.776 195.222C237.989 194.921 238.252 194.453 238.449 194.086C238.613 193.718 238.744 193.367 238.892 193.016C239.827 190.126 239.253 187.603 238.449 185.849C237.579 184.078 236.332 183.076 235.446 182.675C234.544 182.257 233.986 182.341 233.904 182.525C233.641 183.009 235.315 184.011 235.906 186.785C236.152 188.138 236.135 189.942 235.299 191.496C235.184 191.68 235.069 191.864 234.954 192.047C234.823 192.181 234.79 192.265 234.609 192.465L234.281 192.799L234.117 192.966C234.117 192.966 234.052 193.05 234.101 193V192.983C234.134 192.95 234.183 192.899 234.166 192.899H234.134L234.068 192.966C233.871 193.1 233.723 193.25 233.51 193.35C232.722 193.818 231.754 194.136 230.671 194.152C229.605 194.186 228.44 193.985 227.423 193.467C227.16 193.367 226.93 193.183 226.668 193.066C226.455 192.899 226.159 192.716 226.061 192.582C225.962 192.482 225.946 192.515 225.782 192.331L225.339 191.864L225.29 191.813C225.29 191.813 225.388 191.93 225.372 191.914V191.88L225.306 191.78L225.191 191.596L224.945 191.229C224.354 190.21 223.879 188.99 223.879 187.603C223.829 186.25 224.157 184.763 224.584 183.778C224.797 183.377 225.027 182.976 225.24 182.575H225.224C225.224 182.575 225.306 182.441 225.339 182.391V182.374C225.29 182.458 225.404 182.257 225.339 182.391L225.29 182.474C225.29 182.474 225.257 182.541 225.24 182.575L225.322 182.474L225.487 182.274L225.815 181.873L226.143 181.455L226.569 181.104C226.865 180.887 227.094 180.603 227.406 180.403C228.637 179.551 230.146 179.033 231.689 178.766C232.083 178.749 232.476 178.715 232.87 178.682C233.28 178.632 233.526 178.749 233.855 178.732C234.019 178.732 234.166 178.732 234.347 178.732L235.134 178.933L235.922 179.133L236.103 179.183H236.07L236.053 179.166C235.988 179.15 236.578 179.317 236.316 179.25L236.103 179.2L236.168 179.233L236.299 179.3C237.793 179.818 239.122 180.921 240.254 182.19C240.861 182.809 241.271 183.577 241.747 184.295C242.091 185.081 242.518 185.899 242.649 186.534L242.83 187.035C242.895 187.236 242.912 187.553 242.961 187.821L243.076 188.639L243.125 189.023V188.973V188.957C243.092 188.723 243.158 189.257 243.158 189.19V189.14L243.142 189.04V189.124V190.377C243.142 190.794 243.043 191.212 243.01 191.63C242.748 193.267 242.256 194.921 241.402 196.341L241.107 196.892L240.746 197.393C240.516 197.711 240.287 198.095 240.04 198.379C239.548 198.897 239.236 199.432 238.367 200.117L237.825 200.601L237.694 200.718L237.661 200.752L237.71 200.718C237.71 200.718 237.875 200.584 237.563 200.835H237.579L237.612 200.785L237.645 200.752L237.432 200.902C237.071 201.152 236.71 201.386 236.349 201.637C235.627 202.121 234.954 202.639 234.199 203.074C232.657 203.909 231.246 204.778 229.687 205.513C228.145 206.281 226.651 207.033 225.224 207.752C224.502 208.119 223.78 208.487 223.091 208.838C222.402 209.222 221.713 209.606 221.056 209.974C220.4 210.341 219.76 210.709 219.137 211.076C218.513 211.444 217.939 211.878 217.365 212.262C216.232 213.064 215.133 213.733 214.181 214.535C213.246 215.353 212.393 216.105 211.589 216.807C210.801 217.508 210.096 218.143 209.587 218.811C207.438 221.368 206.404 222.955 206.732 223.306C207.06 223.673 208.701 222.771 211.408 220.85C212.065 220.332 212.852 219.897 213.689 219.413C214.51 218.928 215.396 218.394 216.347 217.809C217.299 217.241 218.431 216.757 219.547 216.155C220.121 215.871 220.679 215.554 221.302 215.27C221.926 215.002 222.566 214.735 223.222 214.451C223.879 214.167 224.551 213.883 225.224 213.582C225.93 213.298 226.651 213.014 227.39 212.73C228.883 212.129 230.442 211.494 232.05 210.859C233.674 210.241 235.381 209.339 237.12 208.52C237.989 208.069 238.843 207.501 239.729 206.983C240.172 206.716 240.615 206.448 241.058 206.164L241.386 205.964L241.829 205.613L242.403 205.162C243.109 204.678 244.077 203.675 244.946 202.74C245.357 202.272 245.685 201.787 246.062 201.303L246.604 200.568L247.063 199.783C248.376 197.711 249.245 195.288 249.688 192.732C249.77 192.081 249.918 191.446 249.934 190.778C249.934 190.109 249.934 189.441 249.951 188.773V188.522V188.489C249.967 188.706 249.918 188.155 249.918 188.205L250 188.188Z" fill="#631E44"/>
<path d="M236.086 179.2H236.119L236.332 179.267C236.595 179.351 236.004 179.167 236.07 179.184H236.086V179.2Z" fill="#631E44"/>
<path d="M5.70047 179.267L5.91378 179.217H5.94659L5.963 179.2C6.02863 179.184 5.43794 179.351 5.70047 179.284V179.267Z" fill="#631E44"/>
<path d="M30.4113 216.79C29.6073 216.088 28.7541 215.336 27.8189 214.518C26.8672 213.716 25.7679 213.048 24.6357 212.246C24.0614 211.861 23.4872 211.444 22.8636 211.06C22.2401 210.709 21.6002 210.341 20.9275 209.957C20.2712 209.589 19.582 209.205 18.8929 208.821C18.2038 208.47 17.4818 208.102 16.7599 207.735C15.3324 207.017 13.8392 206.281 12.2969 205.496C10.7381 204.761 9.32701 203.876 7.78466 203.057C7.0463 202.623 6.37357 202.088 5.63521 201.62C5.27423 201.37 4.91325 201.136 4.55227 200.885L4.33897 200.735L4.37179 200.768L4.4046 200.802H4.42101C4.10926 200.568 4.33897 200.752 4.27334 200.701L4.32256 200.735L4.28975 200.701L4.15848 200.584L3.61702 200.1C2.74739 199.415 2.43564 198.897 1.9434 198.362C1.71368 198.078 1.48397 197.694 1.23785 197.377L0.876873 196.876L0.581529 196.324C-0.271689 194.887 -0.780339 193.25 -1.04287 191.613C-1.07568 191.195 -1.17413 190.778 -1.17413 190.36V189.107V189.157C-1.17413 189.157 -1.12491 188.673 -1.15772 188.923V188.99L-1.1085 188.606L-0.993643 187.787C-0.944419 187.537 -0.928011 187.202 -0.862379 187.002L-0.68189 186.501C-0.534218 185.866 -0.124017 185.047 0.220551 184.262C0.696385 183.544 1.10659 182.775 1.71368 182.157C2.84584 180.887 4.1913 179.785 5.66802 179.267L5.79928 179.2L5.86492 179.166L5.65161 179.217C5.38908 179.3 5.97977 179.116 5.91414 179.133H5.89773L5.86492 179.15L6.04541 179.1L6.83299 178.899L7.62058 178.699C7.80107 178.699 7.94874 178.699 8.11282 178.699C8.44098 178.699 8.6871 178.598 9.0973 178.649C9.49109 178.682 9.88489 178.715 10.2787 178.732C11.821 178.999 13.3306 179.517 14.5612 180.369C14.8729 180.57 15.1191 180.837 15.4144 181.071L15.841 181.422L16.1692 181.84L16.4973 182.241L16.6614 182.441L16.7434 182.541C16.7434 182.541 16.7106 182.491 16.6942 182.458L16.645 182.374C16.645 182.374 16.6286 182.324 16.645 182.357C16.645 182.357 16.6942 182.458 16.7599 182.575C16.9896 182.959 17.2029 183.36 17.4162 183.761C17.8428 184.747 18.1709 186.25 18.1217 187.587C18.1217 188.973 17.6459 190.193 17.0552 191.212L16.8091 191.58L16.6942 191.763L16.6286 191.864V191.897C16.5958 191.93 16.8255 191.697 16.727 191.797L16.6778 191.864L16.2348 192.331C16.0707 192.515 16.0543 192.482 15.9559 192.582C15.841 192.716 15.5621 192.899 15.3488 193.066C15.1026 193.2 14.8729 193.367 14.594 193.467C13.5603 193.969 12.4117 194.186 11.3452 194.152C10.2623 194.136 9.31061 193.802 8.50661 193.35C8.29331 193.25 8.12923 193.083 7.94874 192.966L7.88311 192.916H7.85029C7.85029 192.916 7.88311 192.933 7.93233 192.983C7.96515 193.016 7.98155 193.033 7.93233 192.983L7.91592 192.966L7.75184 192.799L7.42368 192.465C7.2596 192.265 7.21038 192.181 7.07911 192.047C6.96426 191.864 6.8494 191.68 6.73454 191.496C5.89773 189.942 5.88132 188.138 6.12745 186.785C6.71813 184.011 8.39175 183.009 8.12923 182.525C8.04719 182.324 7.48931 182.241 6.58687 182.675C5.68443 183.076 4.45383 184.078 3.5842 185.849C2.7638 187.603 2.20592 190.126 3.14118 193.016C3.27245 193.367 3.42012 193.718 3.5842 194.086C3.7811 194.453 4.06003 194.921 4.27334 195.222L4.55227 195.606L4.69995 195.806V195.84H4.73276L4.84762 195.957L4.89684 196.007L5.0117 196.124C5.30704 196.424 5.60239 196.742 5.94696 197.009C7.29242 198.095 9.01526 198.897 10.853 199.148C12.6907 199.432 14.676 199.281 16.6286 198.58C17.6295 198.212 18.5155 197.778 19.5164 197.026C19.7461 196.859 20.0743 196.592 20.2055 196.475L20.6814 196.04L20.747 195.99L20.8947 195.84L20.9275 195.806L21.0588 195.639L21.3213 195.305L21.8628 194.637C23.1918 192.782 24.1107 190.51 24.3076 188.138C24.5045 185.766 24.2747 183.377 23.159 180.737C22.9457 180.303 22.716 179.851 22.5027 179.4L22.4534 179.317L22.2894 179.05L22.2565 178.999L22.1089 178.799L21.8299 178.415L21.2557 177.629L20.6486 176.861L19.943 176.193C19.4672 175.758 19.0078 175.274 18.4663 174.906C16.3825 173.353 13.9213 172.384 11.3288 171.916C10.6725 171.849 9.99974 171.782 9.34342 171.732C8.6871 171.665 7.8667 171.782 7.12834 171.832C6.75095 171.866 6.35716 171.899 6.01259 171.949L5.225 172.15L4.43742 172.35L4.04362 172.45L3.73187 172.551H3.69906L3.63342 172.584L3.51857 172.634L3.27245 172.734C0.630753 173.67 -1.63356 175.458 -3.47126 177.529C-4.42292 178.565 -5.12847 179.751 -5.83401 180.921C-6.4083 182.174 -6.99899 183.36 -7.35996 184.88L-7.6389 185.966C-7.72094 186.3 -7.72094 186.534 -7.77016 186.818L-7.88502 187.637L-7.93424 188.038V188.138L-7.95065 188.188C-7.95065 188.138 -7.99988 188.706 -7.98347 188.472V188.506V188.756C-7.98347 189.424 -7.98347 190.093 -7.96706 190.761C-7.95065 191.429 -7.80298 192.064 -7.72094 192.716C-7.26151 195.272 -6.39189 197.694 -5.09565 199.766L-4.63623 200.551L-4.09476 201.286C-3.71738 201.771 -3.38922 202.238 -2.97902 202.723C-2.10939 203.642 -1.14132 204.661 -0.43577 205.145L0.138512 205.596L0.581529 205.947L0.909689 206.148C1.35271 206.415 1.79572 206.699 2.23874 206.966C3.12477 207.484 3.97799 208.052 4.84762 208.503C6.58687 209.322 8.30972 210.224 9.9177 210.842C11.5257 211.494 13.0845 212.112 14.5776 212.713C15.3159 212.998 16.0379 213.282 16.7434 213.566C17.4326 213.866 18.0889 214.15 18.7452 214.434C19.4015 214.718 20.0415 214.986 20.665 215.253C21.2885 215.537 21.8463 215.854 22.4206 216.138C23.5364 216.723 24.6849 217.224 25.6202 217.792C26.5719 218.36 27.4579 218.895 28.2783 219.396C29.1151 219.881 29.8863 220.298 30.559 220.833C33.2663 222.754 34.9236 223.656 35.2353 223.289C35.5635 222.921 34.5298 221.334 32.3803 218.795C31.8717 218.126 31.1661 217.492 30.3785 216.79H30.4113Z" fill="#631E44"/>
<path d="M16.7107 182.408L16.76 182.492C16.76 182.492 16.7928 182.559 16.8092 182.592C16.7436 182.492 16.7107 182.442 16.6943 182.408H16.7107Z" fill="#631E44"/>
<path d="M121.016 76.0701C120.015 75.0844 117.472 74.0486 115.733 76.8887C117.784 77.7073 121.016 82.3685 121.016 82.3685C121.016 82.3685 124.249 77.7073 126.3 76.8887C124.56 74.0319 122.001 75.0844 121.016 76.0701Z" fill="#631E44"/>
<path d="M167.664 79.9456C166.27 76.1532 163.612 72.9121 160.494 70.4396C157.048 67.6997 152.914 66.0123 148.582 65.3941C146.482 65.0934 144.365 65.1101 142.248 65.2772C140.099 65.461 137.999 65.9956 135.931 66.597C132.239 67.7999 128.892 69.671 125.709 71.893C127.153 71.609 128.58 71.325 130.024 71.0911C134.143 70.4396 138.409 70.4061 142.527 71.1078C146.826 71.893 150.846 73.547 154.472 76.0029C154.21 75.8191 154.029 75.7022 154.571 76.0697C155.129 76.454 154.915 76.3036 154.636 76.1198C156.819 77.6234 158.771 79.4612 160.51 81.466C161.314 82.3848 162.069 83.3371 162.84 84.2894C163.513 85.1414 164.219 86.0436 165.105 86.6617C165.679 87.0627 166.253 87.2131 166.795 87.0961C167.336 86.9792 167.796 86.645 168.107 85.8932C168.419 85.1581 168.55 84.0221 168.304 82.4182C168.173 81.5662 167.927 80.7309 167.632 79.9289L167.664 79.9456Z" fill="#631E44"/>
<path d="M154.489 76.0195C154.489 76.0195 154.604 76.0864 154.653 76.1365C154.636 76.1365 154.604 76.1031 154.587 76.0864C154.554 76.0697 154.522 76.0529 154.489 76.0195Z" fill="#631E44"/>
<path d="M99.7844 65.2939C97.6678 65.1101 95.5512 65.1101 93.4509 65.4108C89.1192 66.0122 84.9844 67.7163 81.5387 70.4562C78.4212 72.9288 75.7631 76.1699 74.3684 79.9623C74.073 80.7642 73.8433 81.5996 73.6957 82.4516C73.4495 84.0387 73.5808 85.1748 73.8925 85.9266C74.2043 86.6784 74.6637 87.0125 75.2052 87.1295C75.7467 87.2297 76.3209 87.0961 76.8952 86.6951C77.7977 86.077 78.4868 85.1748 79.1759 84.3228C79.9471 83.3705 80.7019 82.4182 81.5059 81.4993C83.2451 79.4945 85.1977 77.6568 87.3964 76.1532C87.1174 76.3537 86.8877 76.504 87.4456 76.1198C88.0035 75.7522 87.8066 75.8859 87.5276 76.0697C91.1702 73.6138 95.1902 71.9598 99.4891 71.1746C103.608 70.4562 107.874 70.4896 111.992 71.1579C113.436 71.3918 114.88 71.6758 116.307 71.9598C113.124 69.7545 109.777 67.8667 106.102 66.6638C104.034 66.0624 101.934 65.5277 99.7844 65.344V65.2939Z" fill="#631E44"/>
<path d="M87.3965 76.1198C87.3965 76.1198 87.4949 76.0529 87.5278 76.0195C87.4949 76.0362 87.4785 76.0529 87.4457 76.0696C87.4293 76.0696 87.4129 76.1031 87.3965 76.1031V76.1198Z" fill="#631E44"/>
<path d="M163.677 58.9122C160.691 56.2224 156.835 54.6353 152.946 53.9503C148.631 53.1818 144.201 53.6663 140.099 55.2033C138.097 55.9551 136.243 56.9742 134.454 58.1437C132.633 59.3299 131.042 60.8168 129.499 62.3371C126.792 65.1605 124.708 68.4183 122.936 71.8933C124.068 70.9577 125.217 70.0222 126.382 69.12C129.713 66.5639 133.47 64.4923 137.424 63.1557C141.576 61.8025 145.891 61.3347 150.239 61.7524C149.927 61.7189 149.681 61.7022 150.337 61.7524C150.977 61.8192 150.78 61.8025 150.469 61.7691C153.078 62.0531 155.621 62.738 158.066 63.6736C159.198 64.108 160.314 64.5758 161.429 65.0603C162.414 65.4779 163.447 65.9457 164.53 66.0627C165.236 66.1462 165.794 65.9959 166.22 65.645C166.647 65.2942 166.893 64.7763 166.828 63.9576C166.762 63.1557 166.352 62.0865 165.4 60.8001C164.891 60.1151 164.301 59.497 163.661 58.9289L163.677 58.9122Z" fill="#631E44"/>
<path d="M150.239 61.752C150.239 61.752 150.403 61.7687 150.485 61.7854C150.436 61.7854 150.387 61.7854 150.354 61.7687C150.321 61.7687 150.288 61.7687 150.256 61.7687L150.239 61.752Z" fill="#631E44"/>
<path d="M91.5474 61.7687C91.5474 61.7687 91.7114 61.7687 91.7935 61.752C91.7607 61.752 91.7279 61.752 91.695 61.752C91.6458 61.752 91.613 61.752 91.5638 61.7687H91.5474Z" fill="#631E44"/>
<path d="M107.578 58.1437C105.79 56.9742 103.936 55.9551 101.934 55.2033C97.8318 53.6663 93.4017 53.1818 89.0863 53.9503C85.1976 54.6353 81.3418 56.2392 78.3555 58.9122C77.7156 59.4802 77.1249 60.0984 76.6162 60.7834C75.6646 62.0698 75.2544 63.139 75.1887 63.9409C75.1231 64.7596 75.3692 65.2775 75.7958 65.6283C76.2224 65.9791 76.7803 66.1295 77.4859 66.046C78.5688 65.929 79.6025 65.4612 80.587 65.0436C81.7027 64.5758 82.8185 64.0913 83.9506 63.6569C86.3954 62.7213 88.9387 62.0531 91.5476 61.7524C91.2358 61.7858 91.0389 61.8025 91.6788 61.7356C92.3351 61.6688 92.1054 61.7022 91.7773 61.7356C96.1254 61.318 100.441 61.7858 104.592 63.139C108.546 64.4755 112.304 66.5472 115.635 69.1033C116.8 70.0055 117.948 70.9243 119.08 71.8766C117.292 68.4016 115.208 65.1438 112.517 62.3204C110.975 60.8001 109.367 59.3132 107.562 58.127L107.578 58.1437Z" fill="#631E44"/>
<path d="M126.89 51.0097C126.644 51.2937 127.137 50.7257 126.89 51.0097V51.0097Z" fill="#631E44"/>
<path d="M149.583 42.4894C148.615 42.1887 147.647 41.9882 146.646 41.888C144.579 41.6708 142.363 41.8045 140.345 42.3558C136.243 43.425 132.42 45.5133 129.319 48.4537C128.466 49.2556 127.662 50.1077 126.907 51.0098C122.592 56.1555 120.639 63.4229 122.149 70.0722C124.167 66.7141 126.284 63.4563 128.909 60.5494C131.239 57.9598 133.864 55.6042 136.719 53.6328C139.131 51.9621 141.707 50.4752 144.332 49.2222C145.694 48.5707 147.056 47.9692 148.434 47.3845C149.124 47.0838 149.813 46.7831 150.485 46.4489C151.06 46.1649 151.65 45.8308 152.11 45.363C152.586 44.8451 152.553 44.3272 152.077 43.826C151.453 43.1577 150.436 42.7735 149.583 42.5061V42.4894Z" fill="#631E44"/>
<path d="M115.142 50.9932C115.027 50.8595 115.077 50.9264 115.142 50.9932V50.9932Z" fill="#631E44"/>
<path d="M115.142 50.9932C114.388 50.0911 113.584 49.2557 112.73 48.4371C109.629 45.4967 105.79 43.4084 101.704 42.3392C99.6859 41.7879 97.4708 41.6542 95.4034 41.8714C94.4025 41.9716 93.418 42.1721 92.4664 42.4728C91.6131 42.7401 90.5958 43.1244 89.9723 43.7927C89.4965 44.2939 89.4637 44.8118 89.9395 45.3297C90.3825 45.7975 90.9896 46.1316 91.5639 46.4156C92.2367 46.7498 92.9258 47.0672 93.6149 47.3512C94.9932 47.9359 96.3551 48.5541 97.7169 49.1889C100.359 50.4419 102.935 51.9288 105.33 53.5995C108.202 55.5709 110.811 57.9265 113.157 60.5161C115.766 63.423 117.899 66.6808 119.917 70.0389C121.443 63.3896 119.474 56.1222 115.175 50.9765L115.142 50.9932Z" fill="#631E44"/>
<path d="M145.218 25.5491C144.89 25.4155 144.398 25.2818 143.791 25.1482C142.56 24.9143 140.804 24.7806 138.803 24.9978C136.801 25.215 134.537 25.7997 132.436 26.8021C132.174 26.9191 131.928 27.0694 131.682 27.2031C131.698 27.1195 131.731 27.0193 131.747 26.9358C131.862 26.5181 131.961 26.0837 132.059 25.6661C132.157 25.2484 132.256 24.814 132.338 24.4131C132.387 24.1959 132.42 23.9954 132.469 23.7949C132.518 23.5944 132.568 23.394 132.6 23.1935C132.781 22.4083 132.929 21.6398 133.043 20.9381C133.175 20.2364 133.29 19.6182 133.372 19.0836C133.519 18.0144 133.536 17.296 133.372 17.1791C133.208 17.0621 132.584 17.3963 131.698 18.0311C131.468 18.1982 131.239 18.3819 130.976 18.5824C130.73 18.7829 130.435 19.0001 130.172 19.234C129.631 19.7185 129.04 20.2698 128.433 20.8712C128.285 21.0216 128.121 21.172 127.973 21.339C127.826 21.5061 127.678 21.6732 127.53 21.8402C127.235 22.1744 126.923 22.5252 126.628 22.876C126.333 23.2269 126.021 23.5944 125.725 23.962C125.447 24.3462 125.168 24.7305 124.889 25.1147C124.807 25.215 124.741 25.3319 124.675 25.4322C123.707 18.833 121.574 12 120.967 12C120.36 12 118.325 18.833 117.374 25.4322C117.292 25.3319 117.226 25.215 117.16 25.1147C116.882 24.7305 116.603 24.3462 116.324 23.962C116.045 23.5944 115.733 23.2269 115.438 22.876C115.142 22.5252 114.831 22.1744 114.535 21.8402C114.388 21.6732 114.24 21.5061 114.092 21.339C113.945 21.1887 113.78 21.0216 113.633 20.8712C113.026 20.2698 112.435 19.7185 111.893 19.234C111.631 18.9834 111.352 18.7829 111.09 18.5824C110.843 18.3819 110.597 18.1982 110.368 18.0311C109.482 17.3795 108.858 17.0621 108.694 17.1791C108.53 17.2793 108.546 17.9977 108.694 19.0836C108.76 19.6182 108.891 20.2364 109.022 20.9381C109.137 21.6398 109.301 22.3916 109.465 23.1935C109.514 23.394 109.547 23.5944 109.596 23.7949C109.646 23.9954 109.678 24.2126 109.728 24.4131C109.81 24.8307 109.908 25.2484 110.007 25.6661C110.105 26.0837 110.203 26.5181 110.318 26.9358C110.335 27.0193 110.368 27.1195 110.384 27.2031C110.138 27.0694 109.892 26.9191 109.629 26.8021C107.529 25.7997 105.265 25.215 103.263 24.9978C101.245 24.7806 99.489 24.9143 98.2748 25.1482C97.6677 25.2818 97.1755 25.3988 96.8473 25.5491C96.5192 25.6828 96.3387 25.8164 96.3223 25.9C96.3223 26.0002 96.4699 26.1673 96.7489 26.3677C97.0278 26.5682 97.438 26.8188 97.9467 27.1195C98.9475 27.721 100.277 28.5396 101.638 29.5253C103 30.5277 104.411 31.6972 105.642 32.9168C106.266 33.5182 106.856 34.1363 107.414 34.7211C107.972 35.3058 108.497 35.8905 109.006 36.4252C109.596 37.0433 110.105 37.5946 110.597 38.1292H110.581C112.435 43.2916 116.225 46.9002 121.033 46.9002C125.84 46.9002 129.204 43.4085 131.485 38.1292H131.468C131.961 37.6113 132.469 37.0433 133.06 36.4252C133.569 35.8905 134.094 35.3225 134.651 34.7211C135.209 34.1363 135.8 33.5182 136.424 32.9168C137.671 31.6972 139.065 30.5277 140.427 29.5253C141.789 28.5396 143.118 27.721 144.119 27.1195C144.611 26.8188 145.021 26.5682 145.317 26.3677C145.596 26.1673 145.76 26.0002 145.743 25.9C145.743 25.7997 145.563 25.6828 145.218 25.5491ZM114.847 38.1125C114.502 37.5278 114.158 36.9431 113.764 36.375C112.402 34.3869 110.712 32.5993 109.038 31.2294C108.202 30.5444 107.365 29.9597 106.577 29.4585C106.183 29.2079 105.806 28.9907 105.462 28.7902C105.101 28.5897 104.772 28.406 104.477 28.2556C103.263 27.6207 102.475 27.32 102.508 27.2532C102.508 27.2031 103.345 27.4036 104.625 27.9215C104.953 28.0551 105.297 28.2055 105.675 28.3892C106.052 28.573 106.446 28.7568 106.856 28.9907C107.677 29.4418 108.579 29.9931 109.482 30.6614C111.286 31.9812 113.108 33.7354 114.617 35.7569C115.192 36.5254 115.7 37.3273 116.176 38.1292H114.863L114.847 38.1125ZM115.421 31.1124C115.044 30.1602 114.683 29.2413 114.338 28.3558C113.944 27.4537 113.584 26.6183 113.255 25.8498C113.091 25.4656 112.927 25.1147 112.78 24.7806C112.632 24.4465 112.484 24.1458 112.353 23.8617C112.09 23.2937 111.893 22.8426 111.762 22.5252C111.615 22.2245 111.549 22.0407 111.582 22.024C111.598 22.024 111.729 22.1577 111.91 22.4417C112.107 22.7257 112.353 23.1601 112.665 23.6947C112.812 23.962 112.993 24.2627 113.173 24.5801C113.354 24.8976 113.551 25.2317 113.748 25.6159C114.125 26.351 114.552 27.1864 114.995 28.0551C115.405 28.9573 115.848 29.8928 116.291 30.8785C116.488 31.363 116.685 31.8642 116.898 32.3487C116.898 32.5826 116.898 32.8165 116.914 33.0504C116.504 32.4156 115.996 31.7807 115.421 31.1291V31.1124ZM120.376 38.1125C120.524 29.3749 120.754 18.8497 120.967 18.8497C121.18 18.8497 121.394 29.3749 121.558 38.1125H120.393H120.376ZM125.135 32.3487C125.332 31.8642 125.545 31.363 125.742 30.8785C126.185 29.9096 126.628 28.9573 127.038 28.0551C127.481 27.1864 127.908 26.351 128.285 25.6159C128.466 25.2484 128.663 24.8976 128.859 24.5801C129.04 24.2627 129.204 23.962 129.368 23.6947C129.68 23.1601 129.926 22.7257 130.123 22.4417C130.32 22.1577 130.435 22.0073 130.451 22.024C130.484 22.024 130.418 22.2078 130.27 22.5252C130.139 22.8426 129.942 23.2937 129.68 23.8617C129.549 24.1458 129.401 24.4465 129.253 24.7806C129.106 25.1147 128.925 25.4656 128.777 25.8498C128.449 26.6016 128.088 27.4537 127.694 28.3558C127.35 29.2246 126.989 30.1602 126.612 31.1124C126.037 31.764 125.529 32.4156 125.118 33.0504C125.118 32.8165 125.135 32.5826 125.151 32.3487H125.135ZM137.572 28.2556C137.26 28.406 136.932 28.5897 136.571 28.7902C136.227 28.9907 135.849 29.2079 135.455 29.4585C134.684 29.9597 133.847 30.5444 132.994 31.2294C131.321 32.5993 129.631 34.3869 128.269 36.375C127.875 36.9431 127.514 37.5278 127.186 38.1125H125.873C126.349 37.3106 126.858 36.5087 127.432 35.7402C128.925 33.7354 130.763 31.9645 132.568 30.6446C133.47 29.9764 134.356 29.4251 135.193 28.974C135.603 28.7401 135.997 28.5563 136.374 28.3725C136.752 28.2055 137.096 28.0384 137.424 27.9048C138.721 27.3868 139.525 27.1864 139.541 27.2365C139.557 27.3033 138.786 27.604 137.572 28.2389V28.2556Z" fill="#631E44"/>
</g>
<defs>
<clipPath id="clip0_555_4717">
<rect width="242" height="193" fill="white"/>
</clipPath>
</defs>
</svg>
