<svg width="45" height="46" viewBox="0 0 45 46" fill="none" xmlns="http://www.w3.org/2000/svg">
<g clip-path="url(#clip0_555_4958)">
<path d="M38.1523 13.8408C36.0732 1.7172 21.5726 -3.27342 12.332 4.42871C8.69533 7.46008 6.60947 11.9107 6.60937 16.6406C6.60937 21.4471 8.75722 25.9428 12.5029 28.9756C14.3553 30.4755 15.4141 32.7564 15.4141 35.2275L15.4141 38.1631C15.4141 40.4524 17.2772 42.3154 19.5664 42.3154H21.2842V44.0322C21.2842 44.7045 21.8287 45.2498 22.501 45.25C23.1733 45.25 23.7187 44.7046 23.7187 44.0322V42.3154L25.4365 42.3154C27.7257 42.3152 29.5878 40.4522 29.5879 38.1631V35.2285C29.5879 32.7527 30.6388 30.4776 32.4785 28.9932C37.0024 25.3431 39.1434 19.6207 38.1523 13.8408ZM27.1533 38.1631C27.1532 39.11 26.3835 39.8797 25.4365 39.8799L19.5664 39.8799C18.6193 39.8799 17.8487 39.1102 17.8486 38.1631L17.8486 36.4453L27.1533 36.4453V38.1631ZM13.8916 6.29883C21.6967 -0.20643 33.99 3.97221 35.7529 14.252C36.5986 19.1835 34.803 23.9882 30.9492 27.0977C28.9015 28.7499 27.5935 31.1358 27.2461 33.793L27.2178 34.0107L23.7187 34.0107V23.7275H25.4365C29.344 23.7273 32.5234 20.5481 32.5234 16.6406V13.7061C32.5234 13.0337 31.978 12.4883 31.3057 12.4883H28.3711C26.0559 12.4883 23.9959 13.6044 22.7012 15.3281L22.501 15.5947L22.3018 15.3281C21.0072 13.6044 18.947 12.4884 16.6318 12.4883H13.6963C13.0241 12.4885 12.4795 13.0338 12.4795 13.7061V16.6406C12.4795 20.5482 15.6588 23.7275 19.5664 23.7275H21.2842V34.0107H17.7842L17.7549 33.793C17.4055 31.1398 16.0923 28.7485 14.0352 27.083C10.8642 24.5154 9.04501 20.7088 9.04492 16.6406C9.04499 12.6356 10.8118 8.86586 13.8916 6.29883ZM30.0879 16.6406C30.0879 19.206 28.0018 21.2927 25.4365 21.293H23.7187V19.5752C23.719 17.0099 25.8058 14.9238 28.3711 14.9238H30.0879V16.6406ZM16.6318 14.9238C19.1971 14.924 21.284 17.01 21.2842 19.5752V21.293H19.5664C17.0009 21.293 14.9141 19.2061 14.9141 16.6406V14.9238H16.6318Z" fill="white" stroke="#BA7E38" stroke-width="0.5"/>
</g>
<defs>
<clipPath id="clip0_555_4958">
<rect width="45" height="45" fill="white" transform="matrix(-1 0 0 1 45 0.5)"/>
</clipPath>
</defs>
</svg>
