<svg width="41" height="40" viewBox="0 0 41 40" fill="none" xmlns="http://www.w3.org/2000/svg">
<path d="M5.76953 34.2859L25.3455 14.7098M14.8398 25.2156L15.1771 24.9435C15.5042 24.6597 15.8006 24.3417 16.0609 23.9945C18.0841 21.297 17.5374 17.47 14.8398 15.4468L14.5026 15.719C14.1754 16.0027 13.8791 16.3208 13.6188 16.6679C11.5956 19.3655 12.1423 23.1924 14.8398 25.2156ZM14.8398 25.2156L15.112 25.5529C15.3958 25.88 15.7138 26.1764 16.061 26.4367C18.7585 28.4599 22.5854 27.9132 24.6086 25.2156L24.3364 24.8784C24.0526 24.5512 23.7346 24.2548 23.3874 23.9945C20.6899 21.9713 16.863 22.5181 14.8398 25.2156ZM19.7242 20.3312L20.0614 20.0591C20.3886 19.7753 20.6849 19.4573 20.9453 19.1101C22.9685 16.4126 22.4218 12.5856 19.7242 10.5624L19.387 10.8345C19.0598 11.1183 18.7635 11.4364 18.5031 11.7835C16.4799 14.4811 17.0266 18.308 19.7242 20.3312ZM19.7242 20.3312L19.9964 20.6685C20.2801 20.9956 20.5982 21.292 20.9453 21.5523C23.6429 23.5755 27.4698 23.0288 29.4929 20.3312L29.2208 19.994C28.937 19.6668 28.6189 19.3704 28.2718 19.1101C25.5742 17.0869 21.7473 17.6337 19.7242 20.3312ZM24.6086 15.4468L24.9458 15.1747C25.2729 14.8909 25.5693 14.5729 25.8296 14.2257C27.8528 11.5282 27.3061 7.7012 24.6086 5.678L24.2713 5.95015C23.9442 6.23391 23.6478 6.55195 23.3875 6.89907C21.3643 9.59665 21.911 13.4236 24.6086 15.4468ZM24.6086 15.4468L24.8807 15.7841C25.1645 16.1112 25.4825 16.4076 25.8297 16.6679C28.5272 18.6911 32.3541 18.1444 34.3773 15.4468L34.1051 15.1096C33.8213 14.7824 33.5033 14.486 33.1562 14.2257C30.4586 12.2025 26.6317 12.7492 24.6086 15.4468ZM9.83983 30.2156L10.1771 29.9435C10.5042 29.6597 10.8006 29.3417 11.0609 28.9945C13.0841 26.297 12.5374 22.47 9.83983 20.4468L9.5026 20.719C9.17545 21.0027 8.8791 21.3208 8.61876 21.6679C6.59556 24.3655 7.14225 28.1924 9.83983 30.2156ZM9.83983 30.2156L10.112 30.5529C10.3958 30.88 10.7138 31.1764 11.061 31.4367C13.7585 33.4599 17.5854 32.9132 19.6086 30.2156L19.3364 29.8784C19.0526 29.5512 18.7346 29.2548 18.3874 28.9945C15.6899 26.9713 11.863 27.5181 9.83983 30.2156ZM34.5566 5.49984C35.0335 8.83797 32.714 11.9306 29.376 12.4074C28.9464 12.4688 28.512 12.4841 28.08 12.4535L27.6491 12.4074C27.1722 9.0693 29.4917 5.9767 32.8297 5.49984C33.4024 5.41802 33.9839 5.41802 34.5566 5.49984Z" stroke="white" stroke-width="1.66667" stroke-linecap="round"/>
</svg>
