<svg width="224" height="752" viewBox="0 0 224 752" fill="none" xmlns="http://www.w3.org/2000/svg">
<path d="M183.006 424.482C177.682 424.754 170.76 423.666 167.299 416.325C167.299 416.325 157.715 397.019 184.071 388.861C184.071 388.861 160.111 382.063 144.937 418.5C144.937 418.5 129.762 459.559 98.6145 436.174C98.6145 436.174 86.1021 426.929 111.127 412.246C111.127 412.246 124.438 402.729 116.717 392.668C116.717 392.668 106.601 420.947 87.4332 411.974C85.8359 411.158 81.5764 407.895 83.9724 403.817C86.3683 399.738 92.2252 393.756 101.01 391.037C103.14 390.493 106.335 388.046 107.134 385.87C107.932 383.423 108.198 379.344 101.277 381.248C99.6793 381.792 91.959 385.87 88.4981 387.502C81.3102 390.765 64.0059 392.396 64.0059 375.537C64.0059 358.679 81.3102 360.31 88.4981 363.573C91.959 365.205 99.6793 369.555 101.277 369.827C108.198 371.731 107.666 367.652 107.134 365.205C106.335 363.029 103.14 360.582 101.01 360.038C91.959 357.591 86.1021 351.337 83.9724 347.258C81.5764 342.908 85.8359 339.645 87.4332 339.101C106.601 330.128 116.717 358.407 116.717 358.407C124.438 348.346 111.127 338.829 111.127 338.829C86.1021 324.146 98.6145 314.901 98.6145 314.901C129.762 291.516 144.937 332.575 144.937 332.575C159.845 369.012 184.071 362.214 184.071 362.214C157.449 354.328 167.299 334.75 167.299 334.75C170.76 327.409 177.682 326.321 183.006 326.593C191.259 327.137 196.85 335.294 196.85 335.294C200.311 340.732 200.311 344.539 199.246 346.986C197.382 351.609 192.856 352.153 192.856 352.153C187.798 352.425 185.668 350.249 184.337 347.802C182.74 344.539 184.337 340.732 184.337 340.732C186.467 336.926 190.194 340.461 191.525 339.373C194.986 336.382 189.662 333.119 189.662 333.119C178.214 327.409 175.286 338.285 175.286 338.285C173.156 348.074 176.883 353.512 181.143 356.775C185.402 360.038 194.72 360.582 196.85 360.854C224.803 361.942 223.205 371.187 223.205 375.809C223.205 380.432 224.803 389.405 196.85 390.765C194.72 390.765 185.402 391.58 181.143 394.843C176.883 398.106 173.156 403.545 175.286 413.334C175.286 413.334 178.214 424.21 189.662 418.5C189.662 418.5 194.986 415.237 191.525 412.246C190.194 411.158 186.201 414.693 184.337 410.886C184.337 410.886 182.74 407.08 184.337 403.817C185.402 401.369 187.798 399.194 192.856 399.466C192.856 399.466 197.382 400.01 199.246 404.632C200.311 407.351 200.044 410.886 196.85 416.325C196.85 415.781 191.259 423.938 183.006 424.482ZM215.751 371.731C215.751 371.187 216.018 370.371 215.219 369.283C214.154 367.652 212.557 367.652 212.557 367.652C184.071 369.012 162.241 365.477 138.814 354.328C132.158 351.065 127.1 353.512 128.964 359.223C130.827 364.661 138.281 366.564 157.449 369.283C175.552 371.731 210.161 372.275 214.953 372.275C215.485 372.003 215.751 372.003 215.751 371.731ZM212.557 383.967C212.557 383.967 214.154 383.967 215.219 382.335C216.018 381.248 216.018 380.16 215.751 379.888C215.751 379.616 215.485 379.616 215.219 379.616C210.427 379.616 175.552 380.16 157.715 382.607C138.281 385.326 131.093 387.23 129.23 392.668C127.366 398.106 132.158 400.554 139.08 397.563C162.241 386.142 183.805 382.335 212.557 383.967Z" fill="#6F572A" fill-opacity="0.07"/>
<path d="M66.6666 306.469C67.7314 307.556 71.1923 311.091 73.0558 314.626C78.6465 324.687 75.1856 335.564 65.8679 346.168C61.0759 351.878 54.6867 356.501 50.9596 364.115C50.1609 365.746 48.0312 370.097 48.0312 374.447C47.7649 379.342 49.6285 384.508 50.4271 386.14C54.1542 394.569 60.8097 399.463 66.1341 405.174C75.4518 415.778 78.9127 426.655 73.3221 436.716C71.4585 439.979 67.9977 443.785 66.9328 444.873C57.3489 455.206 59.7448 466.626 59.2124 469.889C36.3175 454.662 43.5054 436.444 60.0111 413.331C61.8746 410.884 60.0111 407.893 57.3489 407.349C56.8164 407.349 56.0178 407.077 55.2191 407.349C54.1542 407.621 52.8231 408.98 52.2907 410.884C50.1609 419.857 46.7001 430.734 37.6486 434.812C30.9931 437.803 25.6687 433.453 23.8051 429.646C23.0065 427.743 22.7403 425.295 22.7403 422.848C23.2727 414.419 30.4606 406.805 41.6419 403.27C42.4405 402.998 44.3041 402.454 45.369 401.367C48.0312 399.192 46.9663 397.016 46.1676 395.929C45.1027 394.569 43.5054 393.753 42.4405 393.753C40.577 393.753 38.7135 394.025 35.785 397.288C29.662 404.358 20.8767 409.796 13.955 410.068C0.643993 410.612 -5.21285 392.122 5.70217 384.236C7.56571 382.877 13.1563 379.07 26.7336 379.342C28.0647 379.342 29.1295 379.614 30.1944 379.614C31.5255 379.886 32.8566 379.886 34.1877 379.886C35.2526 379.886 36.8499 379.614 36.8499 375.535C36.8499 371.456 35.5188 371.184 34.1877 371.184C32.8566 371.184 31.5255 371.184 30.1944 371.456C29.1295 371.728 28.0647 371.728 26.7336 371.728C13.1563 372 7.56571 367.921 5.70217 366.834C-5.21285 358.948 0.643993 340.458 13.955 341.002C20.8767 341.274 29.662 346.712 35.785 353.782C38.7135 357.045 40.577 357.317 42.4405 357.317C43.5054 357.317 45.1027 356.501 46.1676 355.141C46.9663 354.054 48.0312 351.878 45.369 349.703C44.3041 348.887 42.1743 348.072 41.6419 347.8C30.1944 344.265 23.2727 336.651 22.7403 328.222C22.474 325.775 22.7403 323.327 23.8051 321.424C25.6687 317.617 30.9931 313.267 37.6486 316.258C46.7001 320.336 49.8947 331.213 52.2907 340.186C52.8231 342.089 53.888 343.449 55.2191 343.721C56.0178 343.721 56.8164 343.721 57.3489 343.721C60.2773 343.177 61.8746 340.186 60.0111 337.739C43.5054 314.626 36.3175 296.408 59.2124 281.181C59.4786 284.716 57.3489 296.136 66.6666 306.469Z" fill="#6F572A" fill-opacity="0.07"/>
<path d="M193.389 670.019C200.577 689.597 209.362 677.633 209.362 677.633C204.57 675.729 203.771 671.922 204.037 669.475C205.102 664.037 214.154 658.327 219.478 666.484C222.673 671.651 220.011 677.633 220.011 677.633C213.888 690.685 200.044 687.694 192.324 684.974C192.324 684.974 198.181 690.956 196.051 700.202C195.252 703.193 189.928 714.885 204.836 720.867C204.836 720.867 200.577 711.894 204.57 706.727C205.901 705.096 213.621 700.745 217.881 707.271C221.342 712.71 225.069 724.13 221.342 751.05C221.342 751.05 217.881 737.182 197.382 729.568C197.382 729.568 179.279 724.402 183.272 707.271C184.337 703.465 187.798 690.685 184.87 685.79C183.805 684.159 182.474 683.343 181.143 683.343C179.545 683.343 177.948 684.702 178.214 687.422C178.214 687.422 178.747 715.973 158.514 715.157C158.514 715.157 152.125 714.885 149.196 709.447C144.404 700.745 153.722 695.035 159.046 696.667C161.442 697.482 164.104 699.93 163.572 705.096C163.572 705.096 177.948 702.649 164.637 687.15C164.637 687.15 146.534 665.94 164.903 654.792C183.539 643.643 193.389 670.019 193.389 670.019Z" fill="#6F572A" fill-opacity="0.07"/>
<path d="M106.865 629.503C106.865 629.503 120.975 645.546 142.805 640.924C142.805 640.924 117.514 648.809 141.474 655.879C138.279 656.967 91.4244 668.931 81.8404 630.591C81.8404 630.591 73.8538 591.707 106.865 629.503Z" fill="#6F572A" fill-opacity="0.07"/>
<path d="M123.106 592.251C126.567 601.496 134.554 615.635 148.397 628.143C143.073 626.24 129.229 630.591 142.807 639.292C125.236 636.573 107.133 626.784 101.01 607.478C101.01 607.478 92.7573 582.19 111.393 581.918C114.055 582.19 119.912 583.006 123.106 592.251Z" fill="#6F572A" fill-opacity="0.07"/>
<path d="M173.421 633.039C194.985 626.785 200.043 605.847 200.043 605.847C211.757 556.903 222.672 594.699 222.672 594.699C231.989 633.039 184.868 645.003 181.674 645.547C199.244 627.872 173.421 633.039 173.421 633.039Z" fill="#6F572A" fill-opacity="0.07"/>
<path d="M160.641 623.251C157.979 612.918 147.597 616.181 149.993 625.97C140.675 614.822 112.456 573.491 140.941 566.149C169.427 559.079 163.57 609.112 160.641 623.251Z" fill="#6F572A" fill-opacity="0.07"/>
<path d="M194.983 583.822C198.444 603.672 186.997 621.074 172.887 631.951C180.607 617.811 166.498 620.53 162.771 624.609C169.16 607.207 169.692 590.62 168.627 580.831C167.296 571.042 172.088 567.507 174.218 566.42C190.724 557.446 194.983 583.822 194.983 583.822Z" fill="#6F572A" fill-opacity="0.07"/>
<path d="M149.992 646.634C149.193 643.099 152.92 639.021 158.244 637.661C163.569 636.301 168.893 637.933 169.692 641.74C170.491 645.275 166.763 649.353 161.439 650.713C156.115 652.073 150.79 650.169 149.992 646.634Z" fill="#6F572A" fill-opacity="0.07"/>
<path d="M92.2209 466.085C92.2209 466.085 104.733 470.163 98.344 483.759C98.344 483.759 94.0844 491.373 86.3641 487.294C86.3641 487.294 80.5072 501.705 104.467 500.89C104.467 500.89 117.512 454.936 224 409.526V422.578C224 422.578 130.823 451.401 146.264 557.176C146.264 557.176 136.68 555.001 130.823 560.439C130.823 560.439 117.512 516.933 147.861 469.891C147.861 469.891 129.225 478.865 121.239 521.283C117.512 541.677 108.727 553.913 90.0911 546.571C90.0911 546.571 72.7868 539.773 94.3507 522.643C94.3507 522.643 103.402 513.67 102.87 507.687C102.87 507.687 68.2611 512.038 74.6504 477.233C74.1179 477.233 78.6437 461.462 92.2209 466.085Z" fill="#6F572A" fill-opacity="0.07"/>
<path d="M184.868 550.378C184.868 550.378 195.783 559.623 196.848 547.659C196.848 547.659 197.38 537.326 191.523 530.529C191.523 530.529 189.127 544.396 183.004 533.248C183.004 533.248 179.543 526.45 181.939 519.652C181.939 519.652 175.018 520.468 175.018 528.081C175.018 529.985 171.823 530.257 169.427 526.994C165.7 522.099 163.038 512.582 172.355 503.065C172.355 503.065 166.232 508.232 161.973 508.775C161.973 508.775 156.915 509.863 159.577 494.636C162.772 477.233 177.414 449.498 223.736 429.104C223.736 429.104 205.633 440.797 216.016 474.786C216.016 474.786 220.541 488.11 207.497 480.496C206.964 480.224 204.834 479.137 204.834 480.496C204.834 482.128 205.101 484.575 212.821 486.75C212.821 486.75 221.34 488.11 218.944 495.724C218.412 497.627 216.548 498.987 215.217 499.53C213.886 500.074 211.49 500.89 208.828 499.802C208.828 499.802 220.808 512.31 219.476 520.74C218.678 525.634 216.282 525.634 214.418 524.275C212.288 522.643 207.763 520.468 203.237 522.643C203.237 522.643 222.937 565.334 195.517 563.43C195.517 563.43 184.868 562.614 184.868 550.378ZM197.913 506.328C197.913 506.328 200.575 502.249 197.913 492.461C194.452 480.496 195.25 471.251 209.892 441.341C209.892 441.341 189.66 463.094 182.472 484.847C180.342 491.645 178.479 498.171 180.342 504.425C181.141 506.872 182.738 509.319 185.134 510.407C189.926 513.126 195.517 511.223 197.913 506.328Z" fill="#6F572A" fill-opacity="0.07"/>
<path d="M56.0166 540.588C56.0166 540.588 57.0815 528.624 63.2045 522.37C69.86 515.572 81.0413 515.028 81.0413 515.028C81.0413 515.028 80.5088 526.449 73.8533 533.247C67.7303 539.501 56.0166 540.588 56.0166 540.588Z" fill="#6F572A" fill-opacity="0.07"/>
<path d="M218.145 44.3446C213.885 51.1425 206.165 46.7919 204.834 44.8885C200.84 39.7221 205.1 30.7489 205.1 30.7489C190.191 36.731 195.516 48.4233 196.315 51.4144C198.444 60.6595 192.587 66.6416 192.587 66.6416C200.308 63.6506 214.151 60.9314 220.274 73.9833C220.274 73.9833 222.937 79.9654 219.742 85.1318C214.417 93.5611 205.1 87.8509 204.301 82.1407C203.769 79.6935 204.834 75.8867 209.626 73.9833C209.626 73.9833 200.84 62.0191 193.652 81.5969C193.652 81.5969 183.802 107.973 165.433 96.5522C147.064 85.1318 165.167 64.1944 165.167 64.1944C178.744 48.6953 164.102 46.248 164.102 46.248C164.634 51.4144 161.972 54.1335 159.576 54.6774C154.252 56.3089 145.2 50.8706 149.726 41.8974C152.654 36.4591 159.044 36.1872 159.044 36.1872C179.276 35.6434 178.744 63.9225 178.744 63.9225C178.744 66.6416 180.075 68.0012 181.672 68.0012C183.004 68.0012 184.335 67.1854 185.399 65.554C188.328 60.6595 184.601 48.1514 183.802 44.0727C179.543 27.214 197.646 22.0476 197.646 22.0476C218.145 14.434 221.605 0.566406 221.605 0.566406C225.333 27.4859 221.605 39.1783 218.145 44.3446Z" fill="#6F572A" fill-opacity="0.07"/>
<path d="M142.805 110.692C120.975 105.797 106.865 122.112 106.865 122.112C73.8538 159.908 81.8404 121.024 81.8404 121.024C91.1581 82.6845 138.279 94.6487 141.474 95.7364C117.78 102.806 142.805 110.692 142.805 110.692Z" fill="#6F572A" fill-opacity="0.07"/>
<path d="M142.807 112.052C129.23 120.753 143.073 125.376 148.397 123.2C134.554 135.708 126.567 149.848 123.107 159.093C119.646 168.338 113.789 169.154 111.393 169.154C92.4913 168.882 101.01 143.594 101.01 143.594C107.4 124.56 125.503 114.771 142.807 112.052Z" fill="#6F572A" fill-opacity="0.07"/>
<path d="M200.043 145.767C200.043 145.767 194.985 124.829 173.421 118.575C173.421 118.575 199.244 123.742 181.674 106.067C184.868 106.611 231.989 118.575 222.672 156.915C222.672 156.915 211.757 194.711 200.043 145.767Z" fill="#6F572A" fill-opacity="0.07"/>
<path d="M160.641 128.093C163.57 142.233 169.693 192.537 140.941 185.195C112.456 177.854 140.675 136.523 149.993 125.374C147.33 135.435 157.979 138.698 160.641 128.093Z" fill="#6F572A" fill-opacity="0.07"/>
<path d="M168.365 170.784C169.696 160.995 169.163 144.408 162.508 127.006C166.235 131.356 180.611 134.076 172.624 119.664C186.734 130.541 198.181 147.671 194.72 167.793C194.72 167.793 190.461 194.169 173.689 185.195C171.826 184.108 167.3 180.573 168.365 170.784Z" fill="#6F572A" fill-opacity="0.07"/>
<path d="M169.692 110.147C168.893 113.681 163.569 115.585 158.244 114.225C152.92 112.866 149.193 108.787 149.992 105.252C150.79 101.717 156.115 99.8138 161.439 101.173C167.03 102.261 170.757 106.34 169.692 110.147Z" fill="#6F572A" fill-opacity="0.07"/>
<path d="M130.559 191.178C136.416 196.616 146 194.441 146 194.441C130.559 300.215 223.736 329.038 223.736 329.038V342.09C117.248 296.681 104.203 250.727 104.203 250.727C80.2437 249.911 86.1005 264.323 86.1005 264.323C93.8209 260.244 98.0804 267.858 98.0804 267.858C104.47 281.453 91.9574 285.532 91.9574 285.532C78.3801 290.155 74.1206 274.384 74.1206 274.384C67.7313 239.579 102.606 243.929 102.606 243.929C103.405 237.947 94.0871 228.974 94.0871 228.974C72.5233 211.843 89.8276 205.045 89.8276 205.045C108.463 197.704 117.248 209.668 120.975 230.333C128.962 272.752 147.597 281.725 147.597 281.725C117.248 234.412 130.559 191.178 130.559 191.178Z" fill="#6F572A" fill-opacity="0.07"/>
<path d="M203.237 228.702C207.763 230.877 212.288 228.973 214.418 227.07C216.282 225.71 218.678 225.71 219.476 230.605C220.808 239.034 208.828 251.542 208.828 251.542C211.49 250.455 213.886 251.27 215.217 251.814C216.548 252.358 218.412 253.718 218.944 255.621C221.34 263.235 212.821 264.594 212.821 264.594C204.834 266.77 204.834 269.217 204.834 270.848C204.834 272.48 206.964 271.392 207.497 270.848C220.808 263.235 216.016 276.558 216.016 276.558C205.633 310.548 223.736 322.24 223.736 322.24C177.414 301.846 162.772 274.111 159.577 256.709C156.915 241.481 161.973 242.569 161.973 242.569C166.232 243.113 172.355 248.279 172.355 248.279C163.038 238.762 165.7 229.517 169.427 224.351C171.823 221.36 175.018 221.632 175.018 223.263C175.018 230.877 181.939 231.693 181.939 231.693C179.543 224.895 183.004 218.097 183.004 218.097C188.861 206.948 191.523 220.816 191.523 220.816C197.38 214.018 196.848 203.685 196.848 203.685C195.517 191.721 184.868 200.966 184.868 200.966C184.868 188.73 195.783 187.914 195.783 187.914C223.203 186.011 203.237 228.702 203.237 228.702ZM185.134 240.938C182.738 242.297 181.141 244.473 180.342 246.92C178.479 253.174 180.076 259.7 182.472 266.498C189.66 288.251 209.892 310.004 209.892 310.004C195.25 280.093 194.452 270.848 197.913 258.884C200.575 249.095 197.913 245.016 197.913 245.016C195.517 240.394 189.926 238.49 185.134 240.938Z" fill="#6F572A" fill-opacity="0.07"/>
<path d="M81.3098 236.588C81.3098 236.588 70.1286 236.044 63.4731 229.247C57.35 222.993 56.2852 211.028 56.2852 211.028C56.2852 211.028 67.9988 212.116 74.1219 218.37C80.5112 224.896 81.3098 236.588 81.3098 236.588Z" fill="#6F572A" fill-opacity="0.07"/>
</svg>
