<svg width="224" height="752" viewBox="0 0 224 752" fill="none" xmlns="http://www.w3.org/2000/svg">
<path d="M40.9938 424.455C46.3182 424.727 53.2399 423.639 56.7007 416.297C56.7007 416.297 66.2847 396.991 39.9289 388.834C39.9289 388.834 63.8887 382.036 79.0632 418.473C79.0632 418.473 94.2378 459.532 125.386 436.147C125.386 436.147 137.898 426.902 112.873 412.219C112.873 412.219 99.5622 402.702 107.283 392.641C107.283 392.641 117.399 420.92 136.567 411.947C138.164 411.131 142.424 407.868 140.028 403.789C137.632 399.711 131.775 393.728 122.99 391.009C120.86 390.465 117.665 388.018 116.866 385.843C116.068 383.396 115.802 379.317 122.723 381.22C124.321 381.764 132.041 385.843 135.502 387.474C142.69 390.737 159.994 392.369 159.994 375.51C159.994 358.651 142.69 360.283 135.502 363.546C132.041 365.177 124.321 369.528 122.723 369.8C115.802 371.703 116.334 367.625 116.866 365.177C117.665 363.002 120.86 360.555 122.99 360.011C132.041 357.564 137.898 351.31 140.028 347.231C142.424 342.88 138.164 339.617 136.567 339.074C117.399 330.1 107.283 358.38 107.283 358.38C99.5622 348.319 112.873 338.802 112.873 338.802C137.898 324.118 125.386 314.873 125.386 314.873C94.2378 291.489 79.0632 332.548 79.0632 332.548C64.1549 368.984 39.9289 362.186 39.9289 362.186C66.5509 354.301 56.7007 334.723 56.7007 334.723C53.2399 327.381 46.3182 326.294 40.9938 326.566C32.7409 327.109 27.1503 335.267 27.1503 335.267C23.6895 340.705 23.6895 344.512 24.7543 346.959C26.6179 351.582 31.1436 352.125 31.1436 352.125C36.2018 352.397 38.3316 350.222 39.6627 347.775C41.26 344.512 39.6627 340.705 39.6627 340.705C37.5329 336.898 33.8058 340.433 32.4747 339.346C29.0139 336.354 34.3383 333.091 34.3383 333.091C45.7857 327.381 48.7141 338.258 48.7141 338.258C50.8439 348.047 47.1168 353.485 42.8573 356.748C38.5978 360.011 29.2801 360.555 27.1503 360.827C-0.802776 361.914 0.794529 371.16 0.794529 375.782C0.794529 380.405 -0.802776 389.378 27.1503 390.737C29.2801 390.737 38.5978 391.553 42.8573 394.816C47.1168 398.079 50.8439 403.517 48.7141 413.306C48.7141 413.306 45.7857 424.183 34.3383 418.473C34.3383 418.473 29.0139 415.21 32.4747 412.219C33.8058 411.131 37.7991 414.666 39.6627 410.859C39.6627 410.859 41.26 407.052 39.6627 403.789C38.5978 401.342 36.2018 399.167 31.1436 399.439C31.1436 399.439 26.6179 399.982 24.7543 404.605C23.6895 407.324 23.9557 410.859 27.1503 416.297C27.1503 415.753 32.7409 423.911 40.9938 424.455ZM8.24871 371.703C8.24871 371.16 7.98247 370.344 8.78113 369.256C9.84601 367.625 11.4433 367.625 11.4433 367.625C39.9289 368.984 61.7589 365.449 85.1863 354.301C91.8418 351.038 96.9 353.485 95.0364 359.195C93.1729 364.634 85.7187 366.537 66.5509 369.256C48.4479 371.703 13.8393 372.247 9.04735 372.247C8.51491 371.975 8.24871 371.975 8.24871 371.703ZM11.4433 383.94C11.4433 383.94 9.84601 383.939 8.78113 382.308C7.98247 381.22 7.98249 380.133 8.24871 379.861C8.24871 379.589 8.51491 379.589 8.78113 379.589C13.5731 379.589 48.4479 380.133 66.2847 382.58C85.7188 385.299 92.9067 387.202 94.7702 392.641C96.6338 398.079 91.8418 400.526 84.9201 397.535C61.7589 386.115 40.1951 382.308 11.4433 383.94Z" fill="#6F572A" fill-opacity="0.07"/>
<path d="M157.333 306.442C156.269 307.53 152.808 311.065 150.944 314.6C145.354 324.661 148.814 335.537 158.132 346.142C162.924 351.852 169.313 356.475 173.04 364.088C173.839 365.72 175.969 370.07 175.969 374.421C176.235 379.315 174.372 384.482 173.573 386.113C169.846 394.543 163.19 399.437 157.866 405.147C148.548 415.752 145.087 426.629 150.678 436.689C152.541 439.952 156.002 443.759 157.067 444.847C166.651 455.18 164.255 466.6 164.788 469.863C187.683 454.636 180.495 436.417 163.989 413.305C162.125 410.857 163.989 407.866 166.651 407.323C167.184 407.323 167.982 407.051 168.781 407.323C169.846 407.594 171.177 408.954 171.709 410.857C173.839 419.831 177.3 430.707 186.351 434.786C193.007 437.777 198.331 433.426 200.195 429.62C200.994 427.716 201.26 425.269 201.26 422.822C200.727 414.392 193.539 406.779 182.358 403.244C181.559 402.972 179.696 402.428 178.631 401.34C175.969 399.165 177.034 396.99 177.832 395.902C178.897 394.543 180.495 393.727 181.559 393.727C183.423 393.727 185.287 393.999 188.215 397.262C194.338 404.332 203.123 409.77 210.045 410.042C223.356 410.586 229.213 392.095 218.298 384.21C216.434 382.85 210.844 379.043 197.266 379.315C195.935 379.315 194.87 379.587 193.806 379.587C192.474 379.859 191.143 379.859 189.812 379.859C188.747 379.859 187.15 379.587 187.15 375.509C187.15 371.43 188.481 371.158 189.812 371.158C191.143 371.158 192.474 371.158 193.806 371.43C194.87 371.702 195.935 371.702 197.266 371.702C210.844 371.974 216.434 367.895 218.298 366.807C229.213 358.922 223.356 340.432 210.045 340.975C203.123 341.247 194.338 346.686 188.215 353.755C185.287 357.018 183.423 357.29 181.559 357.29C180.495 357.29 178.897 356.475 177.832 355.115C177.034 354.027 175.969 351.852 178.631 349.677C179.696 348.861 181.826 348.045 182.358 347.773C193.806 344.238 200.727 336.625 201.26 328.195C201.526 325.748 201.26 323.301 200.195 321.398C198.331 317.591 193.007 313.24 186.351 316.231C177.3 320.31 174.105 331.187 171.709 340.16C171.177 342.063 170.112 343.423 168.781 343.695C167.982 343.695 167.184 343.695 166.651 343.695C163.723 343.151 162.125 340.16 163.989 337.712C180.495 314.6 187.683 296.382 164.788 281.154C164.521 284.689 166.651 296.11 157.333 306.442Z" fill="#6F572A" fill-opacity="0.07"/>
<path d="M30.6108 669.993C23.4229 689.571 14.6376 677.606 14.6376 677.606C19.4296 675.703 20.2282 671.896 19.962 669.449C18.8971 664.011 9.84565 658.3 4.52125 666.458C1.32661 671.624 3.98882 677.606 3.98882 677.606C10.1119 690.658 23.9553 687.667 31.6757 684.948C31.6757 684.948 25.8189 690.93 27.9486 700.175C28.7473 703.166 34.0717 714.859 19.1634 720.841C19.1634 720.841 23.4229 711.867 19.4296 706.701C18.0985 705.07 10.3781 700.719 6.11857 707.245C2.65771 712.683 -1.06936 724.104 2.65772 751.023C2.65772 751.023 6.11858 737.156 26.6175 729.542C26.6175 729.542 44.7205 724.376 40.7272 707.245C39.6623 703.438 36.2014 690.658 39.1299 685.764C40.1947 684.132 41.5258 683.316 42.8569 683.316C44.4543 683.316 46.0516 684.676 45.7854 687.395C45.7854 687.395 45.2529 715.946 65.4856 715.13C65.4856 715.13 71.8749 714.859 74.8033 709.42C79.5953 700.719 70.2776 695.009 64.9532 696.64C62.5572 697.456 59.895 699.903 60.4275 705.07C60.4275 705.07 46.0516 702.622 59.3626 687.123C59.3626 687.123 77.4655 665.914 59.0964 654.765C40.461 643.617 30.6108 669.993 30.6108 669.993Z" fill="#6F572A" fill-opacity="0.07"/>
<path d="M117.134 629.477C117.134 629.477 103.025 645.52 81.1947 640.897C81.1947 640.897 106.486 648.783 82.5258 655.853C85.7204 656.94 132.575 668.905 142.159 630.565C142.159 630.565 150.146 591.681 117.134 629.477Z" fill="#6F572A" fill-opacity="0.07"/>
<path d="M100.893 592.224C97.4322 601.469 89.4456 615.609 75.6022 628.117C80.9266 626.214 94.77 630.564 81.1928 639.266C98.7633 636.546 116.866 626.758 122.989 607.452C122.989 607.452 131.242 582.164 112.607 581.892C109.945 582.164 104.088 582.979 100.893 592.224Z" fill="#6F572A" fill-opacity="0.07"/>
<path d="M50.5796 633.011C29.0158 626.757 23.9576 605.82 23.9576 605.82C12.2439 556.875 1.32888 594.671 1.32888 594.671C-7.98882 633.011 39.1321 644.976 42.3268 645.519C24.7562 627.845 50.5796 633.011 50.5796 633.011Z" fill="#6F572A" fill-opacity="0.07"/>
<path d="M63.3591 623.224C66.0213 612.891 76.4039 616.154 74.0079 625.943C83.3256 614.794 111.545 573.463 83.0594 566.122C54.5739 559.052 60.4307 609.084 63.3591 623.224Z" fill="#6F572A" fill-opacity="0.07"/>
<path d="M29.0169 583.795C25.556 603.644 37.0035 621.047 51.1131 631.924C43.3928 617.784 57.5024 620.503 61.2295 624.582C54.8402 607.179 54.3078 590.593 55.3726 580.804C56.7037 571.015 51.9118 567.48 49.782 566.392C33.2764 557.419 29.0169 583.795 29.0169 583.795Z" fill="#6F572A" fill-opacity="0.07"/>
<path d="M74.0079 646.607C74.8066 643.072 71.0795 638.993 65.7551 637.634C60.4307 636.274 55.1063 637.906 54.3076 641.712C53.509 645.247 57.2361 649.326 62.5605 650.686C67.8849 652.045 73.2093 650.142 74.0079 646.607Z" fill="#6F572A" fill-opacity="0.07"/>
<path d="M131.779 466.057C131.779 466.057 119.267 470.136 125.656 483.732C125.656 483.732 129.916 491.345 137.636 487.267C137.636 487.267 143.493 501.678 119.533 500.862C119.533 500.862 106.488 454.909 0.000170486 409.499V422.551C0.000170486 422.551 93.1772 451.374 77.7364 557.149C77.7364 557.149 87.3203 554.973 93.1772 560.412C93.1772 560.412 106.488 516.905 76.1391 469.864C76.1391 469.864 94.7745 478.837 102.761 521.256C106.488 541.649 115.273 553.886 133.909 546.544C133.909 546.544 151.213 539.746 129.649 522.615C129.649 522.615 120.598 513.642 121.13 507.66C121.13 507.66 155.739 512.011 149.35 477.206C149.882 477.206 145.356 461.435 131.779 466.057Z" fill="#6F572A" fill-opacity="0.07"/>
<path d="M39.1327 550.351C39.1327 550.351 28.2177 559.596 27.1528 547.632C27.1528 547.632 26.6203 537.299 32.4772 530.501C32.4772 530.501 34.8732 544.369 40.9962 533.22C40.9962 533.22 44.4571 526.423 42.0611 519.625C42.0611 519.625 48.9828 520.44 48.9828 528.054C48.9828 529.957 52.1775 530.229 54.5734 526.966C58.3005 522.072 60.9627 512.555 51.645 503.038C51.645 503.038 57.7681 508.204 62.0276 508.748C62.0276 508.748 67.0858 509.836 64.4236 494.609C61.2289 477.206 46.5868 449.471 0.264557 429.077C0.264557 429.077 18.3675 440.769 7.98494 474.759C7.98494 474.759 3.45919 488.083 16.504 480.469C17.0364 480.197 19.1662 479.109 19.1662 480.469C19.1662 482.1 18.9 484.548 11.1796 486.723C11.1796 486.723 2.66052 488.083 5.0565 495.696C5.58894 497.6 7.45249 498.959 8.78359 499.503C10.1147 500.047 12.5107 500.863 15.1729 499.775C15.1729 499.775 3.19297 512.283 4.52407 520.712C5.32273 525.607 7.71871 525.607 9.58226 524.247C11.712 522.616 16.2378 520.44 20.7635 522.616C20.7635 522.616 1.06321 565.306 28.4839 563.403C28.4839 563.403 39.1327 562.587 39.1327 550.351ZM26.0879 506.301C26.0879 506.301 23.4257 502.222 26.0879 492.433C29.5488 480.469 28.7501 471.224 14.108 441.313C14.108 441.313 34.3407 463.066 41.5287 484.82C43.6584 491.617 45.522 498.143 43.6584 504.397C42.8598 506.845 41.2624 509.292 38.8665 510.38C34.0745 513.099 28.4839 511.195 26.0879 506.301Z" fill="#6F572A" fill-opacity="0.07"/>
<path d="M167.983 540.561C167.983 540.561 166.918 528.597 160.795 522.343C154.139 515.545 142.958 515.001 142.958 515.001C142.958 515.001 143.491 526.421 150.146 533.219C156.269 539.473 167.983 540.561 167.983 540.561Z" fill="#6F572A" fill-opacity="0.07"/>
<path d="M5.85494 44.3173C10.1145 51.1151 17.8348 46.7645 19.1659 44.8611C23.1593 39.6947 18.8997 30.7216 18.8997 30.7216C33.8081 36.7037 28.4836 48.396 27.685 51.3871C25.5552 60.6321 31.4121 66.6143 31.4121 66.6143C23.6917 63.6232 9.84824 60.9041 3.72517 73.956C3.72517 73.956 1.06299 79.9381 4.25763 85.1045C9.58203 93.5338 18.8997 87.8236 19.6984 82.1134C20.2308 79.6662 19.1659 75.8594 14.374 73.956C14.374 73.956 23.1592 61.9917 30.3472 81.5696C30.3472 81.5696 40.1973 107.945 58.5665 96.5249C76.9357 85.1045 58.8327 64.167 58.8327 64.167C45.2555 48.6679 59.8976 46.2207 59.8976 46.2207C59.3652 51.3871 62.0274 54.1062 64.4234 54.65C69.7478 56.2815 78.7993 50.8432 74.2735 41.8701C71.3451 36.4318 64.9558 36.1599 64.9558 36.1599C44.7231 35.616 45.2555 63.8951 45.2555 63.8951C45.2555 66.6143 43.9244 67.9738 42.3271 67.9738C40.996 67.9738 39.6649 67.1581 38.6 65.5266C35.6716 60.6321 39.3987 48.1241 40.1973 44.0454C44.4569 27.1867 26.3539 22.0203 26.3539 22.0203C5.85494 14.4067 2.39407 0.539063 2.39407 0.539063C-1.33301 27.4586 2.39408 39.1509 5.85494 44.3173Z" fill="#6F572A" fill-opacity="0.07"/>
<path d="M81.1947 110.665C103.025 105.771 117.134 122.086 117.134 122.086C150.146 159.882 142.159 120.998 142.159 120.998C132.841 82.6581 85.7204 94.6223 82.5258 95.71C106.219 102.78 81.1947 110.665 81.1947 110.665Z" fill="#6F572A" fill-opacity="0.07"/>
<path d="M81.1936 112.025C94.7708 120.727 80.9274 125.349 75.603 123.174C89.4464 135.682 97.433 149.822 100.894 159.067C104.355 168.312 110.212 169.127 112.608 169.127C131.509 168.856 122.99 143.567 122.99 143.567C116.601 124.533 98.4979 114.745 81.1936 112.025Z" fill="#6F572A" fill-opacity="0.07"/>
<path d="M23.9576 145.741C23.9576 145.741 29.0158 124.803 50.5796 118.549C50.5796 118.549 24.7562 123.715 42.3268 106.041C39.1321 106.585 -7.98882 118.549 1.32888 156.889C1.32888 156.889 12.2439 194.685 23.9576 145.741Z" fill="#6F572A" fill-opacity="0.07"/>
<path d="M63.3591 128.066C60.4307 142.205 54.3077 192.51 83.0594 185.168C111.545 177.826 83.3256 136.495 74.0079 125.347C76.6701 135.408 66.0213 138.67 63.3591 128.066Z" fill="#6F572A" fill-opacity="0.07"/>
<path d="M55.6353 170.757C54.3042 160.968 54.8367 144.381 61.4922 126.978C57.7651 131.329 43.3892 134.048 51.3758 119.637C37.2662 130.513 25.8187 147.644 29.2796 167.766C29.2796 167.766 33.5391 194.141 50.3109 185.168C52.1745 184.08 56.7002 180.546 55.6353 170.757Z" fill="#6F572A" fill-opacity="0.07"/>
<path d="M54.3076 110.12C55.1063 113.655 60.4307 115.558 65.7551 114.199C71.0795 112.839 74.8066 108.761 74.0079 105.226C73.2093 101.691 67.8849 99.7874 62.5605 101.147C56.9698 102.235 53.2428 106.313 54.3076 110.12Z" fill="#6F572A" fill-opacity="0.07"/>
<path d="M93.4412 191.15C87.5844 196.589 78.0004 194.413 78.0004 194.413C93.4412 300.188 0.264193 329.011 0.264193 329.011V342.063C106.752 296.653 119.797 250.7 119.797 250.7C143.757 249.884 137.9 264.295 137.9 264.295C130.18 260.217 125.92 267.83 125.92 267.83C119.531 281.426 132.043 285.505 132.043 285.505C145.62 290.127 149.88 274.356 149.88 274.356C156.269 239.551 121.394 243.902 121.394 243.902C120.596 237.92 129.913 228.946 129.913 228.946C151.477 211.816 134.173 205.018 134.173 205.018C115.537 197.676 106.752 209.641 103.025 230.306C95.0385 272.725 76.4031 281.698 76.4031 281.698C106.752 234.385 93.4412 191.15 93.4412 191.15Z" fill="#6F572A" fill-opacity="0.07"/>
<path d="M20.7635 228.675C16.2378 230.85 11.712 228.947 9.58226 227.044C7.71871 225.684 5.32273 225.684 4.52407 230.579C3.19297 239.008 15.1729 251.516 15.1729 251.516C12.5107 250.428 10.1147 251.244 8.78359 251.788C7.45249 252.332 5.58894 253.691 5.0565 255.595C2.66052 263.208 11.1796 264.568 11.1796 264.568C19.1662 266.743 19.1662 269.19 19.1662 270.822C19.1662 272.453 17.0364 271.366 16.504 270.822C3.19297 263.208 7.98494 276.532 7.98494 276.532C18.3675 310.521 0.264557 322.214 0.264557 322.214C46.5868 301.82 61.2289 274.085 64.4236 256.682C67.0858 241.455 62.0276 242.543 62.0276 242.543C57.7681 243.087 51.645 248.253 51.645 248.253C60.9627 238.736 58.3005 229.491 54.5734 224.325C52.1775 221.333 48.9828 221.605 48.9828 223.237C48.9828 230.85 42.0611 231.666 42.0611 231.666C44.4571 224.868 40.9962 218.07 40.9962 218.07C35.1394 206.922 32.4772 220.79 32.4772 220.79C26.6203 213.992 27.1528 203.659 27.1528 203.659C28.4839 191.695 39.1327 200.94 39.1327 200.94C39.1327 188.704 28.2177 187.888 28.2177 187.888C0.796997 185.985 20.7635 228.675 20.7635 228.675ZM38.8665 240.911C41.2624 242.271 42.8598 244.446 43.6584 246.893C45.522 253.147 43.9246 259.673 41.5287 266.471C34.3407 288.224 14.108 309.978 14.108 309.978C28.7501 280.067 29.5488 270.822 26.0879 258.858C23.4257 249.069 26.0879 244.99 26.0879 244.99C28.4839 240.367 34.0745 238.464 38.8665 240.911Z" fill="#6F572A" fill-opacity="0.07"/>
<path d="M142.691 236.561C142.691 236.561 153.872 236.017 160.527 229.219C166.65 222.965 167.715 211.001 167.715 211.001C167.715 211.001 156.002 212.089 149.879 218.343C143.489 224.869 142.691 236.561 142.691 236.561Z" fill="#6F572A" fill-opacity="0.07"/>
</svg>
